<svg id="Capa_1" enable-background="new 0 0 512 512" height="512" viewBox="0 0 512 512" width="512" xmlns="http://www.w3.org/2000/svg"><g><path d="m481.805 125.134h-319.534l317.715-51.602c5.451-.886 9.152-6.022 8.268-11.475-.887-5.451-6.02-9.147-11.475-8.268l-439.269 71.345h-7.314c-16.65 0-30.196 13.546-30.196 30.195v272.815c0 16.649 13.546 30.194 30.195 30.194h451.609c16.649 0 30.195-13.545 30.195-30.194v-272.815c.001-16.649-13.545-30.195-30.194-30.195zm10.195 303.011c0 5.621-4.573 10.194-10.195 10.194h-451.61c-5.622 0-10.195-4.573-10.195-10.194v-272.816c0-5.622 4.573-10.195 10.195-10.195h451.609c5.622 0 10.195 4.573 10.195 10.195v272.816z"/><path d="m158.943 171.8c-66.133 0-119.937 53.804-119.937 119.937s53.804 119.937 119.937 119.937 119.937-53.805 119.937-119.937-53.804-119.937-119.937-119.937zm0 219.873c-55.105 0-99.937-44.831-99.937-99.937s44.831-99.937 99.937-99.937 99.937 44.831 99.937 99.937-44.831 99.937-99.937 99.937z"/><path d="m451 198.567h-142.809c-5.522 0-10 4.478-10 10v50.987c0 5.522 4.478 10 10 10h142.809c5.522 0 10-4.478 10-10v-50.987c0-5.523-4.478-10-10-10zm-10 50.987h-84.809v-9.115c0-5.522-4.478-10-10-10s-10 4.478-10 10v9.115h-18v-30.987h122.809z"/><path d="m308.191 350.433h52.846c5.522 0 10-4.478 10-10v-42.845c0-5.522-4.478-10-10-10h-52.846c-5.522 0-10 4.478-10 10v42.845c0 5.522 4.478 10 10 10zm10-42.845h32.846v22.845h-32.846z"/><path d="m425.981 283.992c-19.309 0-35.018 15.709-35.018 35.018 0 19.31 15.709 35.019 35.018 35.019 19.31 0 35.019-15.709 35.019-35.019 0-19.309-15.709-35.018-35.019-35.018zm0 50.037c-8.28 0-15.018-6.737-15.018-15.019 0-8.28 6.737-15.018 15.018-15.018s15.019 6.737 15.019 15.018-6.737 15.019-15.019 15.019z"/><path d="m451 364.907h-142.809c-5.522 0-10 4.478-10 10s4.478 10 10 10h142.809c5.522 0 10-4.478 10-10s-4.478-10-10-10z"/><path d="m179.987 235.786c-3.906-3.904-10.236-3.904-14.143 0l-62.852 62.852c-3.905 3.905-3.905 10.237 0 14.143 1.953 1.952 4.512 2.929 7.071 2.929s5.118-.977 7.071-2.929l62.852-62.852c3.907-3.905 3.907-10.237.001-14.143z"/><path d="m200.751 270.693-62.852 62.852c-3.905 3.905-3.905 10.237 0 14.143 1.953 1.952 4.512 2.929 7.071 2.929s5.118-.977 7.071-2.929l62.852-62.852c3.905-3.905 3.905-10.237 0-14.143-3.906-3.905-10.236-3.905-14.142 0z"/></g></svg>