<?xml version="1.0" encoding="iso-8859-1"?>
<!-- Generator: Adobe Illustrator 19.0.0, SVG Export Plug-In . SVG Version: 6.00 Build 0)  -->
<svg version="1.1" id="Capa_1" xmlns="http://www.w3.org/2000/svg" xmlns:xlink="http://www.w3.org/1999/xlink" x="0px" y="0px"
	 viewBox="0 0 512 512" style="enable-background:new 0 0 512 512;" xml:space="preserve">
<g>
	<g>
		<path d="M480,330.667H352c-17.643,0-32,14.357-32,32v64c0,17.643,14.357,32,32,32h128c17.643,0,32-14.357,32-32v-64
			C512,345.024,497.643,330.667,480,330.667z M490.667,426.667c0,5.888-4.8,10.667-10.667,10.667H352
			c-5.867,0-10.667-4.779-10.667-10.667v-64c0-5.888,4.8-10.667,10.667-10.667h128c5.867,0,10.667,4.779,10.667,10.667V426.667z"/>
	</g>
</g>
<g>
	<g>
		<path d="M499.349,345.813c-3.435-4.779-10.048-5.888-14.891-2.475L416,392.235l-68.459-48.896
			c-4.821-3.413-11.456-2.325-14.891,2.475c-3.413,4.779-2.325,11.456,2.475,14.869l74.667,53.333
			c1.856,1.323,4.032,1.984,6.208,1.984c2.176,0,4.352-0.661,6.208-1.984l74.667-53.333
			C501.653,357.269,502.763,350.613,499.349,345.813z"/>
	</g>
</g>
<g>
	<g>
		<path d="M458.667,53.333H53.333C23.915,53.333,0,77.269,0,106.667v234.667c0,29.397,23.915,53.333,53.333,53.333H288
			c5.888,0,10.667-4.779,10.667-10.667c0-5.888-4.779-10.667-10.667-10.667H53.333c-17.643,0-32-14.357-32-32V106.667
			c0-17.643,14.357-32,32-32h405.333c17.643,0,32,14.357,32,32v192c0,5.888,4.779,10.667,10.667,10.667
			c5.888,0,10.667-4.779,10.667-10.667v-192C512,77.269,488.085,53.333,458.667,53.333z"/>
	</g>
</g>
<g>
	<g>
		<path d="M362.667,288H149.333c-5.888,0-10.667,4.779-10.667,10.667s4.779,10.667,10.667,10.667h213.333
			c5.888,0,10.667-4.779,10.667-10.667S368.555,288,362.667,288z"/>
	</g>
</g>
<g>
	<g>
		<path d="M178.197,237.803l-42.667-42.667c-4.16-4.16-10.923-4.16-15.083,0c-4.16,4.16-4.16,10.923,0,15.083l42.667,42.667
			c2.091,2.069,4.821,3.115,7.552,3.115s5.461-1.045,7.531-3.115C182.357,248.725,182.357,241.963,178.197,237.803z"/>
	</g>
</g>
<g>
	<g>
		<path d="M178.197,195.136c-4.16-4.16-10.923-4.16-15.083,0l-42.667,42.667c-4.16,4.16-4.16,10.923,0,15.083
			c2.091,2.069,4.821,3.115,7.552,3.115s5.461-1.045,7.531-3.115l42.667-42.667C182.357,206.059,182.357,199.296,178.197,195.136z"
			/>
	</g>
</g>
<g>
	<g>
		<path d="M149.333,138.667C102.272,138.667,64,176.939,64,224s38.272,85.333,85.333,85.333s85.333-38.272,85.333-85.333
			S196.395,138.667,149.333,138.667z M149.333,288c-35.285,0-64-28.715-64-64s28.715-64,64-64s64,28.715,64,64
			S184.619,288,149.333,288z"/>
	</g>
</g>
<g>
	<g>
		<path d="M391.531,237.803l-42.667-42.667c-4.16-4.16-10.923-4.16-15.083,0c-4.16,4.16-4.16,10.923,0,15.083l42.667,42.667
			c2.091,2.069,4.821,3.115,7.552,3.115c2.731,0,5.461-1.045,7.531-3.115C395.691,248.725,395.691,241.963,391.531,237.803z"/>
	</g>
</g>
<g>
	<g>
		<path d="M391.531,195.136c-4.16-4.16-10.923-4.16-15.083,0l-42.667,42.667c-4.16,4.16-4.16,10.923,0,15.083
			c2.091,2.069,4.821,3.115,7.552,3.115c2.731,0,5.461-1.045,7.531-3.115l42.667-42.667
			C395.691,206.059,395.691,199.296,391.531,195.136z"/>
	</g>
</g>
<g>
	<g>
		<path d="M362.667,138.667c-47.061,0-85.333,38.272-85.333,85.333s38.272,85.333,85.333,85.333S448,271.061,448,224
			S409.728,138.667,362.667,138.667z M362.667,288c-35.285,0-64-28.715-64-64s28.715-64,64-64s64,28.715,64,64
			S397.952,288,362.667,288z"/>
	</g>
</g>
<g>
</g>
<g>
</g>
<g>
</g>
<g>
</g>
<g>
</g>
<g>
</g>
<g>
</g>
<g>
</g>
<g>
</g>
<g>
</g>
<g>
</g>
<g>
</g>
<g>
</g>
<g>
</g>
<g>
</g>
</svg>
