<svg id="Capa_1" enable-background="new 0 0 512 512" height="512" viewBox="0 0 512 512" width="512" xmlns="http://www.w3.org/2000/svg"><g><path d="m502 319.271h-157.543c38.571-27.639 63.75-72.833 63.75-123.798 0-83.927-68.28-152.207-152.207-152.207s-152.207 68.28-152.207 152.207c0 50.964 25.179 96.159 63.75 123.798h-157.543c-5.523 0-10 4.478-10 10v129.462c0 5.522 4.477 10 10 10h492c5.523 0 10-4.478 10-10v-129.462c0-5.522-4.477-10-10-10zm-378.207-123.797c0-72.899 59.308-132.207 132.207-132.207s132.207 59.308 132.207 132.207-59.308 132.207-132.207 132.207-132.207-59.308-132.207-132.207zm368.207 253.259h-472v-109.462h186.077c15.646 5.447 32.445 8.409 49.923 8.409s34.278-2.962 49.924-8.409h.012 186.064z"/><path d="m92.822 373.271v41.462c0 5.522 4.477 10 10 10h306.355c5.523 0 10-4.478 10-10v-41.462c0-5.522-4.477-10-10-10h-306.355c-5.523 0-10 4.478-10 10zm20 10h286.355v21.462h-286.355z"/><path d="m287.138 195.474c0-17.169-13.968-31.138-31.138-31.138s-31.138 13.969-31.138 31.138 13.968 31.138 31.138 31.138 31.138-13.969 31.138-31.138zm-42.276 0c0-6.142 4.997-11.138 11.138-11.138s11.138 4.996 11.138 11.138-4.997 11.138-11.138 11.138-11.138-4.997-11.138-11.138z"/><path d="m328.952 195.474c0-40.226-32.726-72.952-72.952-72.952s-72.952 32.727-72.952 72.952 32.726 72.952 72.952 72.952 72.952-32.727 72.952-72.952zm-125.904 0c0-29.198 23.754-52.952 52.952-52.952s52.952 23.754 52.952 52.952-23.754 52.952-52.952 52.952-52.952-23.754-52.952-52.952z"/><path d="m446.34 404.003h16.085c5.523 0 10-4.478 10-10s-4.477-10-10-10h-16.085c-5.523 0-10 4.478-10 10s4.477 10 10 10z"/><path d="m65.66 384.003h-16.085c-5.523 0-10 4.478-10 10s4.477 10 10 10h16.085c5.523 0 10-4.478 10-10s-4.477-10-10-10z"/></g></svg>