<?xml version="1.0" encoding="iso-8859-1"?>
<!-- Generator: Adobe Illustrator 19.0.0, SVG Export Plug-In . SVG Version: 6.00 Build 0)  -->
<svg version="1.1" id="Capa_1" xmlns="http://www.w3.org/2000/svg" xmlns:xlink="http://www.w3.org/1999/xlink" x="0px" y="0px"
	 viewBox="0 0 512 512" style="enable-background:new 0 0 512 512;" xml:space="preserve">
<g>
	<g>
		<path d="M440.896,62.656c-8.491-3.029-14.229-11.072-14.229-19.989c0-8.917,5.739-16.96,14.229-19.989
			c4.267-1.515,7.104-7.509,7.104-12.011C448,4.779,443.221,0,437.333,0h-23.296c-4.523,0-8.533,2.837-10.027,7.083
			C400.96,15.595,392.917,21.333,384,21.333c-8.917,0-16.96-5.739-19.989-14.251C362.496,2.837,358.485,0,353.963,0h-25.259
			c-4.523,0-8.533,2.837-10.027,7.083c-3.051,8.512-11.093,14.251-20.011,14.251c-8.917,0-16.96-5.739-19.989-14.251
			C277.163,2.837,273.152,0,268.629,0h-25.259c-4.523,0-8.533,2.837-10.027,7.083c-3.051,8.512-11.093,14.251-20.011,14.251
			c-8.917,0-16.96-5.739-19.989-14.251C191.829,2.837,187.819,0,183.296,0h-25.259c-4.523,0-8.533,2.837-10.027,7.083
			C144.96,15.595,136.917,21.333,128,21.333s-16.96-5.739-19.989-14.251C106.496,2.837,102.485,0,97.963,0H74.667
			C68.779,0,64,6.72,64,12.629c0,4.501,2.837,8.533,7.104,10.048c8.491,3.029,14.229,11.072,14.229,19.989
			c0,8.917-5.739,16.96-14.229,19.989C66.837,64.171,64,68.203,64,72.704v25.259c0,4.501,2.837,8.533,7.104,10.048
			c8.491,3.029,14.229,11.072,14.229,19.989s-5.739,16.96-14.229,19.989C66.837,149.504,64,153.536,64,158.037v25.259
			c0,4.501,2.837,8.533,7.104,10.048c8.491,3.029,14.229,11.072,14.229,19.989c0,8.917-5.739,16.96-14.229,19.989
			C66.837,234.837,64,238.869,64,243.371v25.259c0,4.501,2.837,8.533,7.104,10.048c8.491,3.029,14.229,11.072,14.229,19.989
			c0,8.917-5.739,16.96-14.229,19.989C66.837,320.171,64,324.203,64,328.704v25.259c0,4.501,2.837,8.533,7.104,10.048
			c8.491,3.029,14.229,11.072,14.229,19.989c0,8.917-5.739,16.96-14.229,19.989C66.837,405.504,64,409.536,64,414.037v25.259
			c0,4.501,2.837,8.533,7.104,10.048c8.491,3.029,14.229,11.072,14.229,19.989c0,8.917-5.739,16.96-14.229,19.989
			C66.837,490.837,64,496.832,64,501.333C64,507.221,68.779,512,74.667,512h23.296c4.523,0,8.533-2.837,10.027-7.083
			c3.051-8.512,11.093-14.251,20.011-14.251s16.96,5.739,19.989,14.251c1.515,4.245,5.525,7.083,10.048,7.083h25.259
			c4.523,0,8.533-2.837,10.027-7.083c3.051-8.512,11.093-14.251,20.011-14.251c8.917,0,16.96,5.739,19.989,14.251
			c1.515,4.245,5.525,7.083,10.048,7.083h25.259c4.523,0,8.533-2.837,10.027-7.083c3.051-8.512,11.093-14.251,20.011-14.251
			c8.917,0,16.96,5.739,19.989,14.251c1.515,4.245,5.525,7.083,10.048,7.083h25.259c4.523,0,8.533-2.837,10.027-7.083
			c3.051-8.512,11.093-14.251,20.011-14.251c8.917,0,16.96,5.739,19.989,14.251c1.515,4.245,5.525,7.083,10.048,7.083h23.296
			c5.888,0,10.667-6.72,10.667-12.629c0-4.501-2.837-8.533-7.104-10.048c-8.491-3.029-14.229-11.072-14.229-19.989
			c0-8.917,5.739-16.96,14.229-19.989c4.267-1.515,7.104-5.547,7.104-10.048v-25.259c0-4.501-2.837-8.533-7.104-10.048
			c-8.491-3.029-14.229-11.072-14.229-19.989c0-8.917,5.739-16.96,14.229-19.989c4.267-1.515,7.104-5.547,7.104-10.048v-25.259
			c0-4.501-2.837-8.533-7.104-10.048c-8.491-3.029-14.229-11.072-14.229-19.989c0-8.917,5.739-16.96,14.229-19.989
			c4.267-1.515,7.104-5.547,7.104-10.048v-25.259c0-4.501-2.837-8.533-7.104-10.048c-8.491-3.029-14.229-11.072-14.229-19.989
			c0-8.917,5.739-16.96,14.229-19.989c4.267-1.515,7.104-5.547,7.104-10.048v-25.259c0-4.501-2.837-8.533-7.104-10.048
			c-8.491-3.029-14.229-11.072-14.229-19.989s5.739-16.96,14.229-19.989c4.267-1.515,7.104-5.547,7.104-10.048V72.704
			C448,68.203,445.163,64.171,440.896,62.656z M426.667,91.179c-13.013,7.531-21.333,21.504-21.333,36.821
			s8.32,29.291,21.333,36.821v11.627c-13.013,7.531-21.333,21.504-21.333,36.821s8.32,29.291,21.333,36.821v11.712
			c-13.013,7.531-21.333,21.504-21.333,36.821s8.32,29.291,21.333,36.821v11.712c-13.013,7.531-21.333,21.504-21.333,36.821
			s8.32,29.291,21.333,36.821v11.712c-13.013,7.531-21.333,21.504-21.333,36.821c0,2.048,0.149,4.075,0.469,6.059
			c-6.464-3.883-13.952-6.059-21.781-6.059c-15.296,0-29.269,8.32-36.821,21.333h-11.712c-7.552-13.013-21.483-21.333-36.779-21.333
			c-15.296,0-29.269,8.32-36.821,21.333h-11.712c-7.552-13.013-21.525-21.333-36.821-21.333c-15.296,0-29.269,8.32-36.821,21.333
			h-11.712c-7.552-13.013-21.525-21.333-36.821-21.333c-7.829,0-15.317,2.176-21.781,6.059c0.299-1.984,0.448-4.011,0.448-6.059
			c0-15.317-8.32-29.291-21.333-36.8v-11.712c13.013-7.531,21.333-21.504,21.333-36.821c0-15.317-8.32-29.291-21.333-36.8v-11.712
			c13.013-7.531,21.333-21.504,21.333-36.821c0-15.317-8.32-29.291-21.333-36.8v-11.712c13.013-7.531,21.333-21.504,21.333-36.821
			c0-15.317-8.32-29.291-21.333-36.8v-11.712c13.013-7.531,21.333-21.504,21.333-36.821s-8.32-29.291-21.333-36.8V79.488
			c13.013-7.531,21.333-21.504,21.333-36.821c0-2.048-0.149-4.075-0.448-6.059c6.464,3.883,13.952,6.059,21.781,6.059
			c15.296,0,29.269-8.32,36.821-21.333h11.691c7.552,13.013,21.525,21.333,36.821,21.333c15.296,0,29.269-8.32,36.8-21.333h11.712
			c7.552,13.013,21.525,21.333,36.821,21.333c15.296,0,29.269-8.32,36.8-21.333h11.712c7.552,13.013,21.525,21.333,36.821,21.333
			c7.829,0,15.317-2.176,21.781-6.059c-0.299,1.984-0.448,4.011-0.448,6.059c0,15.317,8.32,29.291,21.333,36.821V91.179z"/>
	</g>
</g>
<g>
	<g>
		<path d="M373.333,64H138.667C132.779,64,128,68.779,128,74.667v362.667c0,5.888,4.779,10.667,10.667,10.667h234.667
			c5.888,0,10.667-4.779,10.667-10.667V74.667C384,68.779,379.221,64,373.333,64z M362.667,426.667H149.333V85.333h213.333V426.667z
			"/>
	</g>
</g>
<g>
</g>
<g>
</g>
<g>
</g>
<g>
</g>
<g>
</g>
<g>
</g>
<g>
</g>
<g>
</g>
<g>
</g>
<g>
</g>
<g>
</g>
<g>
</g>
<g>
</g>
<g>
</g>
<g>
</g>
</svg>
