<?xml version="1.0" encoding="iso-8859-1"?>
<!-- Generator: Adobe Illustrator 19.0.0, SVG Export Plug-In . SVG Version: 6.00 Build 0)  -->
<svg version="1.1" id="Capa_1" xmlns="http://www.w3.org/2000/svg" xmlns:xlink="http://www.w3.org/1999/xlink" x="0px" y="0px"
	 viewBox="0 0 512 512" style="enable-background:new 0 0 512 512;" xml:space="preserve">
<g>
	<g>
		<path d="M504.896,62.656c-8.491-3.029-14.229-11.072-14.229-19.989c0-8.917,5.739-16.96,14.229-19.989
			c4.267-1.515,7.104-7.509,7.104-12.011C512,4.779,507.221,0,501.333,0h-23.296c-4.523,0-8.533,2.837-10.027,7.083
			C464.96,15.595,456.917,21.333,448,21.333c-8.917,0-16.96-5.739-19.989-14.251C426.496,2.837,422.485,0,417.963,0h-25.259
			c-4.523,0-8.533,2.837-10.027,7.083c-3.051,8.512-11.093,14.251-20.011,14.251s-16.96-5.739-19.989-14.251
			C341.163,2.837,337.152,0,332.629,0h-25.259c-4.523,0-8.533,2.837-10.027,7.083c-3.051,8.512-11.093,14.251-20.011,14.251
			c-8.917,0-16.96-5.739-19.989-14.251C255.829,2.837,251.819,0,247.296,0h-25.259c-4.523,0-8.533,2.837-10.027,7.083
			C208.96,15.595,200.917,21.333,192,21.333s-16.96-5.739-19.989-14.251C170.496,2.837,166.485,0,161.963,0h-23.296
			C132.779,0,128,6.72,128,12.629c0,4.501,2.837,8.533,7.104,10.048c8.491,3.029,14.229,11.072,14.229,19.989
			c0,8.917-5.739,16.96-14.229,19.989C130.837,64.171,128,68.203,128,72.704v25.259c0,4.501,2.837,8.533,7.104,10.048
			c8.491,3.029,14.229,11.072,14.229,19.989c0,5.888,4.779,10.667,10.667,10.667s10.667-4.779,10.667-10.667
			c0-15.317-8.32-29.291-21.333-36.8V79.488c13.013-7.531,21.333-21.504,21.333-36.821c0-2.048-0.149-4.075-0.448-6.059
			c6.464,3.883,13.952,6.059,21.781,6.059c15.296,0,29.269-8.32,36.8-21.333h11.712c7.552,13.013,21.525,21.333,36.821,21.333
			c15.296,0,29.269-8.32,36.8-21.333h11.712c7.552,13.013,21.525,21.333,36.821,21.333s29.269-8.32,36.8-21.333h11.712
			c7.552,13.013,21.525,21.333,36.821,21.333c7.829,0,15.317-2.176,21.781-6.059c-0.299,1.984-0.448,4.011-0.448,6.059
			c0,15.317,8.32,29.291,21.333,36.821v11.691c-13.013,7.531-21.333,21.504-21.333,36.821s8.32,29.291,21.333,36.821v11.627
			c-13.013,7.531-21.333,21.504-21.333,36.821s8.32,29.291,21.333,36.821v11.712c-13.013,7.531-21.333,21.504-21.333,36.821
			s8.32,29.291,21.333,36.821v11.712c-13.013,7.531-21.333,21.504-21.333,36.821s8.32,29.291,21.333,36.821v11.712
			c-13.013,7.531-21.333,21.504-21.333,36.821c0,2.048,0.149,4.075,0.512,6.059c-6.464-3.883-13.952-6.059-21.781-6.059
			c-15.296,0-29.269,8.32-36.821,21.333h-11.712c-7.552-13.013-21.525-21.333-36.821-21.333c-15.296,0-29.269,8.32-36.821,21.333
			h-11.712c-7.552-13.013-21.525-21.333-36.821-21.333c-15.296,0-29.269,8.32-36.821,21.333h-11.712
			c-7.552-13.013-21.525-21.333-36.821-21.333c-7.829,0-15.317,2.176-21.781,6.059c0.299-1.984,0.448-4.011,0.448-6.059
			c0-15.317-8.32-29.291-21.333-36.821v-18.475c0-5.888-4.779-10.667-10.667-10.667S128,408.149,128,414.037v25.259
			c0,4.501,2.837,8.533,7.104,10.048c8.491,3.029,14.229,11.072,14.229,19.989c0,8.917-5.739,16.96-14.229,19.989
			c-4.267,1.515-7.104,7.509-7.104,12.011c0,5.888,4.779,10.667,10.667,10.667h23.296c4.523,0,8.533-2.837,10.027-7.083
			c3.051-8.512,11.093-14.251,20.011-14.251s16.96,5.739,19.989,14.251c1.515,4.245,5.525,7.083,10.048,7.083h25.259
			c4.523,0,8.533-2.837,10.027-7.083c3.051-8.512,11.093-14.251,20.011-14.251c8.917,0,16.96,5.739,19.989,14.251
			c1.515,4.245,5.525,7.083,10.048,7.083h25.259c4.523,0,8.533-2.837,10.027-7.083c3.051-8.512,11.093-14.251,20.011-14.251
			s16.96,5.739,19.989,14.251c1.515,4.245,5.525,7.083,10.048,7.083h25.259c4.523,0,8.533-2.837,10.027-7.083
			c3.051-8.512,11.093-14.251,20.011-14.251c8.917,0,16.96,5.739,19.989,14.251c1.515,4.245,5.525,7.083,10.048,7.083h23.296
			c5.888,0,10.667-6.72,10.667-12.629c0-4.501-2.837-8.533-7.104-10.048c-8.491-3.029-14.229-11.072-14.229-19.989
			c0-8.917,5.739-16.96,14.229-19.989c4.267-1.515,7.104-5.547,7.104-10.048v-25.259c0-4.501-2.837-8.533-7.104-10.048
			c-8.491-3.029-14.229-11.072-14.229-19.989c0-8.917,5.739-16.96,14.229-19.989c4.267-1.515,7.104-5.547,7.104-10.048v-25.259
			c0-4.501-2.837-8.533-7.104-10.048c-8.491-3.029-14.229-11.072-14.229-19.989c0-8.917,5.739-16.96,14.229-19.989
			c4.267-1.515,7.104-5.547,7.104-10.048v-25.259c0-4.501-2.837-8.533-7.104-10.048c-8.491-3.029-14.229-11.072-14.229-19.989
			c0-8.917,5.739-16.96,14.229-19.989c4.267-1.515,7.104-5.547,7.104-10.048v-25.259c0-4.501-2.837-8.533-7.104-10.048
			c-8.491-3.029-14.229-11.072-14.229-19.989s5.739-16.96,14.229-19.989c4.267-1.515,7.104-5.547,7.104-10.048V72.704
			C512,68.203,509.163,64.171,504.896,62.656z"/>
	</g>
</g>
<g>
	<g>
		<path d="M437.333,64H202.667C196.779,64,192,68.779,192,74.667v42.667c0,5.888,4.779,10.667,10.667,10.667
			s10.667-4.779,10.667-10.667v-32h213.333v341.333H213.333v-53.333c0-5.888-4.779-10.667-10.667-10.667S192,367.445,192,373.333v64
			c0,5.888,4.779,10.667,10.667,10.667h234.667c5.888,0,10.667-4.779,10.667-10.667V74.667C448,68.779,443.221,64,437.333,64z"/>
	</g>
</g>
<g>
	<g>
		<path d="M309.333,192c-20.949,0-31.104-8.704-42.859-18.773c-13.056-11.2-27.883-23.893-56.725-23.893
			s-43.669,12.693-56.725,23.893C141.269,183.296,131.115,192,110.165,192c-20.928,0-31.061-8.704-42.816-18.752
			c-13.056-11.221-27.861-23.915-56.683-23.915C4.779,149.333,0,154.112,0,160s4.779,10.667,10.667,10.667
			c20.928,0,31.061,8.704,42.816,18.752c13.056,11.221,27.861,23.915,56.683,23.915c28.843,0,43.669-12.693,56.725-23.893
			c11.755-10.069,21.909-18.773,42.859-18.773s31.104,8.704,42.859,18.773c13.056,11.2,27.883,23.893,56.725,23.893
			c5.888,0,10.667-4.779,10.667-10.667S315.221,192,309.333,192z"/>
	</g>
</g>
<g>
	<g>
		<path d="M309.333,277.333c-20.949,0-31.104-8.704-42.859-18.773c-13.056-11.2-27.883-23.893-56.725-23.893
			s-43.669,12.693-56.725,23.893c-11.755,10.069-21.909,18.773-42.859,18.773c-20.928,0-31.061-8.704-42.816-18.752
			c-13.056-11.221-27.861-23.915-56.683-23.915C4.779,234.667,0,239.445,0,245.333S4.779,256,10.667,256
			c20.928,0,31.061,8.704,42.816,18.752c13.056,11.221,27.861,23.915,56.683,23.915c28.843,0,43.669-12.693,56.725-23.893
			C178.645,264.704,188.8,256,209.749,256s31.104,8.704,42.859,18.773c13.056,11.2,27.883,23.893,56.725,23.893
			c5.888,0,10.667-4.779,10.667-10.667S315.221,277.333,309.333,277.333z"/>
	</g>
</g>
<g>
	<g>
		<path d="M309.333,362.667c-20.949,0-31.104-8.704-42.859-18.773C253.419,332.693,238.592,320,209.749,320
			s-43.669,12.693-56.725,23.893c-11.755,10.069-21.909,18.773-42.859,18.773c-20.928,0-31.061-8.704-42.816-18.752
			C54.293,332.693,39.488,320,10.667,320C4.779,320,0,324.779,0,330.667s4.779,10.667,10.667,10.667
			c20.928,0,31.061,8.704,42.816,18.752C66.539,371.307,81.344,384,110.165,384c28.843,0,43.669-12.693,56.725-23.893
			c11.755-10.069,21.909-18.773,42.859-18.773s31.104,8.704,42.859,18.773c13.056,11.2,27.883,23.893,56.725,23.893
			c5.888,0,10.667-4.779,10.667-10.667C320,367.445,315.221,362.667,309.333,362.667z"/>
	</g>
</g>
<g>
</g>
<g>
</g>
<g>
</g>
<g>
</g>
<g>
</g>
<g>
</g>
<g>
</g>
<g>
</g>
<g>
</g>
<g>
</g>
<g>
</g>
<g>
</g>
<g>
</g>
<g>
</g>
<g>
</g>
</svg>
