<svg id="Capa_1" enable-background="new 0 0 512 512" height="512" viewBox="0 0 512 512" width="512" xmlns="http://www.w3.org/2000/svg"><g><path d="m415.979 246c-5.522 0-10 4.478-10 10 0 82.698-67.28 149.979-149.979 149.979s-149.979-67.281-149.979-149.979 67.281-149.979 149.979-149.979c5.522 0 10-4.478 10-10s-4.478-10-10-10c-93.727 0-169.979 76.252-169.979 169.979s76.252 169.979 169.979 169.979 169.979-76.252 169.979-169.979c0-5.522-4.478-10-10-10z"/><path d="m130.021 256c0 69.465 56.514 125.979 125.979 125.979s125.979-56.514 125.979-125.979-56.514-125.979-125.979-125.979-125.979 56.514-125.979 125.979zm231.958 0c0 58.437-47.542 105.979-105.979 105.979s-105.979-47.542-105.979-105.979 47.542-105.979 105.979-105.979 105.979 47.542 105.979 105.979z"/><path d="m502 246h-18.134c-2.45-57.169-25.876-110.563-66.589-151.277-40.714-40.713-94.108-64.14-151.277-66.589v-18.134c0-5.522-4.478-10-10-10s-10 4.478-10 10v18.134c-57.169 2.45-110.563 25.876-151.277 66.589-40.713 40.714-64.14 94.108-66.589 151.277h-18.134c-5.522 0-10 4.478-10 10s4.478 10 10 10h18.134c2.45 57.169 25.876 110.563 66.589 151.277 40.714 40.713 94.108 64.139 151.277 66.589v18.134c0 5.522 4.478 10 10 10s10-4.478 10-10v-18.134c57.169-2.45 110.563-25.876 151.277-66.589 40.713-40.714 64.139-94.108 66.589-151.277h18.134c5.522 0 10-4.478 10-10s-4.478-10-10-10zm-236 217.843v-14.255c0-5.522-4.478-10-10-10s-10 4.478-10 10v14.255c-106.796-5.078-192.765-91.047-197.843-197.843h14.255c5.522 0 10-4.478 10-10s-4.478-10-10-10h-14.255c5.078-106.796 91.047-192.765 197.843-197.843v14.255c0 5.522 4.478 10 10 10s10-4.478 10-10v-14.255c106.796 5.078 192.765 91.047 197.843 197.843h-14.255c-5.522 0-10 4.478-10 10s4.478 10 10 10h14.255c-5.078 106.796-91.047 192.765-197.843 197.843z"/><path d="m224.782 228.03c-1.064 5.419 2.466 10.675 7.886 11.739 5.414 1.063 10.675-2.466 11.739-7.886 1.083-5.513 5.958-9.514 11.593-9.514 6.515 0 11.814 5.301 11.814 11.815s-5.299 11.816-11.814 11.816c-5.522 0-10 4.478-10 10s4.478 10 10 10c6.515 0 11.814 5.3 11.814 11.814s-5.3 11.815-11.814 11.815c-5.862 0-10.893-4.365-11.7-10.154-.076-.542-.114-1.102-.114-1.661 0-5.522-4.478-10-10-10s-10 4.478-10 10c0 1.48.103 2.97.306 4.425 2.18 15.615 15.726 27.391 31.509 27.391 17.543 0 31.814-14.272 31.814-31.815 0-8.436-3.3-16.115-8.677-21.814 5.377-5.7 8.677-13.379 8.677-21.814 0-17.543-14.271-31.815-31.814-31.815-15.17-.002-28.299 10.789-31.219 25.658z"/></g></svg>