<svg id="Capa_1" enable-background="new 0 0 512 512" height="512" viewBox="0 0 512 512" width="512" xmlns="http://www.w3.org/2000/svg"><path fill="#fff" d="m393.775 156.728c-5.523 0-10 4.478-10 10v9.223h-23.022v-71.197c0-57.762-46.992-104.754-104.753-104.754s-104.753 46.992-104.753 104.753v71.197h-23.022v-9.223c0-5.522-4.477-10-10-10s-10 4.478-10 10v90.054c0 78.123 60.937 142.281 137.775 147.44v32.14h-108.373c-15.421 0-27.968 12.547-27.968 27.969v37.67c0 5.522 4.477 10 10 10h272.681c5.523 0 10-4.478 10-10v-37.67c0-15.422-12.546-27.969-27.968-27.969h-108.372v-32.14c76.839-5.159 137.775-69.317 137.775-147.44v-90.054c0-5.522-4.477-9.999-10-9.999zm-222.528-51.975c0-46.733 38.02-84.753 84.753-84.753s84.753 38.02 84.753 84.753v71.197h-169.506zm-43.022 152.028v-60.831h23.022v54.173c0 54.388 41.665 99.229 94.753 104.279v29.766c-65.8-5.117-117.775-60.296-117.775-127.387zm246.148 199.58c4.394 0 7.968 3.575 7.968 7.969v27.67h-252.681v-27.67c0-4.394 3.574-7.969 7.968-7.969zm-118.373-121.485c-46.733 0-84.753-38.02-84.753-84.753v-54.173h169.506v54.173c0 46.733-38.02 84.753-84.753 84.753zm127.775-78.095c0 67.091-51.976 122.27-117.775 127.387v-29.766c53.088-5.051 94.753-49.891 94.753-104.279v-54.173h23.022z"/></svg>