<svg id="Capa_1" enable-background="new 0 0 512 512" height="512" viewBox="0 0 512 512" width="512" xmlns="http://www.w3.org/2000/svg"><path d="m459.343 256.174h-5.631v-58.484c0-109.006-88.692-197.69-197.71-197.69s-197.71 88.684-197.71 197.689v58.484h-5.635c-17.306 0-31.385 14.082-31.385 31.392v59.519c0 17.31 14.079 31.392 31.385 31.392h42.174c6.052 19.665 24.39 34 46.014 34 26.54 0 48.132-21.592 48.132-48.131v-94.04c0-26.539-21.592-48.131-48.132-48.131-5.691 0-11.154.994-16.226 2.815v-27.3c0-72.437 58.938-131.367 131.383-131.367s131.383 58.931 131.383 131.367v27.301c-5.073-1.823-10.537-2.817-16.229-2.817-26.54 0-48.132 21.592-48.132 48.131v94.04c0 26.539 21.592 48.131 48.132 48.131 21.624 0 39.962-14.335 46.014-34h11.885v34.133c0 28.63-23.295 51.922-51.929 51.922h-61.402c-4.385-15.821-18.913-27.47-36.111-27.47h-47.227c-20.658 0-37.465 16.807-37.465 37.475 0 20.658 16.807 37.465 37.465 37.465h47.227c17.196 0 31.723-11.646 36.109-27.47h61.404c39.662 0 71.929-32.264 71.929-71.922v-34.133h10.288c17.306 0 31.385-14.082 31.385-31.392v-59.519c0-17.308-14.08-31.39-31.385-31.39zm-179.73 235.826h-47.227c-9.63 0-17.465-7.835-17.465-17.475 0-9.63 7.835-17.465 17.465-17.465h47.227c9.63 0 17.465 7.835 17.465 17.475 0 9.63-7.835 17.465-17.465 17.465zm-238.341-144.916v-59.519c0-6.281 5.107-11.392 11.385-11.392h40.057v82.302h-40.057c-6.277.001-11.385-5.11-11.385-11.391zm127.705-76.779v94.04c0 15.512-12.62 28.131-28.132 28.131s-28.131-12.619-28.131-28.131v-94.04c0-15.512 12.619-28.131 28.131-28.131s28.132 12.619 28.132 28.131zm87.025-223.983c-83.473 0-151.383 67.903-151.383 151.367v40.959c-4.402 5.031-7.775 10.983-9.788 17.525h-16.539v-58.484c0-97.978 79.721-177.689 177.71-177.689s177.71 79.711 177.71 177.689v58.484h-16.543c-2.013-6.541-5.385-12.491-9.784-17.521v-40.963c0-83.463-67.91-151.367-151.383-151.367zm143.284 318.023c0 15.512-12.619 28.131-28.131 28.131s-28.132-12.619-28.132-28.131v-94.04c0-15.512 12.62-28.131 28.132-28.131s28.131 12.619 28.131 28.131zm71.442-17.261c0 6.281-5.107 11.392-11.385 11.392h-40.057v-82.302h40.057c6.277 0 11.385 5.11 11.385 11.392z"/></svg>