<svg id="Capa_1" enable-background="new 0 0 512 512" height="512" viewBox="0 0 512 512" width="512" xmlns="http://www.w3.org/2000/svg"><g><path d="m475.796 47.976h-439.592c-19.963 0-36.204 16.241-36.204 36.204v343.64c0 19.963 16.241 36.204 36.204 36.204h439.593c19.963 0 36.204-16.241 36.204-36.204v-343.64c-.001-19.963-16.242-36.204-36.205-36.204zm16.204 379.844c0 8.935-7.269 16.204-16.204 16.204h-439.592c-8.935 0-16.204-7.27-16.204-16.204v-343.64c0-8.935 7.269-16.204 16.204-16.204h439.593c8.935 0 16.204 7.27 16.204 16.204v343.64z"/><path d="m210.467 223.757c-17.779 0-32.243 14.464-32.243 32.243s14.464 32.243 32.243 32.243 32.243-14.464 32.243-32.243-14.464-32.243-32.243-32.243zm0 44.486c-6.75 0-12.243-5.492-12.243-12.243s5.492-12.243 12.243-12.243 12.243 5.492 12.243 12.243-5.493 12.243-12.243 12.243z"/><path d="m210.467 179.757c-42.041 0-76.243 34.202-76.243 76.243s34.203 76.243 76.243 76.243 76.243-34.202 76.243-76.243-34.202-76.243-76.243-76.243zm0 132.486c-31.013 0-56.243-25.23-56.243-56.243s25.23-56.243 56.243-56.243c31.012 0 56.243 25.23 56.243 56.243s-25.231 56.243-56.243 56.243z"/><path d="m433.468 282.319v-93.404h25.234c5.523 0 10-4.478 10-10v-43.66c0-5.522-4.477-10-10-10h-70.468c-5.523 0-10 4.478-10 10v43.66c0 5.522 4.477 10 10 10h25.234v85.574l-46.168 11.409c1.843-9.688 2.808-19.682 2.808-29.898 0-88.026-71.615-159.642-159.641-159.642-88.027 0-159.641 71.616-159.641 159.642s71.615 159.642 159.642 159.642c69.848 0 129.362-45.091 150.964-107.692l64.435-15.922c4.465-1.104 7.601-5.11 7.601-9.709zm-35.234-137.064h50.468v23.66h-50.468zm-187.767 250.387c-76.999 0-139.642-62.643-139.642-139.642s62.643-139.642 139.642-139.642 139.641 62.643 139.641 139.642c0 12.176-1.567 23.993-4.509 35.26l-44.743 11.056c-5.361 1.325-8.634 6.745-7.309 12.106 1.126 4.557 5.208 7.604 9.7 7.604.794 0 1.602-.095 2.407-.294l31.901-7.883c-22.031 48.211-70.711 81.793-127.088 81.793z"/><path d="m392.989 379.276h-20.437c-5.523 0-10 4.478-10 10s4.477 10 10 10h20.437c5.523 0 10-4.478 10-10s-4.477-10-10-10z"/><path d="m458.769 379.276h-20.437c-5.523 0-10 4.478-10 10s4.477 10 10 10h20.437c5.523 0 10-4.478 10-10s-4.477-10-10-10z"/></g></svg>