<?xml version="1.0" encoding="iso-8859-1"?>
<!-- Generator: Adobe Illustrator 19.0.0, SVG Export Plug-In . SVG Version: 6.00 Build 0)  -->
<svg version="1.1" id="Capa_1" xmlns="http://www.w3.org/2000/svg" xmlns:xlink="http://www.w3.org/1999/xlink" x="0px" y="0px"
	 viewBox="0 0 511.978 511.978" style="enable-background:new 0 0 511.978 511.978;" xml:space="preserve">
<g>
	<g>
		<path d="M506.475,152.715c-5.952-8.789-15.872-14.059-26.496-14.059H199.04c-21.931,0-41.344,13.163-49.493,33.536L86.635,329.44
			c-3.968,9.856-2.752,21.013,3.2,29.824c5.952,8.811,15.872,14.059,26.496,14.059h280.939c21.952,0,41.365-13.163,49.493-33.536
			l62.912-157.248C513.643,172.661,512.427,161.504,506.475,152.715z M489.899,174.624l-62.912,157.248
			c-4.907,12.224-16.576,20.117-29.717,20.117H116.331c-3.605,0-6.805-1.728-8.832-4.693s-2.432-6.592-1.088-9.941l62.912-157.248
			c4.907-12.224,16.576-20.117,29.717-20.117h280.939c3.605,0,6.805,1.728,8.832,4.693
			C490.837,167.648,491.243,171.275,489.899,174.624z"/>
	</g>
</g>
<g>
	<g>
		<path d="M446.784,187.061c-2.709-5.227-9.195-7.211-14.4-4.523l-110.933,57.899c-18.261,8.491-39.445,6.123-54.763-5.781
			l-56.939-50.645c-4.373-3.925-11.115-3.52-15.061,0.896c-3.925,4.395-3.52,11.136,0.896,15.061l57.472,51.072
			c13.333,10.389,29.355,15.744,45.653,15.744c10.859,0,21.824-2.368,32.171-7.211l111.381-58.112
			C447.488,198.731,449.515,192.288,446.784,187.061z"/>
	</g>
</g>
<g>
	<g>
		<path d="M255.211,273.376c-2.176-5.483-8.384-8.171-13.845-5.952l-106.667,42.667c-5.483,2.197-8.128,8.405-5.931,13.867
			c1.664,4.16,5.675,6.699,9.899,6.699c1.323,0,2.667-0.235,3.947-0.747l106.667-42.667
			C254.763,285.045,257.387,278.859,255.211,273.376z"/>
	</g>
</g>
<g>
	<g>
		<path d="M401.323,311.669l-53.333-42.667c-4.608-3.669-11.285-2.944-14.997,1.664c-3.669,4.608-2.944,11.307,1.664,14.997
			l53.333,42.667c1.984,1.557,4.331,2.325,6.677,2.325c3.136,0,6.229-1.365,8.32-3.989
			C406.656,322.059,405.931,315.36,401.323,311.669z"/>
	</g>
</g>
<g>
	<g>
		<path d="M96,159.989H10.667C4.779,159.989,0,164.768,0,170.656s4.779,10.667,10.667,10.667H96c5.909,0,10.667-4.779,10.667-10.667
			S101.909,159.989,96,159.989z"/>
	</g>
</g>
<g>
	<g>
		<path d="M32,330.656H10.667C4.779,330.656,0,335.435,0,341.323c0,5.888,4.779,10.667,10.667,10.667H32
			c5.909,0,10.667-4.779,10.667-10.667C42.667,335.435,37.909,330.656,32,330.656z"/>
	</g>
</g>
<g>
	<g>
		<path d="M53.333,245.322H10.667C4.779,245.322,0,250.101,0,255.989c0,5.888,4.779,10.667,10.667,10.667h42.667
			c5.909,0,10.667-4.779,10.667-10.667C64,250.101,59.243,245.322,53.333,245.322z"/>
	</g>
</g>
<g>
</g>
<g>
</g>
<g>
</g>
<g>
</g>
<g>
</g>
<g>
</g>
<g>
</g>
<g>
</g>
<g>
</g>
<g>
</g>
<g>
</g>
<g>
</g>
<g>
</g>
<g>
</g>
<g>
</g>
</svg>
