<svg id="Capa_1" enable-background="new 0 0 512 512" height="512" viewBox="0 0 512 512" width="512" xmlns="http://www.w3.org/2000/svg"><g><path fill="#fff" d="m318.9 290.763-99.05-62.138c-7.754-4.864-17.548-5.134-25.557-.703-8.01 4.431-12.985 12.868-12.985 22.021v124.274c0 9.153 4.976 17.591 12.985 22.021 3.795 2.1 7.991 3.144 12.181 3.144 4.652 0 9.296-1.287 13.376-3.847l99.05-62.138c7.384-4.632 11.792-12.602 11.792-21.317 0-8.716-4.408-16.685-11.792-21.317zm-10.629 25.694-99.049 62.138c-2.33 1.463-4.447.588-5.249.144-.802-.443-2.666-1.771-2.666-4.521v-124.275c0-2.749 1.864-4.077 2.666-4.521.469-.26 1.389-.667 2.538-.667.814 0 1.744.205 2.711.811l99.05 62.138c2.186 1.371 2.421 3.518 2.421 4.377-.001.858-.236 3.005-2.422 4.376z"/><path fill="#fff" d="m367.019 80.229h-15.649v-70.229c0-5.522-4.478-10-10-10h-170.739c-5.523 0-10 4.478-10 10v70.229h-15.649c-5.523 0-10 4.478-10 10v395.315c0 14.588 11.868 26.456 26.456 26.456h189.126c14.587 0 26.455-11.868 26.455-26.456v-395.315c0-5.523-4.478-10-10-10zm-186.388-60.229h150.738v60.229h-31.46v-25.045c0-5.522-4.478-10-10-10s-10 4.478-10 10v25.045h-47.818v-25.045c0-5.522-4.477-10-10-10s-10 4.478-10 10v25.045h-31.46zm176.388 80.229v48.622h-202.038v-48.622zm-6.456 391.771h-189.126c-3.56 0-6.456-2.896-6.456-6.456v-316.693h202.037v316.693c.001 3.56-2.895 6.456-6.455 6.456z"/></g></svg>