<svg id="Capa_1" enable-background="new 0 0 512 512" height="512" viewBox="0 0 512 512" width="512" xmlns="http://www.w3.org/2000/svg"><g><path fill="#fff" d="m477.292 73.5h-442.584c-19.138 0-34.708 15.569-34.708 34.707v295.586c0 19.138 15.57 34.707 34.708 34.707h442.585c19.138 0 34.708-15.569 34.708-34.707v-295.586c-.001-19.138-15.571-34.707-34.709-34.707zm-457.292 34.707c0-8.109 6.598-14.707 14.708-14.707h442.585c8.11 0 14.708 6.598 14.708 14.707v121.828h-472.001zm401.714 310.293h-50.286v-55.355h15.767c5.523 0 10-4.478 10-10v-103.11h24.519zm-76.053-168.465h31.535v93.109h-31.535zm-64.518 168.465h-50.286v-55.355h15.768c5.523 0 10-4.478 10-10v-103.11h24.519v168.465zm-76.053-168.465h31.535v93.109h-31.535zm-64.519 168.465h-50.285v-55.355h15.143c5.523 0 10-4.478 10-10v-103.11h25.143v168.465zm-76.677-168.465h31.535v93.109h-31.535zm-43.894 153.758v-153.758h23.894v103.109c0 5.522 4.477 10 10 10h16.392v55.356h-35.578c-8.11 0-14.708-6.598-14.708-14.707zm140.571-153.758h24.519v103.109c0 5.522 4.477 10 10 10h15.767v55.356h-50.286zm140.572 0h24.518v103.109c0 5.522 4.477 10 10 10h15.768v55.356h-50.286zm190.857 153.758c0 8.109-6.598 14.707-14.708 14.707h-35.578v-168.465h50.286z"/><path fill="#fff" d="m96.17 198.554h319.66c5.523 0 10-4.478 10-10v-58.724c0-5.522-4.477-10-10-10h-319.66c-5.523 0-10 4.478-10 10v58.724c0 5.522 4.477 10 10 10zm10-58.724h299.66v38.724h-299.66z"/></g></svg>