<svg id="Capa_1" enable-background="new 0 0 512 512" height="512" viewBox="0 0 512 512" width="512" xmlns="http://www.w3.org/2000/svg"><g><path d="m256 184.143c-69.914 0-126.794 56.877-126.794 126.789s56.88 126.79 126.794 126.79 126.794-56.878 126.794-126.79-56.88-126.789-126.794-126.789zm0 233.579c-58.887 0-106.794-47.906-106.794-106.79s47.907-106.789 106.794-106.789 106.794 47.905 106.794 106.789-47.907 106.79-106.794 106.79z"/><path d="m313.273 294.313-62.814-39.407c-6.045-3.793-13.679-4.002-19.922-.55-6.244 3.454-10.123 10.032-10.123 17.168v78.815c0 7.135 3.879 13.713 10.122 17.166 2.959 1.637 6.229 2.451 9.495 2.451 3.627 0 7.247-1.004 10.428-2.999l62.814-39.408c5.755-3.61 9.191-9.822 9.192-16.616s-3.435-13.007-9.192-16.62zm-72.859 55.336v-77.435l61.715 38.717z"/><path d="m486.163 32.146h-459.891c-14.246 0-25.837 11.59-25.837 25.836l-.435 396.037c0 14.246 11.591 25.836 25.837 25.836h460.326c14.246 0 25.837-11.59 25.837-25.836v-396.038c0-14.246-11.591-25.835-25.837-25.835zm-12.995 109.863-53.993-34.932h72.825v34.932zm-242.891 0-53.993-34.932h105.874l53.994 34.932zm-209.841-34.932h28.823l53.993 34.932h-82.816zm65.642 0h53.386l53.994 34.932h-53.386zm250.074-54.931-53.994 34.932h-105.874l53.993-34.932zm-17.173 54.931h63.376l53.994 34.932h-63.376zm173.021-49.096v29.096h-72.825l53.993-34.932h12.995c3.219.001 5.837 2.619 5.837 5.836zm-55.651-5.835-53.994 34.932h-63.376l53.994-34.932zm-242.891 0-53.994 34.932h-53.386l53.994-34.932zm-173.022 5.835c0-3.218 2.618-5.836 5.837-5.836h76.98l-53.994 34.932h-28.823zm471.564 396.038c0 3.218-2.618 5.836-5.837 5.836h-460.326c-3.219 0-5.837-2.618-5.837-5.836v-292.01h472z"/></g></svg>