<?xml version="1.0" encoding="iso-8859-1"?>
<!-- Generator: Adobe Illustrator 19.0.0, SVG Export Plug-In . SVG Version: 6.00 Build 0)  -->
<svg version="1.1" id="Capa_1" xmlns="http://www.w3.org/2000/svg" xmlns:xlink="http://www.w3.org/1999/xlink" x="0px" y="0px"
	 viewBox="0 0 490.667 490.667" style="enable-background:new 0 0 490.667 490.667;" xml:space="preserve">
<g>
	<g>
		<path d="M437.333,21.333h-384C23.936,21.333,0,45.269,0,74.667v234.667c0,29.397,23.936,53.333,53.333,53.333h64
			c5.888,0,10.667-4.779,10.667-10.667s-4.779-10.667-10.667-10.667h-64c-17.643,0-32-14.357-32-32V74.667c0-17.643,14.357-32,32-32
			h384c17.643,0,32,14.357,32,32v234.667c0,17.643-14.357,32-32,32h-64c-5.888,0-10.667,4.779-10.667,10.667
			s4.779,10.667,10.667,10.667h64c29.397,0,53.333-23.936,53.333-53.333V74.667C490.667,45.269,466.731,21.333,437.333,21.333z"/>
	</g>
</g>
<g>
	<g>
		<path d="M445.995,68.416c-3.456-4.779-10.112-5.867-14.891-2.389l-165.76,119.701c-12.139,8.768-27.861,8.768-40,0L59.584,66.027
			c-4.8-3.477-11.456-2.389-14.891,2.389c-3.456,4.779-2.389,11.456,2.389,14.891l165.76,119.701
			c9.707,7.019,21.099,10.539,32.491,10.539s22.784-3.499,32.512-10.539l165.76-119.701
			C448.363,79.872,449.451,73.195,445.995,68.416z"/>
	</g>
</g>
<g>
	<g>
		<path d="M167.531,195.136c-4.16-4.16-10.923-4.16-15.083,0L45.781,301.803c-4.16,4.16-4.16,10.923,0,15.083
			c2.091,2.069,4.821,3.115,7.552,3.115s5.461-1.045,7.531-3.115l106.667-106.667C171.691,206.059,171.691,199.296,167.531,195.136z
			"/>
	</g>
</g>
<g>
	<g>
		<path d="M444.864,301.803L338.197,195.136c-4.16-4.16-10.923-4.16-15.083,0c-4.16,4.16-4.16,10.923,0,15.083l106.667,106.667
			c2.091,2.069,4.821,3.115,7.552,3.115c2.731,0,5.461-1.045,7.531-3.115C449.024,312.725,449.024,305.963,444.864,301.803z"/>
	</g>
</g>
<g>
	<g>
		<path d="M245.333,277.333c-52.928,0-96,43.072-96,96s43.072,96,96,96c5.888,0,10.667-4.779,10.667-10.667
			c0-5.888-4.779-10.667-10.667-10.667c-41.173,0-74.667-33.493-74.667-74.667s33.493-74.667,74.667-74.667
			C286.08,298.667,320,337.387,320,352c0,5.888,4.779,10.667,10.667,10.667c5.888,0,10.667-4.779,10.667-10.667
			C341.333,323.883,296.469,277.333,245.333,277.333z"/>
	</g>
</g>
<g>
	<g>
		<path d="M330.667,277.333c-5.888,0-10.667,4.779-10.667,10.667v53.333h-53.333c-5.888,0-10.667,4.779-10.667,10.667
			s4.779,10.667,10.667,10.667h64c5.888,0,10.667-4.779,10.667-10.667v-64C341.333,282.112,336.555,277.333,330.667,277.333z"/>
	</g>
</g>
<g>
</g>
<g>
</g>
<g>
</g>
<g>
</g>
<g>
</g>
<g>
</g>
<g>
</g>
<g>
</g>
<g>
</g>
<g>
</g>
<g>
</g>
<g>
</g>
<g>
</g>
<g>
</g>
<g>
</g>
</svg>
