<svg id="Capa_1" enable-background="new 0 0 512 512" height="512" viewBox="0 0 512 512" width="512" xmlns="http://www.w3.org/2000/svg"><g><path d="m480.735 75.258h-449.47c-17.24 0-31.265 14.025-31.265 31.264v298.955c0 17.239 14.025 31.265 31.265 31.265h449.471c17.239 0 31.265-14.025 31.265-31.265v-298.955c-.001-17.239-14.026-31.264-31.266-31.264zm-114.172 20-18.923 34.168h-183.28l-18.923-34.168zm125.437 310.22c0 6.211-5.054 11.265-11.265 11.265h-449.47c-6.211 0-11.265-5.054-11.265-11.265v-298.956c0-6.211 5.054-11.265 11.265-11.265h91.31l27.145 49.013c1.762 3.182 5.111 5.155 8.748 5.155h195.064c3.637 0 6.986-1.974 8.748-5.155l27.145-49.013h91.31c6.211 0 11.265 5.054 11.265 11.265z"/><path d="m362.99 231.138c-20.413 0-37.02 16.607-37.02 37.021s16.607 37.021 37.021 37.021c20.413 0 37.02-16.607 37.02-37.021s-16.607-37.021-37.021-37.021zm.002 54.041c-9.386 0-17.021-7.636-17.021-17.021s7.635-17.021 17.02-17.021c9.386 0 17.021 7.636 17.021 17.021s-7.635 17.021-17.02 17.021z"/><path d="m186.029 268.158c0-20.413-16.607-37.021-37.021-37.021s-37.021 16.607-37.021 37.021 16.607 37.021 37.021 37.021c20.415 0 37.021-16.608 37.021-37.021zm-54.041 0c0-9.385 7.636-17.021 17.021-17.021s17.021 7.636 17.021 17.021-7.635 17.021-17.02 17.021c-9.386 0-17.022-7.636-17.022-17.021z"/><path d="m363.274 181.205h-214.548c-47.946 0-86.953 39.007-86.953 86.953s39.007 86.954 86.953 86.954h214.549c47.946 0 86.953-39.008 86.953-86.954s-39.007-86.953-86.954-86.953zm-55.705 20c-19.25 15.962-31.531 40.05-31.531 66.953s12.282 50.992 31.533 66.954h-103.141c19.251-15.962 31.533-40.051 31.533-66.954s-12.281-50.991-31.531-66.953zm-225.797 66.953c0-36.918 30.035-66.953 66.953-66.953h.283c36.919 0 66.954 30.035 66.954 66.953s-30.035 66.953-66.954 66.953c-.026 0-.051.001-.076.001h-.207c-36.917 0-66.953-30.035-66.953-66.954zm281.502 66.954h-.207c-.025 0-.051-.001-.076-.001-36.919 0-66.954-30.035-66.954-66.953s30.035-66.953 66.954-66.953h.283c36.918 0 66.953 30.035 66.953 66.953.001 36.919-30.035 66.954-66.953 66.954z"/><path d="m377.404 375.276h-242.808c-5.522 0-10 4.478-10 10s4.478 10 10 10h242.809c5.522 0 10-4.478 10-10s-4.478-10-10.001-10z"/></g></svg>