<svg id="Capa_1" enable-background="new 0 0 512 512" height="512" viewBox="0 0 512 512" width="512" xmlns="http://www.w3.org/2000/svg"><g><path fill="#fff" d="m474.324 57.123h-436.648c-20.775 0-37.676 16.901-37.676 37.676v322.402c0 20.774 16.901 37.676 37.676 37.676h436.648c20.774 0 37.676-16.901 37.676-37.676v-322.402c0-20.775-16.901-37.676-37.676-37.676zm17.676 360.078c0 9.746-7.93 17.676-17.676 17.676h-436.648c-9.746 0-17.676-7.93-17.676-17.676v-322.402c0-9.746 7.93-17.676 17.676-17.676h436.648c9.746 0 17.676 7.93 17.676 17.676z"/><path fill="#fff" d="m141.408 160.821c-24.416 0-44.28 19.881-44.28 44.317s19.864 44.317 44.28 44.317 44.279-19.881 44.279-44.317-19.863-44.317-44.279-44.317zm0 68.635c-13.389 0-24.28-10.909-24.28-24.317s10.892-24.317 24.28-24.317 24.279 10.909 24.279 24.317-10.891 24.317-24.279 24.317z"/><path fill="#fff" d="m370.593 160.821c-24.416 0-44.28 19.881-44.28 44.317s19.864 44.317 44.28 44.317 44.279-19.881 44.279-44.317-19.863-44.317-44.279-44.317zm0 68.635c-13.388 0-24.28-10.909-24.28-24.317s10.893-24.317 24.28-24.317 24.279 10.909 24.279 24.317-10.892 24.317-24.279 24.317z"/><path fill="#fff" d="m470.768 205.139c0-55.291-44.938-100.274-100.176-100.274s-100.176 44.983-100.176 100.274c0 21.22 6.619 40.922 17.899 57.146h-64.631c11.28-16.223 17.899-35.925 17.899-57.146 0-55.291-44.938-100.274-100.176-100.274s-100.175 44.983-100.175 100.274c0 55.292 44.938 100.275 100.176 100.275 24.28 0 46.57-8.692 63.929-23.13h101.326c17.359 14.438 39.649 23.13 63.929 23.13 55.237 0 100.176-44.983 100.176-100.275zm-409.536 0c0-44.264 35.967-80.274 80.176-80.274s80.176 36.011 80.176 80.274-35.967 80.275-80.176 80.275-80.176-36.012-80.176-80.275zm309.36 80.275c-44.209 0-80.176-36.012-80.176-80.275s35.967-80.274 80.176-80.274 80.176 36.011 80.176 80.274-35.967 80.275-80.176 80.275z"/><path fill="#fff" d="m347.389 327.265h-182.778c-5.522 0-10 4.478-10 10v40.882c0 5.522 4.478 10 10 10h182.777c5.522 0 10-4.478 10-10v-40.882c.001-5.523-4.477-10-9.999-10zm-10 40.881h-162.778v-20.882h162.777v20.882z"/><path fill="#fff" d="m65.685 394.002h-14.855c-5.522 0-10 4.478-10 10s4.478 10 10 10h14.854c5.522 0 10-4.478 10-10s-4.477-10-9.999-10z"/><path fill="#fff" d="m50.83 117.998h14.854c5.522 0 10-4.478 10-10s-4.478-10-10-10h-14.854c-5.522 0-10 4.478-10 10s4.478 10 10 10z"/><path fill="#fff" d="m461.17 97.998h-14.854c-5.522 0-10 4.478-10 10s4.478 10 10 10h14.854c5.522 0 10-4.478 10-10s-4.478-10-10-10z"/><path fill="#fff" d="m461.17 394.002h-14.854c-5.522 0-10 4.478-10 10s4.478 10 10 10h14.854c5.522 0 10-4.478 10-10s-4.478-10-10-10z"/></g></svg>