<?xml version="1.0" encoding="iso-8859-1"?>
<!-- Generator: Adobe Illustrator 19.0.0, SVG Export Plug-In . SVG Version: 6.00 Build 0)  -->
<svg version="1.1" id="Capa_1" xmlns="http://www.w3.org/2000/svg" xmlns:xlink="http://www.w3.org/1999/xlink" x="0px" y="0px"
	 viewBox="0 0 490.667 490.667" style="enable-background:new 0 0 490.667 490.667;" xml:space="preserve">
<g>
	<g>
		<path d="M245.333,293.333h-42.667C161.493,293.333,128,326.827,128,368s33.493,74.667,74.667,74.667
			c5.888,0,10.667-4.779,10.667-10.667s-4.779-10.667-10.667-10.667c-29.397,0-53.333-23.936-53.333-53.333
			s23.936-53.333,53.333-53.333h42.667c5.888,0,10.667-4.779,10.667-10.667S251.221,293.333,245.333,293.333z"/>
	</g>
</g>
<g>
	<g>
		<path d="M288,293.333c-5.888,0-10.667,4.779-10.667,10.667s4.779,10.667,10.667,10.667c29.397,0,53.333,23.936,53.333,53.333
			S317.397,421.333,288,421.333h-42.667c-5.888,0-10.667,4.779-10.667,10.667s4.779,10.667,10.667,10.667H288
			c41.173,0,74.667-33.493,74.667-74.667S329.173,293.333,288,293.333z"/>
	</g>
</g>
<g>
	<g>
		<path d="M252.864,296.491l-32-32c-4.16-4.16-10.923-4.16-15.083,0s-4.16,10.923,0,15.083l24.448,24.448l-24.448,24.448
			c-4.16,4.16-4.16,10.923,0,15.083c2.091,2.069,4.821,3.115,7.552,3.115s5.461-1.045,7.531-3.093l32-32
			C257.024,307.413,257.024,300.651,252.864,296.491z"/>
	</g>
</g>
<g>
	<g>
		<path d="M260.416,432l24.448-24.448c4.16-4.16,4.16-10.923,0-15.083c-4.16-4.16-10.923-4.16-15.083,0l-32,32
			c-4.16,4.16-4.16,10.923,0,15.083l32,32c2.091,2.069,4.821,3.115,7.552,3.115s5.461-1.045,7.531-3.136
			c4.16-4.16,4.16-10.923,0-15.083L260.416,432z"/>
	</g>
</g>
<g>
	<g>
		<path d="M437.333,16h-384C23.936,16,0,39.936,0,69.333V304c0,29.397,23.936,53.333,53.333,53.333H96
			c5.888,0,10.667-4.779,10.667-10.667c0-5.888-4.779-10.667-10.667-10.667H53.333c-17.643,0-32-14.357-32-32V69.333
			c0-17.643,14.357-32,32-32h384c17.643,0,32,14.357,32,32V304c0,17.643-14.357,32-32,32h-42.667
			c-5.888,0-10.667,4.779-10.667,10.667c0,5.888,4.779,10.667,10.667,10.667h42.667c29.397,0,53.333-23.936,53.333-53.333V69.333
			C490.667,39.936,466.731,16,437.333,16z"/>
	</g>
</g>
<g>
	<g>
		<path d="M445.995,63.083c-3.456-4.779-10.112-5.867-14.891-2.389l-165.76,119.701c-12.139,8.768-27.861,8.768-40,0L59.584,60.693
			c-4.8-3.477-11.456-2.411-14.891,2.389c-3.456,4.779-2.389,11.456,2.389,14.891l165.76,119.701
			c9.707,7.019,21.099,10.539,32.491,10.539s22.784-3.499,32.512-10.539l165.76-119.701
			C448.363,74.539,449.451,67.861,445.995,63.083z"/>
	</g>
</g>
<g>
	<g>
		<path d="M167.531,189.803c-4.16-4.16-10.923-4.16-15.083,0L45.781,296.469c-4.16,4.16-4.16,10.923,0,15.083
			c2.091,2.069,4.821,3.115,7.552,3.115s5.461-1.045,7.531-3.115l106.667-106.667C171.691,200.725,171.691,193.963,167.531,189.803z
			"/>
	</g>
</g>
<g>
	<g>
		<path d="M444.864,296.469L338.197,189.803c-4.16-4.16-10.923-4.16-15.083,0c-4.16,4.16-4.16,10.923,0,15.083l106.667,106.667
			c2.091,2.069,4.821,3.115,7.552,3.115c2.731,0,5.461-1.045,7.531-3.115C449.024,307.392,449.024,300.629,444.864,296.469z"/>
	</g>
</g>
<g>
</g>
<g>
</g>
<g>
</g>
<g>
</g>
<g>
</g>
<g>
</g>
<g>
</g>
<g>
</g>
<g>
</g>
<g>
</g>
<g>
</g>
<g>
</g>
<g>
</g>
<g>
</g>
<g>
</g>
</svg>
