<svg id="Capa_1" enable-background="new 0 0 512 512" height="512" viewBox="0 0 512 512" width="512" xmlns="http://www.w3.org/2000/svg"><g><path d="m256 146.475c-60.392 0-109.525 49.133-109.525 109.525s49.133 109.525 109.525 109.525c60.393 0 109.525-49.133 109.525-109.525s-49.133-109.525-109.525-109.525zm0 199.05c-49.364 0-89.525-40.161-89.525-89.525s40.161-89.525 89.525-89.525 89.525 40.161 89.525 89.525-40.161 89.525-89.525 89.525z"/><path d="m305.591 240.586-53.527-33.582c-5.605-3.517-12.687-3.712-18.478-.509-5.792 3.203-9.39 9.305-9.39 15.923v67.164c0 6.618 3.598 12.72 9.39 15.923 2.744 1.519 5.777 2.273 8.806 2.273 3.364 0 6.722-.932 9.671-2.782l53.528-33.582c5.338-3.35 8.524-9.112 8.524-15.414s-3.186-12.064-8.524-15.414zm-61.394 45.736v-60.645l48.33 30.323z"/><path d="m445.508 0h-52.754c-5.522 0-10 4.478-10 10v10h-253.508v-10c0-5.522-4.477-10-10-10h-52.754c-5.523 0-10 4.478-10 10v492c0 5.522 4.477 10 10 10h52.753c5.523 0 10-4.478 10-10v-10h253.508v10c0 5.522 4.478 10 10 10h52.754c5.522 0 10-4.478 10-10v-492c.001-5.522-4.477-10-9.999-10zm-336.262 246h-32.754v-62h32.753v62zm-32.754 20h32.753v62h-32.753zm32.754-102h-32.754v-62h32.753v62zm-32.754 184h32.753v62h-32.753zm52.754-231.532h253.508v279.064h-253.508zm273.508 67.532h32.754v62h-32.754zm0 82h32.754v62h-32.754zm32.754-102h-32.754v-62h32.754zm-32.754 184h32.754v62h-32.754zm0-328h32.754v62h-32.754zm-20 20v56.468h-253.508v-56.468zm-273.508-20v62h-32.754v-62zm0 472h-32.754v-62h32.753v62zm20-20v-56.468h253.508v56.468zm273.508 20v-62h32.754v62z"/></g></svg>