<?xml version="1.0" encoding="iso-8859-1"?>
<!-- Generator: Adobe Illustrator 19.0.0, SVG Export Plug-In . SVG Version: 6.00 Build 0)  -->
<svg version="1.1" id="Capa_1" xmlns="http://www.w3.org/2000/svg" xmlns:xlink="http://www.w3.org/1999/xlink" x="0px" y="0px"
	 viewBox="0 0 512 512" style="enable-background:new 0 0 512 512;" xml:space="preserve">
<g>
	<g>
		<path d="M467.456,185.776c-3.328-4.843-9.941-6.08-14.827-2.773L277.675,302.704c-13.184,9.003-30.208,9.003-43.371,0
			L59.349,183.003c-4.885-3.328-11.52-2.091-14.827,2.773c-3.307,4.864-2.069,11.499,2.795,14.827l174.955,119.701
			c10.24,7.019,21.995,10.517,33.728,10.517s23.488-3.499,33.728-10.517l174.955-119.701
			C469.547,197.275,470.784,190.64,467.456,185.776z"/>
	</g>
</g>
<g>
	<g>
		<path d="M487.659,148.912L290.923,21.445c-20.672-14.144-49.408-13.995-69.632-0.149L24.341,148.891
			C9.088,158.768,0,175.493,0,193.669v254.123c0,29.397,23.936,53.333,53.333,53.333h405.333c29.397,0,53.333-23.915,53.333-53.333
			V193.669C512,175.493,502.912,158.768,487.659,148.912z M490.667,447.792c0,17.643-14.357,32-32,32H53.333
			c-17.643,0-32-14.357-32-32V193.669c0-10.901,5.461-20.949,14.613-26.859L233.109,39.045c6.784-4.629,14.699-7.083,22.891-7.083
			s16.107,2.453,23.104,7.232l196.949,127.616c9.152,5.931,14.613,15.957,14.613,26.859V447.792z"/>
	</g>
</g>
<g>
	<g>
		<path d="M189.525,334.277c-3.776-4.523-10.496-5.141-15.04-1.365l-128,106.667c-4.523,3.776-5.141,10.517-1.365,15.04
			c2.112,2.539,5.141,3.84,8.213,3.84c2.411,0,4.843-0.811,6.827-2.475l128-106.667C192.683,345.541,193.301,338.8,189.525,334.277z
			"/>
	</g>
</g>
<g>
	<g>
		<path d="M465.515,439.579l-128-106.667c-4.565-3.776-11.285-3.157-15.04,1.365c-3.776,4.544-3.157,11.264,1.365,15.04l128,106.667
			c2.005,1.664,4.416,2.475,6.827,2.475c3.051,0,6.08-1.301,8.213-3.84C470.656,450.075,470.037,443.355,465.515,439.579z"/>
	</g>
</g>
<g>
</g>
<g>
</g>
<g>
</g>
<g>
</g>
<g>
</g>
<g>
</g>
<g>
</g>
<g>
</g>
<g>
</g>
<g>
</g>
<g>
</g>
<g>
</g>
<g>
</g>
<g>
</g>
<g>
</g>
</svg>
