<svg id="Capa_1" enable-background="new 0 0 512 512" height="512" viewBox="0 0 512 512" width="512" xmlns="http://www.w3.org/2000/svg"><g><path d="m256 359.118c63.497 0 115.156-51.658 115.156-115.155s-51.659-115.156-115.156-115.156-115.156 51.659-115.156 115.156 51.659 115.155 115.156 115.155zm0-210.311c52.469 0 95.156 42.687 95.156 95.156s-42.687 95.155-95.156 95.155-95.156-42.687-95.156-95.155c0-52.47 42.687-95.156 95.156-95.156z"/><path d="m232.591 295.773c2.814 1.557 5.925 2.331 9.031 2.331 3.449 0 6.893-.955 9.918-2.853l56.556-35.482c5.474-3.435 8.743-9.344 8.743-15.807s-3.269-12.372-8.743-15.807l-56.555-35.482c-5.748-3.607-13.009-3.807-18.949-.521-5.939 3.285-9.628 9.541-9.628 16.328v70.964c-.001 6.787 3.689 13.044 9.627 16.329zm10.372-84.871 52.694 33.061-52.694 33.061z"/><path d="m322.004 373.769h-132.008c-5.523 0-10 4.478-10 10s4.477 10 10 10h132.009c5.523 0 10-4.478 10-10s-4.478-10-10.001-10z"/><path d="m476.689 112.045c5.523 0 10-4.478 10-10v-44.569c0-5.522-4.477-10-10-10h-189.856c1.88-4.198 2.927-8.848 2.927-13.737 0-18.604-15.145-33.739-33.76-33.739s-33.76 15.135-33.76 33.738c0 4.889 1.047 9.539 2.927 13.737h-189.856c-5.523 0-10 4.478-10 10v44.569c0 5.522 4.477 10 10 10h6.565v301.889h-6.565c-5.523 0-10 4.478-10 10s4.477 10 10 10h210.689v12.102c-13.749 4.269-23.76 17.102-23.76 32.227 0 18.603 15.145 33.738 33.76 33.738s33.76-15.135 33.76-33.738c0-15.125-10.012-27.957-23.76-32.227v-12.102h210.689c5.523 0 10-4.478 10-10s-4.477-10-10-10h-6.565v-301.888zm-220.689 379.955c-7.587 0-13.76-6.163-13.76-13.738s6.173-13.737 13.76-13.737 13.76 6.162 13.76 13.737-6.173 13.738-13.76 13.738zm-13.76-458.262c0-7.575 6.173-13.738 13.76-13.738s13.76 6.163 13.76 13.738-6.173 13.738-13.76 13.738-13.76-6.163-13.76-13.738zm-196.929 33.738h421.378v24.569h-421.378zm404.813 346.458h-388.248v-301.889h388.248z"/></g></svg>