<?xml version="1.0" encoding="iso-8859-1"?>
<!-- Generator: Adobe Illustrator 19.0.0, SVG Export Plug-In . SVG Version: 6.00 Build 0)  -->
<svg version="1.1" id="Capa_1" xmlns="http://www.w3.org/2000/svg" xmlns:xlink="http://www.w3.org/1999/xlink" x="0px" y="0px"
	 viewBox="0 0 512 512" style="enable-background:new 0 0 512 512;" xml:space="preserve">
<g>
	<g>
		<path fill="#fff" d="M458.667,0C452.779,0,448,4.779,448,10.667v186.368L277.675,313.579c-13.163,9.003-30.208,9.003-43.371,0L59.349,193.877
			c-4.8-3.307-11.456-2.112-14.827,2.773c-3.307,4.864-2.069,11.499,2.795,14.827l174.955,119.701
			c10.24,7.019,21.973,10.517,33.728,10.517s23.488-3.499,33.728-10.517l174.955-119.701c2.923-2.005,4.651-5.291,4.651-8.811v-192
			C469.333,4.779,464.555,0,458.667,0z"/>
	</g>
</g>
<g>
	<g>
		<path fill="#fff" d="M487.68,159.787c-4.885-3.2-11.541-1.835-14.763,3.136c-3.2,4.928-1.792,11.541,3.136,14.741
			c9.152,5.931,14.613,15.957,14.613,26.859v254.144c0,17.643-14.357,32-32,32H53.333c-17.643,0-32-14.357-32-32V204.523
			c0-10.88,5.461-20.928,14.613-26.88c4.928-3.2,6.315-9.813,3.136-14.741c-3.243-4.949-9.856-6.336-14.763-3.136
			C9.088,169.643,0,186.368,0,204.523v254.144C0,488.064,23.915,512,53.333,512h405.333C488.085,512,512,488.064,512,458.667
			V204.523C512,186.389,502.912,169.643,487.68,159.787z"/>
	</g>
</g>
<g>
	<g>
		<path fill="#fff" d="M189.504,345.152c-3.797-4.565-10.517-5.12-15.019-1.365l-128,106.667c-4.501,3.776-5.12,10.517-1.344,15.04
			c2.112,2.539,5.141,3.84,8.192,3.84c2.411,0,4.843-0.811,6.827-2.475l128-106.667C192.661,356.416,193.28,349.675,189.504,345.152
			z"/>
	</g>
</g>
<g>
	<g>
		<path fill="#fff" d="M465.515,450.453l-128-106.667c-4.501-3.712-11.221-3.179-15.019,1.365c-3.776,4.544-3.179,11.264,1.344,15.04
			l128,106.667c1.984,1.664,4.416,2.475,6.827,2.475c3.051,0,6.08-1.301,8.192-3.84
			C470.635,460.949,470.037,454.229,465.515,450.453z"/>
	</g>
</g>
<g>
	<g>
		<path fill="#fff" d="M458.667,0H181.333c-2.837,0-5.547,1.131-7.552,3.115l-128,128c-1.984,2.005-3.115,4.715-3.115,7.552v64
			c0,5.888,4.779,10.667,10.667,10.667S64,208.555,64,202.667v-59.584L185.749,21.333h272.917c5.888,0,10.667-4.779,10.667-10.667
			S464.555,0,458.667,0z"/>
	</g>
</g>
<g>
	<g>
		<path fill="#fff" d="M181.333,0c-5.888,0-10.667,4.779-10.667,10.667V128H53.333c-5.888,0-10.667,4.779-10.667,10.667
			s4.779,10.667,10.667,10.667h128c5.888,0,10.667-4.779,10.667-10.667v-128C192,4.779,187.221,0,181.333,0z"/>
	</g>
</g>
<g>
</g>
<g>
</g>
<g>
</g>
<g>
</g>
<g>
</g>
<g>
</g>
<g>
</g>
<g>
</g>
<g>
</g>
<g>
</g>
<g>
</g>
<g>
</g>
<g>
</g>
<g>
</g>
<g>
</g>
</svg>
