<?xml version="1.0" encoding="iso-8859-1"?>
<!-- Generator: Adobe Illustrator 19.0.0, SVG Export Plug-In . SVG Version: 6.00 Build 0)  -->
<svg version="1.1" id="Capa_1" xmlns="http://www.w3.org/2000/svg" xmlns:xlink="http://www.w3.org/1999/xlink" x="0px" y="0px"
	 viewBox="0 0 490.667 490.667" style="enable-background:new 0 0 490.667 490.667;" xml:space="preserve">
<g>
	<g>
		<path d="M437.333,10.667h-384C23.936,10.667,0,34.603,0,64v234.667C0,328.064,23.936,352,53.333,352H96
			c5.888,0,10.667-4.779,10.667-10.667c0-5.888-4.779-10.667-10.667-10.667H53.333c-17.643,0-32-14.357-32-32V64
			c0-17.643,14.357-32,32-32h384c17.643,0,32,14.357,32,32v234.667c0,17.643-14.357,32-32,32h-42.667
			c-5.888,0-10.667,4.779-10.667,10.667c0,5.888,4.779,10.667,10.667,10.667h42.667c29.397,0,53.333-23.936,53.333-53.333V64
			C490.667,34.603,466.731,10.667,437.333,10.667z"/>
	</g>
</g>
<g>
	<g>
		<path d="M445.995,57.749c-3.456-4.779-10.112-5.845-14.891-2.389l-165.76,119.701c-12.139,8.768-27.861,8.768-40,0L59.584,55.36
			c-4.8-3.456-11.456-2.389-14.891,2.389c-3.456,4.779-2.389,11.456,2.389,14.891l165.76,119.701
			c9.707,7.019,21.099,10.539,32.491,10.539s22.784-3.499,32.512-10.539L443.605,72.64
			C448.363,69.205,449.451,62.528,445.995,57.749z"/>
	</g>
</g>
<g>
	<g>
		<path d="M167.531,184.469c-4.16-4.16-10.923-4.16-15.083,0L45.781,291.136c-4.16,4.16-4.16,10.923,0,15.083
			c2.091,2.069,4.821,3.115,7.552,3.115s5.461-1.045,7.531-3.115l106.667-106.667C171.691,195.392,171.691,188.629,167.531,184.469z
			"/>
	</g>
</g>
<g>
	<g>
		<path d="M444.864,291.136L338.197,184.469c-4.16-4.16-10.923-4.16-15.083,0c-4.16,4.16-4.16,10.923,0,15.083l106.667,106.667
			c2.091,2.069,4.821,3.115,7.552,3.115c2.731,0,5.461-1.045,7.531-3.115C449.024,302.059,449.024,295.296,444.864,291.136z"/>
	</g>
</g>
<g>
	<g>
		<path d="M245.333,245.333C180.629,245.333,128,297.963,128,362.667S180.629,480,245.333,480s117.333-52.629,117.333-117.333
			S310.037,245.333,245.333,245.333z M245.333,458.667c-52.928,0-96-43.072-96-96c0-52.928,43.072-96,96-96s96,43.072,96,96
			C341.333,415.595,298.261,458.667,245.333,458.667z"/>
	</g>
</g>
<g>
	<g>
		<path d="M296.341,409.323l-42.667-53.333c-4.053-5.056-12.608-5.056-16.661,0l-42.667,53.333
			c-3.669,4.608-2.923,11.307,1.664,14.997c4.629,3.691,11.328,2.944,14.997-1.664l34.325-42.923l34.325,42.923
			c2.112,2.645,5.205,4.011,8.341,4.011c2.347,0,4.693-0.768,6.677-2.347C299.264,420.629,300.011,413.931,296.341,409.323z"/>
	</g>
</g>
<g>
	<g>
		<path d="M245.333,288c-5.888,0-10.667,4.779-10.667,10.667V352c0,5.888,4.779,10.667,10.667,10.667S256,357.888,256,352v-53.333
			C256,292.779,251.221,288,245.333,288z"/>
	</g>
</g>
<g>
	<g>
		<path d="M249.28,352.747l-53.333-21.333c-5.419-2.197-11.691,0.469-13.867,5.952c-2.176,5.461,0.491,11.669,5.952,13.867
			l53.333,21.333c1.301,0.533,2.645,0.768,3.968,0.768c4.224,0,8.235-2.539,9.899-6.72
			C257.408,361.152,254.741,354.944,249.28,352.747z"/>
	</g>
</g>
<g>
	<g>
		<path d="M308.587,337.387c-2.197-5.483-8.427-8.149-13.867-5.952l-53.333,21.333c-5.483,2.197-8.149,8.405-5.952,13.867
			c1.664,4.16,5.675,6.699,9.899,6.699c1.323,0,2.667-0.235,3.968-0.747l53.333-21.333
			C308.117,349.056,310.784,342.848,308.587,337.387z"/>
	</g>
</g>
<g>
</g>
<g>
</g>
<g>
</g>
<g>
</g>
<g>
</g>
<g>
</g>
<g>
</g>
<g>
</g>
<g>
</g>
<g>
</g>
<g>
</g>
<g>
</g>
<g>
</g>
<g>
</g>
<g>
</g>
</svg>
