<svg id="Capa_1" enable-background="new 0 0 512 512" height="512" viewBox="0 0 512 512" width="512" xmlns="http://www.w3.org/2000/svg"><g><path d="m502 362.816h-13.282v-273.983c0-19.761-16.077-35.838-35.838-35.838h-393.76c-19.761 0-35.838 16.077-35.838 35.838v273.983h-13.282c-5.522 0-10 4.477-10 10v25.407c0 33.515 27.267 60.781 60.781 60.781h390.438c33.515 0 60.781-27.266 60.781-60.781v-25.407c0-5.523-4.478-10-10-10zm-458.718-273.983c0-8.733 7.104-15.838 15.838-15.838h393.76c8.733 0 15.838 7.105 15.838 15.838v273.983h-100.122c-5.522 0-10 4.477-10 10v18.094h-205.192v-18.094c0-5.523-4.478-10-10-10h-100.122zm448.718 309.391c0 22.487-18.294 40.781-40.781 40.781h-390.438c-22.487-.001-40.781-18.295-40.781-40.781v-15.407h113.404v18.094c0 5.523 4.478 10 10 10h225.191c5.522 0 10-4.477 10-10v-18.094h113.405z"/><path d="m414.979 292.362v-160.086c0-5.523-4.478-10-10-10h-297.958c-5.522 0-10 4.477-10 10v160.085c0 5.523 4.478 10 10 10h297.957c5.523.001 10.001-4.476 10.001-9.999zm-20-10h-277.958v-140.086h277.957v140.086z"/><path d="m161.679 256.062c.726.125 1.207.208 8.742.208 3.655 0 8.973-.02 16.78-.063 5.523-.031 9.975-4.533 9.944-10.056-.032-5.522-4.502-9.953-10.056-9.944-4.677.026-9.606.046-13.717.053v-57.884c0-5.523-4.478-10-10-10s-10 4.477-10 10v67.831c.001 4.868 3.508 9.03 8.307 9.855z"/><path d="m218.91 256.264c5.522 0 10-4.477 10-10v-67.889c0-5.523-4.478-10-10-10s-10 4.477-10 10v67.889c0 5.523 4.478 10 10 10z"/><path d="m320.283 256.264h28.344c5.522 0 10-4.477 10-10s-4.478-10-10-10h-18.344v-13.635h16.254c5.522 0 10-4.477 10-10s-4.478-10-10-10h-16.254v-13.634h18.344c5.522 0 10-4.477 10-10s-4.478-10-10-10h-28.344c-5.522 0-10 4.477-10 10v67.269c0 5.523 4.478 10 10 10z"/><path d="m259.249 248.591c1.633 4.598 5.993 7.672 10.866 7.672h.078c4.905-.033 9.262-3.175 10.863-7.886l22.166-66.725c1.741-5.242-1.097-10.902-6.338-12.643-5.235-1.739-10.9 1.096-12.643 6.337l-14.303 43.055-15.031-43.306c-1.811-5.216-7.506-7.979-12.727-6.168-5.218 1.811-7.979 7.509-6.168 12.727z"/></g></svg>