<svg id="Capa_1" enable-background="new 0 0 512 512" height="512" viewBox="0 0 512 512" width="512" xmlns="http://www.w3.org/2000/svg"><g><path d="m200.467 173.523c-62.292 0-112.971 50.724-112.971 113.072s50.679 113.072 112.971 113.072 112.971-50.724 112.971-113.072-50.679-113.072-112.971-113.072zm0 206.144c-51.265 0-92.971-41.752-92.971-93.072s41.706-93.072 92.971-93.072 92.971 41.752 92.971 93.072-41.707 93.072-92.971 93.072z"/><path d="m251.595 270.935-55.38-34.778c-5.692-3.574-12.882-3.775-18.763-.523-5.887 3.254-9.543 9.455-9.543 16.182v69.558c0 6.728 3.656 12.928 9.543 16.182 2.785 1.54 5.862 2.306 8.937 2.306 3.418 0 6.83-.947 9.826-2.829l55.38-34.779c5.42-3.403 8.655-9.257 8.655-15.659s-3.235-12.256-8.655-15.66zm-63.686 47.696v-64.074l51.014 32.037z"/><path d="m481.357 34.574h-339.648c-16.896 0-30.643 13.755-30.643 30.664v61.294h-80.423c-16.897-.001-30.643 13.755-30.643 30.663v258.155c0 16.908 13.746 30.663 30.643 30.663h11.877l4.954 23.478c.699 3.318 3.033 6.055 6.198 7.271 1.161.446 2.377.665 3.585.665 2.086 0 4.151-.652 5.888-1.916l40.511-29.498h266.636c16.896 0 30.643-13.755 30.643-30.663v-61.294h7.411l40.511 29.498c1.736 1.264 3.802 1.916 5.888 1.916 1.208 0 2.424-.219 3.585-.665 3.165-1.216 5.499-3.953 6.198-7.271l4.954-23.478h11.877c16.896 0 30.643-13.755 30.643-30.663v-258.156c-.002-16.908-13.748-30.663-30.645-30.663zm-100.423 380.776c0 5.879-4.774 10.663-10.643 10.663h-269.891c-2.115 0-4.176.671-5.887 1.916l-30.659 22.324-3.44-16.305c-.976-4.625-5.057-7.936-9.784-7.936h-19.987c-5.868 0-10.643-4.784-10.643-10.663v-258.154c0-5.88 4.774-10.664 10.643-10.664h339.648c5.868 0 10.643 4.784 10.643 10.664zm111.066-91.958c0 5.88-4.774 10.663-10.643 10.663h-19.987c-4.728 0-8.809 3.31-9.784 7.936l-3.44 16.305-30.659-22.324c-1.711-1.245-3.771-1.916-5.887-1.916h-10.666v-176.86c0-16.908-13.746-30.664-30.643-30.664h-239.225v-61.295c0-5.88 4.774-10.664 10.643-10.664h339.648c5.868 0 10.643 4.784 10.643 10.664z"/></g></svg>