<?xml version="1.0" encoding="iso-8859-1"?>
<!-- Generator: Adobe Illustrator 19.0.0, SVG Export Plug-In . SVG Version: 6.00 Build 0)  -->
<svg version="1.1" id="Capa_1" xmlns="http://www.w3.org/2000/svg" xmlns:xlink="http://www.w3.org/1999/xlink" x="0px" y="0px"
	 viewBox="0 0 490.667 490.667" style="enable-background:new 0 0 490.667 490.667;" xml:space="preserve">
<g>
	<g>
		<path d="M309.333,426.667h-128c-5.888,0-10.667,4.779-10.667,10.667c0,5.888,4.779,10.667,10.667,10.667h128
			c5.888,0,10.667-4.779,10.667-10.667C320,431.445,315.221,426.667,309.333,426.667z"/>
	</g>
</g>
<g>
	<g>
		<path d="M309.333,384h-128c-5.888,0-10.667,4.779-10.667,10.667c0,5.888,4.779,10.667,10.667,10.667h128
			c5.888,0,10.667-4.779,10.667-10.667C320,388.779,315.221,384,309.333,384z"/>
	</g>
</g>
<g>
	<g>
		<path d="M309.333,341.333h-128c-5.888,0-10.667,4.779-10.667,10.667s4.779,10.667,10.667,10.667h128
			c5.888,0,10.667-4.779,10.667-10.667S315.221,341.333,309.333,341.333z"/>
	</g>
</g>
<g>
	<g>
		<path d="M309.333,298.667h-128c-5.888,0-10.667,4.779-10.667,10.667S175.445,320,181.333,320h128
			c5.888,0,10.667-4.779,10.667-10.667S315.221,298.667,309.333,298.667z"/>
	</g>
</g>
<g>
	<g>
		<path d="M437.333,42.667h-384C23.936,42.667,0,66.603,0,96v234.667C0,360.064,23.936,384,53.333,384h85.333
			c5.888,0,10.667-4.779,10.667-10.667c0-5.888-4.779-10.667-10.667-10.667H53.333c-17.643,0-32-14.357-32-32V96
			c0-17.643,14.357-32,32-32h384c17.643,0,32,14.357,32,32v234.667c0,17.643-14.357,32-32,32H352
			c-5.888,0-10.667,4.779-10.667,10.667c0,5.888,4.779,10.667,10.667,10.667h85.333c29.397,0,53.333-23.936,53.333-53.333V96
			C490.667,66.603,466.731,42.667,437.333,42.667z"/>
	</g>
</g>
<g>
	<g>
		<path d="M445.995,89.749c-3.456-4.779-10.112-5.867-14.891-2.389l-165.76,119.701c-12.139,8.768-27.861,8.768-40,0L59.584,87.36
			c-4.8-3.477-11.456-2.411-14.891,2.389c-3.456,4.779-2.389,11.456,2.389,14.891l165.76,119.701
			c9.707,7.019,21.099,10.539,32.491,10.539s22.784-3.499,32.512-10.539l165.76-119.701
			C448.363,101.205,449.451,94.528,445.995,89.749z"/>
	</g>
</g>
<g>
	<g>
		<path d="M167.531,216.469c-4.16-4.16-10.923-4.16-15.083,0L45.781,323.136c-4.16,4.16-4.16,10.923,0,15.083
			c2.091,2.069,4.821,3.115,7.552,3.115s5.461-1.045,7.531-3.115l106.667-106.667C171.691,227.392,171.691,220.629,167.531,216.469z
			"/>
	</g>
</g>
<g>
	<g>
		<path d="M444.864,323.136L338.197,216.469c-4.16-4.16-10.923-4.16-15.083,0c-4.16,4.16-4.16,10.923,0,15.083l106.667,106.667
			c2.091,2.069,4.821,3.115,7.552,3.115c2.731,0,5.461-1.045,7.531-3.115C449.024,334.059,449.024,327.296,444.864,323.136z"/>
	</g>
</g>
<g>
</g>
<g>
</g>
<g>
</g>
<g>
</g>
<g>
</g>
<g>
</g>
<g>
</g>
<g>
</g>
<g>
</g>
<g>
</g>
<g>
</g>
<g>
</g>
<g>
</g>
<g>
</g>
<g>
</g>
</svg>
