<svg id="Capa_1" enable-background="new 0 0 512 512" height="512" viewBox="0 0 512 512" width="512" xmlns="http://www.w3.org/2000/svg"><g><path d="m247.188 68.749h-191.381c-5.523 0-10 4.477-10 10v127.979c0 5.523 4.477 10 10 10h191.381c5.523 0 10-4.477 10-10v-127.979c0-5.523-4.477-10-10-10zm-10 127.979h-18.251v-51.648c0-5.523-4.477-10-10-10s-10 4.477-10 10v51.648h-18.293v-18.456c0-5.523-4.477-10-10-10s-10 4.477-10 10v18.456h-18.293v-76.431c0-5.523-4.477-10-10-10s-10 4.477-10 10v76.431h-18.293v-28.364c0-5.523-4.477-10-10-10s-10 4.477-10 10v28.364h-18.251v-107.979h171.381z"/><path d="m151.498 240.587c-57.105 0-103.563 46.264-103.563 103.13s46.458 103.129 103.563 103.129c57.104 0 103.563-46.264 103.563-103.129 0-56.866-46.458-103.13-103.563-103.13zm0 186.26c-46.077 0-83.563-37.292-83.563-83.129s37.486-83.13 83.563-83.13 83.563 37.292 83.563 83.13-37.486 83.129-83.563 83.129z"/><path d="m151.498 305.263c-21.277 0-38.587 17.25-38.587 38.455 0 21.204 17.31 38.454 38.587 38.454s38.586-17.25 38.586-38.454c0-21.205-17.309-38.455-38.586-38.455zm0 56.908c-10.249 0-18.587-8.278-18.587-18.454s8.338-18.455 18.587-18.455 18.586 8.279 18.586 18.455-8.337 18.454-18.586 18.454z"/><path d="m477.819 153.642c-.512 0-1.023.012-1.534.035v-1.142c0-5.523-4.478-10-10-10h-15.733c-17.905 0-32.472 14.567-32.472 32.472v73.976c0 11.564-7.504 21.412-17.907 24.949v-78.138c0-19.05-15.514-34.548-34.583-34.548h-9.992c-8.042 0-14.584-6.526-14.584-14.548v-14.467h28.205c5.522 0 10-4.477 10-10v-10.8c.511.023 1.023.035 1.535.035 18.848 0 34.181-15.318 34.181-34.146s-15.333-34.146-34.181-34.146c-.512 0-1.024.012-1.535.035v-1.142c0-5.523-4.478-10-10-10h-15.733c-17.905 0-32.472 14.567-32.472 32.472v82.159c0 19.05 15.515 34.548 34.584 34.548h9.992c8.041 0 14.583 6.526 14.583 14.548v239.218c0 18.656-15.206 33.834-33.897 33.834h-45.026c1.13-3.161 1.746-6.565 1.746-10.109v-405.474c0-16.603-13.507-30.109-30.109-30.109h-242.778c-16.602 0-30.109 13.507-30.109 30.109v405.474c0 16.603 13.507 30.109 30.109 30.109h316.166c29.719 0 53.897-24.15 53.897-53.834v-140.46c21.543-3.997 37.907-22.909 37.907-45.569v-6.285h28.205c5.522 0 10-4.477 10-10v-10.8c.511.023 1.022.035 1.534.035 18.848 0 34.181-15.317 34.181-34.146s-15.332-34.145-34.18-34.145zm-97.065-90.468c7.819 0 14.181 6.346 14.181 14.146s-6.361 14.146-14.181 14.146c-.518 0-1.029-.027-1.535-.08v-28.132c.506-.053 1.017-.08 1.535-.08zm-39.74 1.365c0-6.877 5.595-12.472 12.472-12.472h5.733v60.164h-18.205zm-310.905 404.307c-5.574 0-10.109-4.535-10.109-10.109v-405.474c0-5.574 4.535-10.109 10.109-10.109h242.777c5.574 0 10.109 4.535 10.109 10.109v405.474c0 5.574-4.535 10.109-10.109 10.109zm426.176-246.148h-18.205v-47.691c0-6.877 5.595-12.472 12.472-12.472h5.733zm21.534-20.765c-.518 0-1.029-.027-1.534-.08v-28.131c.505-.053 1.017-.08 1.534-.08 7.819 0 14.181 6.346 14.181 14.146s-6.361 14.145-14.181 14.145z"/></g></svg>