<svg id="Capa_1" enable-background="new 0 0 512 512" height="512" viewBox="0 0 512 512" width="512" xmlns="http://www.w3.org/2000/svg"><g><path d="m474.26 28.31h-436.52c-20.81 0-37.74 16.93-37.74 37.74v328.604c0 20.81 16.93 37.74 37.74 37.74h158.894l-12.977 31.297h-115.008c-5.523 0-10 4.477-10 10s4.477 10 10 10h374.702c5.523 0 10-4.477 10-10s-4.477-10-10-10h-115.008l-12.977-31.297h158.894c20.81 0 37.74-16.93 37.74-37.74v-328.604c0-20.81-16.93-37.74-37.74-37.74zm-167.568 435.38h-101.384l12.977-31.297h75.43zm185.308-69.037c0 9.782-7.958 17.74-17.74 17.74h-436.52c-9.782 0-17.74-7.958-17.74-17.74v-328.603c0-9.782 7.958-17.74 17.74-17.74h436.52c9.782 0 17.74 7.958 17.74 17.74z"/><path d="m458 72.31h-404c-5.523 0-10 4.477-10 10v296.084c0 5.523 4.477 10 10 10h404c5.523 0 10-4.477 10-10v-296.084c0-5.523-4.477-10-10-10zm-10 296.084h-384v-276.084h384z"/><path d="m124.096 327.969h263.809c5.523 0 10-4.477 10-10v-175.235c0-5.523-4.477-10-10-10h-263.809c-5.523 0-10 4.477-10 10v175.234c0 5.524 4.477 10.001 10 10.001zm10-175.235h243.809v155.234h-243.809z"/><path d="m327.25 257.498-31.711-30.594 28.955-26.615c4.066-3.737 4.333-10.063.595-14.129-3.737-4.067-10.063-4.333-14.129-.595l-22.333 20.528v-14.082c0-5.523-4.477-10-10-10s-10 4.477-10 10v72.686c0 5.523 4.477 10 10 10s10-4.477 10-10v-16.668l24.736 23.865c1.941 1.872 4.443 2.803 6.942 2.803 2.619 0 5.235-1.023 7.198-3.057 3.835-3.977 3.722-10.308-.253-14.142z"/><path d="m250.567 236.136h-1.035c.12-20.766.181-42.916-.076-46.004-.584-7.01-4.804-12.73-10.751-14.572-5.905-1.829-12.177.451-16.777 6.096-4.949 6.071-27.759 47.191-34.632 59.65-1.709 3.098-1.654 6.868.145 9.915 1.799 3.046 5.073 4.916 8.611 4.916h33.345c-.041 5.499-.083 10.771-.124 15.536-.048 5.522 4.391 10.038 9.914 10.085h.088c5.482 0 9.95-4.421 9.998-9.914.025-2.947.073-8.639.126-15.708h1.168c5.523 0 10-4.477 10-10s-4.477-10-10-10zm-21.039 0h-16.482c6.105-10.917 12.053-21.384 16.593-29.165-.005 8.038-.049 18.409-.111 29.165z"/></g></svg>