<?xml version="1.0" encoding="iso-8859-1"?>
<!-- Generator: Adobe Illustrator 19.0.0, SVG Export Plug-In . SVG Version: 6.00 Build 0)  -->
<svg version="1.1" id="Capa_1" xmlns="http://www.w3.org/2000/svg" xmlns:xlink="http://www.w3.org/1999/xlink" x="0px" y="0px"
	 viewBox="0 0 490.667 490.667" style="enable-background:new 0 0 490.667 490.667;" xml:space="preserve">
<g>
	<g>
		<path d="M356.075,326.251c-0.96-2.795-3.029-5.077-5.739-6.293c-2.731-1.216-5.803-1.237-8.533-0.085
			c-4.928,2.091-10.752,0.299-13.312-4.139c-2.624-4.565-1.323-10.283,3.093-13.611c2.389-1.792,3.904-4.48,4.203-7.445
			c0.299-2.944-0.64-5.909-2.603-8.128c-17.408-19.776-39.829-32.875-64.832-37.845c-2.944-0.64-6.016,0.085-8.427,1.877
			c-2.432,1.771-3.968,4.501-4.288,7.488c-0.555,5.525-4.992,9.664-10.283,9.664s-9.728-4.16-10.283-9.664
			c-0.32-2.987-1.877-5.717-4.288-7.488c-2.432-1.792-5.547-2.517-8.427-1.877c-25.003,4.949-47.424,18.048-64.832,37.845
			c-1.963,2.24-2.901,5.184-2.603,8.128c0.299,2.965,1.835,5.675,4.203,7.445c4.437,3.328,5.739,9.045,3.093,13.611
			c-2.581,4.416-8.405,6.208-13.312,4.139c-2.752-1.173-5.845-1.152-8.533,0.085c-2.709,1.195-4.779,3.477-5.739,6.293
			c-4.459,13.141-6.635,25.387-6.635,37.461c0,12.075,2.176,24.32,6.635,37.461c0.96,2.795,3.029,5.077,5.739,6.293
			c2.688,1.216,5.781,1.237,8.533,0.085c4.971-2.069,10.752-0.277,13.312,4.139c2.624,4.565,1.323,10.283-3.093,13.611
			c-2.389,1.792-3.904,4.48-4.203,7.445c-0.299,2.944,0.64,5.909,2.603,8.128c17.408,19.797,39.808,32.896,64.811,37.867
			c2.88,0.597,5.995-0.107,8.427-1.877s3.968-4.501,4.288-7.488c0.555-5.525,4.992-9.664,10.283-9.664
			c5.291,0,9.728,4.16,10.283,9.664c0.32,2.987,1.877,5.717,4.288,7.488c1.856,1.365,4.075,2.091,6.336,2.091
			c0.704,0,1.387-0.064,2.112-0.235c25.003-4.949,47.424-18.048,64.832-37.845c1.963-2.24,2.901-5.184,2.603-8.128
			c-0.299-2.965-1.835-5.675-4.203-7.445c-4.437-3.328-5.739-9.045-3.093-13.611c2.56-4.437,8.341-6.251,13.312-4.139
			c2.731,1.152,5.824,1.131,8.533-0.085c2.709-1.195,4.779-3.477,5.739-6.293c4.459-13.141,6.635-25.408,6.635-37.461
			S360.533,339.392,356.075,326.251z M338.496,385.387c-12.011-0.939-22.635,5.504-28.501,15.68
			c-5.931,10.261-5.355,22.741,0.661,32.469c-10.816,10.24-23.488,17.685-37.291,21.952c-5.333-10.261-15.936-17.109-28.032-17.109
			s-22.699,6.848-28.032,17.088c-13.824-4.245-26.475-11.712-37.291-21.952c6.016-9.707,6.592-22.187,0.661-32.469
			c-5.867-10.176-16.875-16.597-28.501-15.68c-1.92-7.531-2.837-14.677-2.837-21.653c0-6.976,0.917-14.123,2.837-21.632
			c11.605,0.619,22.635-5.504,28.501-15.68c5.931-10.261,5.355-22.741-0.661-32.469c10.816-10.24,23.488-17.685,37.291-21.952
			c5.333,10.261,15.936,17.109,28.032,17.109s22.699-6.848,28.032-17.109c13.824,4.245,26.475,11.712,37.291,21.952
			c-6.016,9.707-6.592,22.187-0.661,32.469c5.845,10.155,16.491,16.32,28.501,15.68c1.92,7.531,2.837,14.677,2.837,21.653
			C341.333,370.709,340.395,377.856,338.496,385.387z"/>
	</g>
</g>
<g>
	<g>
		<path d="M245.333,310.379c-29.397,0-53.333,23.936-53.333,53.333s23.936,53.333,53.333,53.333s53.333-23.936,53.333-53.333
			S274.731,310.379,245.333,310.379z M245.333,395.712c-17.643,0-32-14.357-32-32c0-17.643,14.357-32,32-32s32,14.357,32,32
			C277.333,381.355,262.976,395.712,245.333,395.712z"/>
	</g>
</g>
<g>
	<g>
		<path d="M437.333,11.712h-384C23.936,11.712,0,35.648,0,65.045v234.667c0,29.397,23.936,53.333,53.333,53.333H96
			c5.888,0,10.667-4.779,10.667-10.667S101.888,331.712,96,331.712H53.333c-17.643,0-32-14.357-32-32V65.045
			c0-17.643,14.357-32,32-32h384c17.643,0,32,14.357,32,32v234.667c0,17.643-14.357,32-32,32h-42.667
			c-5.888,0-10.667,4.779-10.667,10.667s4.779,10.667,10.667,10.667h42.667c29.397,0,53.333-23.915,53.333-53.333V65.045
			C490.667,35.648,466.731,11.712,437.333,11.712z"/>
	</g>
</g>
<g>
	<g>
		<path d="M445.995,58.795c-3.456-4.779-10.112-5.867-14.891-2.389l-165.76,119.701c-12.139,8.768-27.861,8.768-40,0L59.584,56.405
			c-4.8-3.477-11.456-2.389-14.891,2.389c-3.456,4.779-2.389,11.456,2.389,14.912l165.76,119.701
			c9.707,7.019,21.099,10.539,32.491,10.539s22.784-3.52,32.512-10.56l165.76-119.701C448.363,70.251,449.451,63.573,445.995,58.795
			z"/>
	</g>
</g>
<g>
	<g>
		<path d="M167.552,185.515c-4.181-4.181-10.923-4.181-15.104,0L45.781,292.181c-4.16,4.16-4.16,10.923,0,15.083
			c2.091,2.069,4.821,3.115,7.552,3.115s5.461-1.045,7.552-3.115l106.667-106.667C171.712,196.437,171.733,189.696,167.552,185.515z
			"/>
	</g>
</g>
<g>
	<g>
		<path d="M444.864,292.181L338.197,185.515c-4.16-4.16-10.923-4.16-15.083,0c-4.16,4.16-4.16,10.923,0,15.083l106.667,106.667
			c2.091,2.069,4.821,3.115,7.552,3.115c2.731,0,5.461-1.045,7.531-3.115C449.024,303.104,449.024,296.341,444.864,292.181z"/>
	</g>
</g>
<g>
</g>
<g>
</g>
<g>
</g>
<g>
</g>
<g>
</g>
<g>
</g>
<g>
</g>
<g>
</g>
<g>
</g>
<g>
</g>
<g>
</g>
<g>
</g>
<g>
</g>
<g>
</g>
<g>
</g>
</svg>
