<svg id="Capa_1" enable-background="new 0 0 512 512" height="512" viewBox="0 0 512 512" width="512" xmlns="http://www.w3.org/2000/svg"><g><path d="m256 319.806c61.138 0 110.878-49.74 110.878-110.878s-49.74-110.878-110.878-110.878-110.878 49.74-110.878 110.878 49.74 110.878 110.878 110.878zm0-201.756c50.11 0 90.878 40.768 90.878 90.877 0 50.11-40.768 90.878-90.878 90.878s-90.878-40.768-90.878-90.878c0-50.109 40.768-90.877 90.878-90.877z"/><path d="m233.347 258.987c2.761 1.527 5.813 2.286 8.86 2.286 3.384 0 6.763-.937 9.731-2.799l54.254-34.039c5.371-3.37 8.578-9.167 8.578-15.508s-3.207-12.138-8.578-15.508l-54.254-34.039c-5.641-3.539-12.766-3.736-18.592-.511-5.827 3.223-9.446 9.361-9.446 16.02v68.077c0 6.659 3.62 12.798 9.447 16.021zm10.553-81.039 49.378 30.98-49.378 30.98z"/><path d="m319.319 339.762h-126.638c-5.523 0-10 4.477-10 10s4.477 10 10 10h126.639c5.523 0 10-4.477 10-10s-4.478-10-10.001-10z"/><path d="m502 362.816h-13.282v-273.983c0-19.761-16.077-35.838-35.838-35.838h-393.76c-19.761 0-35.838 16.077-35.838 35.838v273.983h-13.282c-5.523 0-10 4.477-10 10v25.407c0 33.515 27.267 60.781 60.781 60.781h390.438c33.515 0 60.781-27.266 60.781-60.781v-25.407c0-5.523-4.477-10-10-10zm-458.718-273.983c0-8.733 7.105-15.838 15.838-15.838h393.76c8.733 0 15.838 7.105 15.838 15.838v273.983h-100.122c-5.523 0-10 4.477-10 10v18.094h-205.192v-18.094c0-5.523-4.477-10-10-10h-100.122zm448.718 309.391c0 22.487-18.294 40.781-40.781 40.781h-390.438c-22.487-.001-40.781-18.295-40.781-40.781v-15.407h113.404v18.094c0 5.523 4.477 10 10 10h225.191c5.523 0 10-4.477 10-10v-18.094h113.405z"/></g></svg>