<?xml version="1.0" encoding="iso-8859-1"?>
<!-- Generator: Adobe Illustrator 19.0.0, SVG Export Plug-In . SVG Version: 6.00 Build 0)  -->
<svg version="1.1" id="Capa_1" xmlns="http://www.w3.org/2000/svg" xmlns:xlink="http://www.w3.org/1999/xlink" x="0px" y="0px"
	 viewBox="0 0 490.667 490.667" style="enable-background:new 0 0 490.667 490.667;" xml:space="preserve">
<g>
	<g>
		<path d="M437.333,117.331H288c-5.888,0-10.667,4.779-10.667,10.667s4.779,10.667,10.667,10.667h149.333c17.643,0,32,14.357,32,32
			v234.667c0,17.643-14.357,32-32,32h-384c-17.643,0-32-14.357-32-32V170.664c0-17.643,14.357-32,32-32h149.333
			c5.888,0,10.667-4.779,10.667-10.667s-4.779-10.667-10.667-10.667H53.333C23.936,117.331,0,141.267,0,170.664v234.667
			c0,29.397,23.936,53.333,53.333,53.333h384c29.397,0,53.333-23.936,53.333-53.333V170.664
			C490.667,141.267,466.731,117.331,437.333,117.331z"/>
	</g>
</g>
<g>
	<g>
		<path d="M445.995,164.414c-3.456-4.779-10.112-5.845-14.891-2.389l-165.76,119.701c-12.139,8.768-27.861,8.768-40,0
			L59.584,162.024c-4.8-3.456-11.456-2.389-14.891,2.389c-3.456,4.779-2.389,11.456,2.389,14.891l165.76,119.701
			c9.707,7.019,21.099,10.539,32.491,10.539s22.784-3.499,32.512-10.539l165.76-119.701
			C448.363,175.87,449.451,169.192,445.995,164.414z"/>
	</g>
</g>
<g>
	<g>
		<path d="M167.531,291.134c-4.16-4.16-10.923-4.16-15.083,0L45.781,397.8c-4.16,4.16-4.16,10.923,0,15.083
			c2.091,2.069,4.821,3.115,7.552,3.115s5.461-1.045,7.531-3.115l106.667-106.667C171.691,302.056,171.691,295.294,167.531,291.134z
			"/>
	</g>
</g>
<g>
	<g>
		<path d="M444.864,397.8L338.197,291.134c-4.16-4.16-10.923-4.16-15.083,0c-4.16,4.16-4.16,10.923,0,15.083l106.667,106.667
			c2.091,2.069,4.821,3.115,7.552,3.115c2.731,0,5.461-1.045,7.531-3.115C449.024,408.723,449.024,401.96,444.864,397.8z"/>
	</g>
</g>
<g>
	<g>
		<path d="M295.552,77.779l-42.667-42.667c-3.051-3.029-7.616-3.947-11.627-2.304c-3.989,1.643-6.592,5.547-6.592,9.856v170.667
			c0,5.888,4.779,10.667,10.667,10.667S256,219.219,256,213.331V68.414l24.469,24.448c4.16,4.16,10.923,4.16,15.083,0
			C299.712,88.702,299.712,81.939,295.552,77.779z"/>
	</g>
</g>
<g>
	<g>
		<path d="M252.864,35.134c-4.16-4.16-10.923-4.16-15.083,0L195.115,77.8c-4.16,4.16-4.16,10.923,0,15.083
			c2.091,2.069,4.821,3.115,7.552,3.115c2.731,0,5.461-1.045,7.531-3.115l42.667-42.667
			C257.024,46.056,257.024,39.294,252.864,35.134z"/>
	</g>
</g>
<g>
</g>
<g>
</g>
<g>
</g>
<g>
</g>
<g>
</g>
<g>
</g>
<g>
</g>
<g>
</g>
<g>
</g>
<g>
</g>
<g>
</g>
<g>
</g>
<g>
</g>
<g>
</g>
<g>
</g>
</svg>
