<svg id="Capa_1" enable-background="new 0 0 512 512" height="512" viewBox="0 0 512 512" width="512" xmlns="http://www.w3.org/2000/svg"><g><path d="m243.929 348.046c5.522 0 10-4.477 10-10v-38.453c0-5.523-4.478-10-10-10s-10 4.477-10 10v38.453c0 5.523 4.478 10 10 10z"/><path d="m359.196 255.03c-17.12 0-31.049 13.928-31.049 31.048v168.817c0 20.46-16.647 37.105-37.109 37.105-18.837 0-34.441-14.107-36.8-32.311h12.802c5.522 0 10-4.477 10-10v-23.628c12.971-1.39 23.17-12.026 23.75-25.353l7.607-174.802c34.622-21.591 57.708-60.02 57.708-103.739 0-67.363-54.808-122.167-122.176-122.167-67.367 0-122.175 54.804-122.175 122.168 0 43.719 23.086 82.148 57.707 103.739l7.608 174.802c.58 13.327 10.779 23.963 23.75 25.353v23.628c0 5.523 4.478 10 10 10h13.309c2.443 29.253 27.034 52.311 56.91 52.311 31.489 0 57.108-25.617 57.108-57.105v-168.818c0-6.092 4.956-11.048 11.049-11.048s11.05 4.956 11.05 11.048v130.782c0 5.523 4.478 10 10 10s10-4.477 10-10v-130.782c.001-17.12-13.928-31.048-31.049-31.048zm-217.442-132.862c0-56.335 45.835-102.168 102.175-102.168s102.176 45.833 102.176 102.168-45.836 102.167-102.176 102.167-102.175-45.832-102.175-102.167zm65.296 277.671-7.125-163.698c13.659 5.291 28.499 8.194 44.004 8.194s30.345-2.903 44.004-8.194l-7.124 163.699c-.156 3.575-3.082 6.376-6.661 6.376h-60.437c-3.579 0-6.504-2.801-6.661-6.377zm23.77 26.377h26.22v13.474h-26.22z"/></g></svg>