<svg id="Capa_1" enable-background="new 0 0 512 512" height="512" viewBox="0 0 512 512" width="512" xmlns="http://www.w3.org/2000/svg"><g><path d="m286 191.328c-64.732 0-117.395 52.663-117.395 117.395s52.663 117.395 117.395 117.395c64.731 0 117.395-52.663 117.395-117.395s-52.664-117.395-117.395-117.395zm0 214.79c-53.704 0-97.395-43.691-97.395-97.395s43.691-97.395 97.395-97.395c53.703 0 97.395 43.691 97.395 97.395s-43.692 97.395-97.395 97.395z"/><path d="m336.192 293.215-54.254-34.039c-5.643-3.539-12.766-3.734-18.592-.511-5.827 3.223-9.446 9.361-9.446 16.02v68.077c0 6.659 3.619 12.797 9.446 16.02 2.761 1.528 5.813 2.287 8.861 2.287 3.384 0 6.763-.937 9.73-2.799l54.254-34.039c5.371-3.37 8.578-9.167 8.578-15.508s-3.206-12.139-8.577-15.508zm-62.292 46.488v-61.96l49.379 30.98z"/><path d="m478.063 89.558v-36.718c0-5.523-4.478-10-10-10h-50.662c-5.522 0-10 4.477-10 10v19.286l-15.982-24.716c-1.843-2.849-5.004-4.57-8.397-4.57h-254.043c-3.393 0-6.555 1.721-8.397 4.57l-27.046 41.823h-54.56c-21.491 0-38.976 17.485-38.976 38.976v272.731c0 21.492 17.485 38.977 38.977 38.977h153.65c26.517 18.43 58.706 29.242 93.374 29.242 34.667 0 66.857-10.813 93.373-29.242h93.65c21.492 0 38.977-17.485 38.977-38.977v-272.731c-.001-19.784-14.818-36.172-33.938-38.651zm-50.662-26.718h30.662v26.393h-30.662zm-292.98 0h243.158l17.067 26.393h-277.292zm-114.421 107.94h44.447v188.085h-44.447zm122 134.38c0-79.402 64.598-144 144-144s144 64.598 144 144-64.598 144-144 144-144-64.598-144-144zm350 95.781c0 10.464-8.513 18.977-18.977 18.977h-69.971c29.026-29.601 46.948-70.126 46.948-114.758 0-90.43-73.57-164-164-164s-164 73.57-164 164c0 44.633 17.922 85.158 46.947 114.758h-129.97c-10.464 0-18.977-8.513-18.977-18.977v-22.075h54.447c5.523 0 10-4.477 10-10v-208.086c0-5.523-4.477-10-10-10h-54.447v-22.571c0-10.463 8.513-18.976 18.977-18.976h434.047c10.464 0 18.977 8.513 18.977 18.976v272.732z"/></g></svg>