<?xml version="1.0" encoding="iso-8859-1"?>
<!-- Generator: Adobe Illustrator 19.0.0, SVG Export Plug-In . SVG Version: 6.00 Build 0)  -->
<svg version="1.1" id="Capa_1" xmlns="http://www.w3.org/2000/svg" xmlns:xlink="http://www.w3.org/1999/xlink" x="0px" y="0px"
	 viewBox="0 0 490.667 490.667" style="enable-background:new 0 0 490.667 490.667;" xml:space="preserve">
<g>
	<g>
		<path d="M437.333,117.333H288c-5.888,0-10.667,4.779-10.667,10.667s4.779,10.667,10.667,10.667h149.333c17.643,0,32,14.357,32,32
			v234.667c0,17.643-14.357,32-32,32h-384c-17.643,0-32-14.357-32-32V170.667c0-17.643,14.357-32,32-32h149.333
			c5.888,0,10.667-4.779,10.667-10.667s-4.779-10.667-10.667-10.667H53.333C23.936,117.333,0,141.269,0,170.667v234.667
			c0,29.397,23.936,53.333,53.333,53.333h384c29.397,0,53.333-23.936,53.333-53.333V170.667
			C490.667,141.269,466.731,117.333,437.333,117.333z"/>
	</g>
</g>
<g>
	<g>
		<path d="M445.995,164.416c-3.456-4.779-10.112-5.845-14.891-2.389l-165.76,119.701c-12.139,8.768-27.861,8.768-40,0
			L59.584,162.027c-4.8-3.456-11.456-2.389-14.891,2.389c-3.456,4.779-2.389,11.456,2.389,14.891l165.76,119.701
			c9.707,7.019,21.099,10.539,32.491,10.539s22.784-3.499,32.512-10.539l165.76-119.701
			C448.363,175.872,449.451,169.195,445.995,164.416z"/>
	</g>
</g>
<g>
	<g>
		<path d="M167.531,291.136c-4.16-4.16-10.923-4.16-15.083,0L45.781,397.803c-4.16,4.16-4.16,10.923,0,15.083
			c2.091,2.069,4.821,3.115,7.552,3.115s5.461-1.045,7.531-3.115l106.667-106.667C171.691,302.059,171.691,295.296,167.531,291.136z
			"/>
	</g>
</g>
<g>
	<g>
		<path d="M444.864,397.803L338.197,291.136c-4.16-4.16-10.923-4.16-15.083,0c-4.16,4.16-4.16,10.923,0,15.083l106.667,106.667
			c2.091,2.069,4.821,3.115,7.552,3.115c2.731,0,5.461-1.045,7.531-3.115C449.024,408.725,449.024,401.963,444.864,397.803z"/>
	</g>
</g>
<g>
	<g>
		<path d="M295.531,163.136c-4.16-4.16-10.923-4.16-15.083,0L256,187.584V42.667C256,36.779,251.221,32,245.333,32
			s-10.667,4.779-10.667,10.667v170.667c0,4.309,2.603,8.213,6.592,9.856c1.323,0.555,2.709,0.811,4.075,0.811
			c2.773,0,5.504-1.088,7.531-3.115l42.667-42.667C299.691,174.059,299.691,167.296,295.531,163.136z"/>
	</g>
</g>
<g>
	<g>
		<path d="M252.864,205.803l-42.667-42.667c-4.16-4.16-10.923-4.16-15.083,0c-4.16,4.16-4.16,10.923,0,15.083l42.667,42.667
			c2.091,2.069,4.821,3.115,7.552,3.115s5.461-1.045,7.531-3.115C257.024,216.725,257.024,209.963,252.864,205.803z"/>
	</g>
</g>
<g>
</g>
<g>
</g>
<g>
</g>
<g>
</g>
<g>
</g>
<g>
</g>
<g>
</g>
<g>
</g>
<g>
</g>
<g>
</g>
<g>
</g>
<g>
</g>
<g>
</g>
<g>
</g>
<g>
</g>
</svg>
