<svg id="Capa_1" enable-background="new 0 0 512 512" height="512" viewBox="0 0 512 512" width="512" xmlns="http://www.w3.org/2000/svg"><g><path d="m231.881 208.06c-21.461 0-38.921 17.455-38.921 38.909s17.46 38.909 38.921 38.909 38.92-17.455 38.92-38.909c0-21.455-17.459-38.909-38.92-38.909zm0 57.817c-10.433 0-18.921-8.482-18.921-18.909s8.488-18.909 18.921-18.909 18.92 8.482 18.92 18.909-8.488 18.909-18.92 18.909z"/><path d="m231.881 159.877c-48.039 0-87.122 39.069-87.122 87.091s39.083 87.091 87.122 87.091 87.121-39.069 87.121-87.091-39.082-87.091-87.121-87.091zm0 154.183c-37.011 0-67.122-30.097-67.122-67.091s30.111-67.091 67.122-67.091 67.121 30.097 67.121 67.091-30.11 67.091-67.121 67.091z"/><path d="m183.567 76.506c-1.802-5.221-7.494-7.991-12.716-6.19-75.293 25.989-125.882 96.98-125.882 176.653 0 5.523 4.478 10 10 10s10-4.477 10-10c0-71.146 45.174-134.541 112.408-157.748 5.221-1.802 7.992-7.494 6.19-12.715z"/><path d="m457.067 302.48c4.444-18.081 6.694-36.722 6.694-55.512 0-61.915-24.12-120.124-67.917-163.904-43.797-43.779-102.026-67.889-163.963-67.889-61.938 0-120.167 24.11-163.963 67.889-43.798 43.781-67.918 101.99-67.918 163.905s24.12 120.124 67.918 163.903c43.796 43.779 102.025 67.889 163.963 67.889 33.64 0 65.977-7.008 96.228-20.84 18.927 23.695 48.062 38.903 80.683 38.903 56.909 0 103.208-46.282 103.208-103.171 0-39.466-22.283-73.828-54.933-91.173zm-225.186 156.281c-116.831 0-211.881-95.01-211.881-211.792 0-116.783 95.05-211.793 211.881-211.793s211.88 95.01 211.88 211.793c0 16.172-1.822 32.216-5.422 47.821-7.873-2.356-16.139-3.795-24.672-4.193 3.404-14.226 5.125-28.847 5.125-43.628 0-5.523-4.478-10-10-10s-10 4.477-10 10c0 15.225-2.041 30.255-6.073 44.763-49.303 7.74-87.135 50.497-87.135 101.921 0 17.036 4.152 33.12 11.498 47.296-26.847 11.825-55.463 17.812-85.201 17.812zm176.911 18.063c-45.881 0-83.208-37.31-83.208-83.171s37.327-83.171 83.208-83.171 83.208 37.31 83.208 83.171-37.327 83.171-83.208 83.171z"/><path d="m457.981 378.304-53.043-33.266c-.001 0-.001 0-.001 0-5.585-3.501-12.636-3.695-18.403-.504-5.766 3.19-9.348 9.265-9.348 15.854v66.531c0 6.589 3.582 12.665 9.349 15.854 2.733 1.512 5.755 2.264 8.772 2.264 3.35 0 6.693-.927 9.631-2.769l53.042-33.265c5.319-3.335 8.494-9.074 8.494-15.351s-3.175-12.014-8.493-15.348zm-60.794 45.218v-59.738l47.627 29.869z"/></g></svg>