<svg id="Capa_1" enable-background="new 0 0 512 512" height="512" viewBox="0 0 512 512" width="512" xmlns="http://www.w3.org/2000/svg"><g><path d="m256 103.574c-60.397 0-109.535 49.137-109.535 109.534s49.138 109.535 109.535 109.535 109.535-49.137 109.535-109.535-49.138-109.534-109.535-109.534zm0 199.069c-49.37 0-89.535-40.165-89.535-89.535 0-49.369 40.165-89.534 89.535-89.534s89.535 40.165 89.535 89.534c0 49.37-40.165 89.535-89.535 89.535z"/><path d="m305.595 197.693-53.532-33.585c-5.607-3.517-12.687-3.712-18.479-.508-5.792 3.203-9.389 9.305-9.389 15.923v67.171c0 6.619 3.598 12.72 9.389 15.923 2.745 1.518 5.778 2.273 8.807 2.273 3.364 0 6.722-.931 9.672-2.782l53.532-33.585c5.339-3.349 8.526-9.112 8.526-15.415s-3.187-12.066-8.526-15.415zm-61.4 45.741v-60.652l48.337 30.326z"/><path d="m340.166 351.933h-168.332c-5.523 0-10 4.477-10 10s4.477 10 10 10h168.332c5.523 0 10-4.477 10-10s-4.477-10-10-10z"/><path d="m356.064 0h-200.128c-27.98 0-50.745 22.764-50.745 50.745v410.511c0 27.98 22.764 50.745 50.745 50.745h200.128c27.98 0 50.745-22.764 50.745-50.745v-410.511c0-27.981-22.765-50.745-50.745-50.745zm-230.873 60.745h51.9l7.047 7.362c1.886 1.971 4.496 3.085 7.224 3.085h129.276c2.728 0 5.337-1.114 7.224-3.085l7.047-7.362h51.9v352.064h-261.618zm30.745-40.745h200.128c13.453 0 24.916 8.687 29.075 20.745h-54.501c-2.728 0-5.337 1.114-7.224 3.085l-7.047 7.362h-120.735l-7.047-7.362c-1.886-1.971-4.496-3.085-7.224-3.085h-54.501c4.16-12.058 15.623-20.745 29.076-20.745zm230.873 441.255c0 16.953-13.792 30.745-30.745 30.745h-200.128c-16.953 0-30.745-13.792-30.745-30.745v-28.447h261.617v28.447z"/><path d="m245.532 472.404h20.937c5.523 0 10-4.477 10-10s-4.477-10-10-10h-20.937c-5.523 0-10 4.477-10 10s4.477 10 10 10z"/></g></svg>