<?xml version="1.0" encoding="iso-8859-1"?>
<!-- Generator: Adobe Illustrator 19.0.0, SVG Export Plug-In . SVG Version: 6.00 Build 0)  -->
<svg version="1.1" id="Capa_1" xmlns="http://www.w3.org/2000/svg" xmlns:xlink="http://www.w3.org/1999/xlink" x="0px" y="0px"
	 viewBox="0 0 512 512" style="enable-background:new 0 0 512 512;" xml:space="preserve">
<g>
	<g>
		<path d="M256,0c-76.459,0-138.667,62.208-138.667,138.667c0,5.888,4.779,10.667,10.667,10.667h256
			c5.888,0,10.667-4.779,10.667-10.667C394.667,62.208,332.459,0,256,0z M139.136,128C144.533,68.288,194.901,21.333,256,21.333
			S367.467,68.288,372.843,128H139.136z"/>
	</g>
</g>
<g>
	<g>
		<path d="M405.333,128H106.667c-17.643,0-32,14.357-32,32s14.357,32,32,32h298.667c17.643,0,32-14.357,32-32
			S422.976,128,405.333,128z M405.333,170.667H106.667C100.8,170.667,96,165.888,96,160s4.8-10.667,10.667-10.667h298.667
			C411.2,149.333,416,154.112,416,160S411.2,170.667,405.333,170.667z"/>
	</g>
</g>
<g>
	<g>
		<path d="M384,170.667H128c-5.888,0-10.667,4.779-10.667,10.667v277.333c0,5.888,4.779,10.667,10.667,10.667h256
			c5.888,0,10.667-4.779,10.667-10.667V181.333C394.667,175.445,389.888,170.667,384,170.667z M373.333,448H138.667V192h234.667V448
			z"/>
	</g>
</g>
<g>
	<g>
		<path d="M170.667,448H128c-5.888,0-10.667,4.779-10.667,10.667v42.667c0,5.888,4.779,10.667,10.667,10.667h42.667
			c5.888,0,10.667-4.779,10.667-10.667v-42.667C181.333,452.779,176.555,448,170.667,448z M160,490.667h-21.333v-21.333H160V490.667
			z"/>
	</g>
</g>
<g>
	<g>
		<path d="M384,448h-42.667c-5.888,0-10.667,4.779-10.667,10.667v42.667c0,5.888,4.779,10.667,10.667,10.667H384
			c5.888,0,10.667-4.779,10.667-10.667v-42.667C394.667,452.779,389.888,448,384,448z M373.333,490.667H352v-21.333h21.333V490.667z
			"/>
	</g>
</g>
<g>
	<g>
		<path d="M298.667,85.333h-85.333c-5.888,0-10.667,4.779-10.667,10.667s4.779,10.667,10.667,10.667h85.333
			c5.888,0,10.667-4.779,10.667-10.667S304.555,85.333,298.667,85.333z"/>
	</g>
</g>
<g>
	<g>
		<path d="M320,256H192c-17.643,0-32,14.357-32,32v64c0,17.643,14.357,32,32,32h128c17.643,0,32-14.357,32-32v-64
			C352,270.357,337.643,256,320,256z M330.667,352c0,5.888-4.8,10.667-10.667,10.667H192c-5.867,0-10.667-4.779-10.667-10.667v-64
			c0-5.888,4.8-10.667,10.667-10.667h128c5.867,0,10.667,4.779,10.667,10.667V352z"/>
	</g>
</g>
<g>
	<g>
		<path d="M339.349,271.147c-3.413-4.8-10.048-5.909-14.891-2.475L256,317.568l-68.459-48.896
			c-4.821-3.435-11.456-2.347-14.891,2.475c-3.413,4.779-2.325,11.456,2.475,14.869l74.667,53.333
			c1.856,1.323,4.032,1.984,6.208,1.984c2.176,0,4.352-0.661,6.208-1.984l74.667-53.333
			C341.653,282.603,342.763,275.947,339.349,271.147z"/>
	</g>
</g>
<g>
</g>
<g>
</g>
<g>
</g>
<g>
</g>
<g>
</g>
<g>
</g>
<g>
</g>
<g>
</g>
<g>
</g>
<g>
</g>
<g>
</g>
<g>
</g>
<g>
</g>
<g>
</g>
<g>
</g>
</svg>
