<svg id="Capa_1" enable-background="new 0 0 512 512" height="512" viewBox="0 0 512 512" width="512" xmlns="http://www.w3.org/2000/svg"><g><path d="m466.381 232.012h-169.776c-5.523 0-10 4.477-10 10v49.858h-29.68v-38.929c30.419-26.448 49.68-65.414 49.68-108.796 0-79.481-64.657-144.145-144.131-144.145-79.475 0-144.132 64.664-144.132 144.146 0 43.381 19.261 82.348 49.68 108.796v215.838c0 23.832 19.387 43.22 43.216 43.22h102.471c23.829 0 43.216-19.388 43.216-43.22v-80.497h29.68v49.857c0 5.523 4.477 10 10 10h169.776c15.041 0 27.277-12.236 27.277-27.277v-161.574c0-15.041-12.236-27.277-27.277-27.277zm-428.039-87.866c0-68.455 55.685-124.146 124.132-124.146s124.131 55.691 124.131 124.146-55.685 124.145-124.131 124.145-124.132-55.691-124.132-124.145zm198.583 324.634c0 12.803-10.415 23.22-23.216 23.22h-102.471c-12.802 0-23.216-10.417-23.216-23.22v-201.248c21.743 13.172 47.228 20.759 74.452 20.759s52.708-7.588 74.451-20.759zm20-100.496v-56.414h29.68v56.414zm216.733 52.58c0 4.013-3.265 7.277-7.277 7.277h-159.776v-176.129h159.776c4.013 0 7.277 3.265 7.277 7.277z"/><path d="m425.141 268.696c-16.789 0-30.447 13.66-30.447 30.45s13.659 30.449 30.447 30.449 30.447-13.66 30.447-30.449c0-16.79-13.658-30.45-30.447-30.45zm0 40.899c-5.761 0-10.447-4.688-10.447-10.449 0-5.762 4.687-10.45 10.447-10.45s10.447 4.688 10.447 10.45-4.686 10.449-10.447 10.449z"/><path d="m162.474 244.396c55.272 0 100.24-44.972 100.24-100.25s-44.968-100.25-100.24-100.25c-55.273 0-100.241 44.972-100.241 100.25s44.968 100.25 100.241 100.25zm0-180.5c44.245 0 80.24 36 80.24 80.25s-35.996 80.25-80.24 80.25c-44.245 0-80.241-36-80.241-80.25s35.996-80.25 80.241-80.25z"/><path d="m190.362 309.012h-55.776c-5.523 0-10 4.477-10 10s4.477 10 10 10h55.776c5.523 0 10-4.477 10-10s-4.477-10-10-10z"/><path d="m190.362 346.304h-55.776c-5.523 0-10 4.477-10 10s4.477 10 10 10h55.776c5.523 0 10-4.477 10-10s-4.477-10-10-10z"/></g></svg>