<?xml version="1.0" encoding="iso-8859-1"?>
<!-- Generator: Adobe Illustrator 19.0.0, SVG Export Plug-In . SVG Version: 6.00 Build 0)  -->
<svg version="1.1" id="Capa_1" xmlns="http://www.w3.org/2000/svg" xmlns:xlink="http://www.w3.org/1999/xlink" x="0px" y="0px"
	 viewBox="0 0 512.024 512.024" style="enable-background:new 0 0 512.024 512.024;" xml:space="preserve">
<g>
	<g>
		<path fill="#fff" d="M117.343,149.357C52.639,149.357,0.01,202.008,0.01,266.69v170.667c0,5.909,4.779,10.667,10.667,10.667H224.01
			c5.888,0,10.667-4.757,10.667-10.667V266.69C234.676,202.008,182.047,149.357,117.343,149.357z M213.343,426.69h-192v-160
			c0-52.928,43.072-96,96-96c52.928,0,96,43.072,96,96V426.69z"/>
	</g>
</g>
<g>
	<g>
		<path fill="#fff" d="M394.676,42.69c-5.888,0-10.667,4.757-10.667,10.667c0,5.909,4.779,10.667,10.667,10.667c52.928,0,96,43.072,96,96
			v149.333c0,5.888,4.779,10.667,10.667,10.667c5.888,0,10.667-4.757,10.667-10.667V160.024
			C512.01,95.341,459.38,42.69,394.676,42.69z"/>
	</g>
</g>
<g>
	<g>
		<path fill="#fff" d="M234.036,113.73c-2.027-5.547-8.107-8.427-13.675-6.4l-117.333,42.667c-5.525,2.027-8.405,8.128-6.379,13.675
			c1.579,4.331,5.675,7.019,10.027,7.019c1.216,0,2.432-0.192,3.648-0.619l117.333-42.667
			C233.183,125.378,236.063,119.277,234.036,113.73z"/>
	</g>
</g>
<g>
	<g>
		<path fill="#fff" d="M511.028,304.877c-2.475-5.355-8.811-7.701-14.165-5.227l-277.333,128c-5.355,2.475-7.701,8.832-5.227,14.165
			c1.813,3.925,5.675,6.208,9.707,6.208c1.493,0,3.008-0.299,4.459-0.981l277.333-128
			C511.156,316.568,513.503,310.232,511.028,304.877z"/>
	</g>
</g>
<g>
	<g>
		<path fill="#fff" d="M202.676,426.69c-5.888,0-10.667,4.779-10.667,10.667v64c0,5.909,4.779,10.667,10.667,10.667s10.667-4.757,10.667-10.667
			v-64C213.343,431.469,208.564,426.69,202.676,426.69z"/>
	</g>
</g>
<g>
	<g>
		<path fill="#fff" d="M266.676,416.024c-5.888,0-10.667,4.779-10.667,10.667v74.667c0,5.888,4.779,10.667,10.667,10.667
			s10.667-4.757,10.667-10.667V426.69C277.343,420.802,272.564,416.024,266.676,416.024z"/>
	</g>
</g>
<g>
	<g>
		<path fill="#fff" d="M309.343,394.69c-5.888,0-10.667,4.779-10.667,10.667v96c0,5.888,4.779,10.667,10.667,10.667s10.667-4.757,10.667-10.667
			v-96C320.01,399.469,315.231,394.69,309.343,394.69z"/>
	</g>
</g>
<g>
	<g>
		<path fill="#fff" d="M358.58,2.285c-2.603-2.027-5.995-2.795-9.152-1.941l-85.333,21.333c-4.757,1.195-8.085,5.461-8.085,10.347v63.765
			c0,0.149,0,0.299,0,0.448V266.69c0,5.888,4.779,10.667,10.667,10.667s10.667-4.757,10.667-10.667V104.365l77.248-19.328
			c4.757-1.195,8.085-5.461,8.085-10.347v-64C362.676,7.426,361.162,4.312,358.58,2.285z M341.343,66.37l-64,16V40.365l64-16V66.37z
			"/>
	</g>
</g>
<g>
	<g>
		<path fill="#fff" d="M176.564,363.842l-27.221,13.611V273.304l36.757-18.389c5.269-2.645,7.424-9.045,4.779-14.315
			c-2.645-5.269-9.045-7.403-14.315-4.779l-42.667,21.333c-3.605,1.813-5.888,5.504-5.888,9.536v128c0,3.712,1.92,7.125,5.056,9.067
			c1.707,1.067,3.669,1.6,5.611,1.6c1.643,0,3.264-0.363,4.757-1.088l42.667-21.333c5.269-2.645,7.424-9.045,4.779-14.315
			C188.234,363.33,181.834,361.24,176.564,363.842z"/>
	</g>
</g>
<g>
	<g>
		<path fill="#fff" d="M91.231,363.842L64.01,377.453V273.304l36.757-18.389c5.269-2.645,7.424-9.045,4.779-14.315
			c-2.645-5.269-9.024-7.403-14.315-4.779l-42.667,21.333c-3.605,1.813-5.888,5.504-5.888,9.536v128c0,3.712,1.92,7.125,5.056,9.067
			c1.707,1.067,3.669,1.6,5.611,1.6c1.643,0,3.264-0.363,4.757-1.088l42.667-21.333c5.269-2.645,7.424-9.045,4.779-14.315
			C102.9,363.33,96.522,361.24,91.231,363.842z"/>
	</g>
</g>
<g>
</g>
<g>
</g>
<g>
</g>
<g>
</g>
<g>
</g>
<g>
</g>
<g>
</g>
<g>
</g>
<g>
</g>
<g>
</g>
<g>
</g>
<g>
</g>
<g>
</g>
<g>
</g>
<g>
</g>
</svg>
