<svg id="Capa_1" enable-background="new 0 0 512 512" height="512" viewBox="0 0 512 512" width="512" xmlns="http://www.w3.org/2000/svg"><g><path d="m474.143 96.57h-205v-38.285c0-5.523-4.477-10-10-10h-22.328v-38.285c0-5.523-4.477-10-10-10h-156.63c-5.523 0-10 4.477-10 10v38.285h-22.328c-5.523 0-10 4.477-10 10v48.285c0 5.523 4.477 10 10 10h.624v278.86h-.624c-5.523 0-10 4.477-10 10v48.285c0 5.523 4.477 10 10 10h22.328v38.285c0 5.523 4.477 10 10 10h156.629c5.523 0 10-4.477 10-10v-38.285h22.328c5.523 0 10-4.477 10-10v-38.285h205c5.523 0 10-4.477 10-10v-298.86c.001-5.523-4.476-10-9.999-10zm-10 208.569h-39.638v-98.277h39.638zm-383.958-285.139h136.629v28.285h-136.629zm-32.328 48.285h201.286v28.285h-201.286zm10.623 48.285h180.039v278.86h-180.039zm158.334 375.43h-136.629v-28.285h136.629zm32.329-48.285h-201.286v-28.285h201.286zm9.376-48.285v-278.86h205.624v23.94h-11.147c-5.523 0-10 4.477-10 10s4.477 10 10 10h11.147v26.351h-49.638c-5.523 0-10 4.477-10 10v118.277c0 5.523 4.477 10 10 10h49.638v26.351h-11.147c-5.523 0-10 4.477-10 10s4.477 10 10 10h11.147v23.94h-205.624z"/><path d="m373.702 315.139v-118.278c0-5.523-4.477-10-10-10h-73.53c-5.523 0-10 4.477-10 10v118.277c0 5.523 4.477 10 10 10h73.53c5.523.001 10-4.476 10-9.999zm-20-10h-53.53v-98.277h53.53z"/><path d="m388.153 140.51h-12.968c-5.523 0-10 4.477-10 10s4.477 10 10 10h12.968c5.523 0 10-4.477 10-10s-4.477-10-10-10z"/><path d="m297.373 160.51h12.968c5.523 0 10-4.477 10-10s-4.477-10-10-10h-12.968c-5.523 0-10 4.477-10 10s4.477 10 10 10z"/><path d="m388.153 351.49h-12.968c-5.523 0-10 4.477-10 10s4.477 10 10 10h12.968c5.523 0 10-4.477 10-10s-4.477-10-10-10z"/><path d="m310.341 351.49h-12.968c-5.523 0-10 4.477-10 10s4.477 10 10 10h12.968c5.523 0 10-4.477 10-10s-4.477-10-10-10z"/></g></svg>