<?xml version="1.0" encoding="iso-8859-1"?>
<!-- Generator: Adobe Illustrator 19.0.0, SVG Export Plug-In . SVG Version: 6.00 Build 0)  -->
<svg version="1.1" id="Capa_1" xmlns="http://www.w3.org/2000/svg" xmlns:xlink="http://www.w3.org/1999/xlink" x="0px" y="0px"
	 viewBox="0 0 512 512" style="enable-background:new 0 0 512 512;" xml:space="preserve">
<g>
	<g>
		<path d="M117.333,106.667C52.651,106.667,0,159.296,0,224v170.667c0,5.888,4.779,10.667,10.667,10.667H224
			c5.888,0,10.667-4.779,10.667-10.667V224C234.667,159.296,182.016,106.667,117.333,106.667z M213.333,384h-192V224
			c0-52.928,43.072-96,96-96c52.928,0,96,43.072,96,96V384z"/>
	</g>
</g>
<g>
	<g>
		<path d="M394.667,0H384c-1.323,0-2.603,0.235-3.84,0.704L102.827,107.371c-5.483,2.112-8.235,8.299-6.123,13.803
			s8.213,8.213,13.803,6.123L385.984,21.333h8.683c52.928,0,96,43.072,96,96v149.333c0,5.888,4.779,10.667,10.667,10.667
			c5.888,0,10.667-4.779,10.667-10.667V117.333C512,52.629,459.349,0,394.667,0z"/>
	</g>
</g>
<g>
	<g>
		<path d="M511.019,262.187c-2.496-5.376-8.811-7.659-14.165-5.227l-277.333,128c-5.333,2.475-7.659,8.832-5.205,14.165
			c1.813,3.925,5.675,6.208,9.685,6.208c1.493,0,3.029-0.32,4.48-0.981l277.333-128C511.147,273.877,513.472,267.52,511.019,262.187
			z"/>
	</g>
</g>
<g>
	<g>
		<path d="M464.064,108.139c-3.243-1.92-7.275-1.963-10.603-0.128l-192,106.667c-5.141,2.88-6.997,9.365-4.139,14.507
			c1.963,3.499,5.611,5.483,9.344,5.483c1.771,0,3.541-0.427,5.184-1.344l133.483-74.155V224c0,3.691,1.92,7.125,5.077,9.067
			c3.115,1.941,7.04,2.112,10.368,0.469l42.667-21.333c3.605-1.813,5.888-5.504,5.888-9.536v-85.333
			C469.333,113.557,467.307,110.059,464.064,108.139z M448,196.075l-21.333,10.667v-57.408c0-0.661-0.064-1.301-0.171-1.92
			L448,135.467V196.075z"/>
	</g>
</g>
<g>
	<g>
		<path d="M202.667,384c-5.888,0-10.667,4.779-10.667,10.667v106.667c0,5.888,4.779,10.667,10.667,10.667
			s10.667-4.779,10.667-10.667V394.667C213.333,388.779,208.555,384,202.667,384z"/>
	</g>
</g>
<g>
	<g>
		<path d="M266.667,373.333c-5.888,0-10.667,4.779-10.667,10.667v117.333c0,5.888,4.779,10.667,10.667,10.667
			s10.667-4.779,10.667-10.667V384C277.333,378.112,272.555,373.333,266.667,373.333z"/>
	</g>
</g>
<g>
	<g>
		<path d="M309.333,352c-5.888,0-10.667,4.779-10.667,10.667v138.667c0,5.888,4.779,10.667,10.667,10.667S320,507.221,320,501.333
			V362.667C320,356.779,315.221,352,309.333,352z"/>
	</g>
</g>
<g>
</g>
<g>
</g>
<g>
</g>
<g>
</g>
<g>
</g>
<g>
</g>
<g>
</g>
<g>
</g>
<g>
</g>
<g>
</g>
<g>
</g>
<g>
</g>
<g>
</g>
<g>
</g>
<g>
</g>
</svg>
