<svg id="Capa_1" enable-background="new 0 0 512 512" height="512" viewBox="0 0 512 512" width="512" xmlns="http://www.w3.org/2000/svg"><g><path d="m256 131.601c5.522 0 10-4.477 10-10v-23.799c0-5.523-4.478-10-10-10s-10 4.477-10 10v23.799c0 5.523 4.478 10 10 10z"/><path d="m356.94 173.323c2.556 0 5.111-.974 7.063-2.921l16.864-16.829c3.909-3.901 3.916-10.233.015-14.142-3.901-3.91-10.232-3.916-14.142-.015l-16.864 16.829c-3.909 3.901-3.916 10.233-.015 14.142 1.954 1.957 4.517 2.936 7.079 2.936z"/><path d="m147.996 170.402c1.952 1.948 4.508 2.921 7.063 2.921 2.563 0 5.125-.979 7.078-2.937 3.901-3.909 3.895-10.241-.015-14.142l-16.864-16.829c-3.91-3.9-10.241-3.895-14.142.015-3.901 3.909-3.895 10.241.015 14.142z"/><path d="m487.059 196.975h-148.824c-21.956-19.334-50.75-31.076-82.235-31.076s-60.279 11.742-82.235 31.076h-148.824c-13.753 0-24.941 11.189-24.941 24.942v137.113c0 13.753 11.188 24.941 24.941 24.941h4.676v30.228c0 5.523 4.478 10 10 10h94.213c5.522 0 10-4.477 10-10v-30.228h29.935c21.956 19.334 50.75 31.076 82.235 31.076s60.28-11.742 82.235-31.076h29.935v30.228c0 5.523 4.478 10 10 10h94.213c5.522 0 10-4.477 10-10v-30.228h4.676c13.753 0 24.941-11.188 24.941-24.941v-137.113c0-13.753-11.188-24.942-24.941-24.942zm-38.08 20v24.794h-37.404v-24.794zm-428.979 142.054v-137.112c0-2.725 2.217-4.941 4.941-4.941h130.534c-15.114 20.616-24.049 46.033-24.049 73.498 0 27.464 8.934 52.881 24.049 73.498h-130.534c-2.724-.001-4.941-2.218-4.941-4.943zm103.83 45.169h-74.213v-20.228h74.213zm27.597-113.725c0-57.662 46.911-104.574 104.573-104.574s104.573 46.912 104.573 104.574-46.911 104.573-104.573 104.573-104.573-46.911-104.573-104.573zm310.956 113.725h-74.213v-20.228h74.213zm29.617-45.169c0 2.725-2.217 4.941-4.941 4.941h-130.534c15.114-20.616 24.049-46.033 24.049-73.498s-8.934-52.882-24.049-73.498h35.05v34.794c0 5.523 4.478 10 10 10h57.404c5.522 0 10-4.477 10-10v-34.794h18.08c2.725 0 4.941 2.217 4.941 4.941z"/><path d="m256 213.345c-42.528 0-77.128 34.6-77.128 77.128s34.6 77.127 77.128 77.127 77.128-34.599 77.128-77.127-34.6-77.128-77.128-77.128zm0 134.256c-31.5 0-57.128-25.627-57.128-57.127s25.628-57.128 57.128-57.128 57.128 25.627 57.128 57.128c0 31.499-25.628 57.127-57.128 57.127z"/><path d="m60.043 257.985h41.361c5.522 0 10-4.477 10-10s-4.478-10-10-10h-41.361c-5.522 0-10 4.477-10 10s4.478 10 10 10z"/><path d="m60.043 334.581h41.361c5.522 0 10-4.477 10-10s-4.478-10-10-10h-41.361c-5.522 0-10 4.477-10 10s4.478 10 10 10z"/><path d="m450.957 314.581h-41.361c-5.522 0-10 4.477-10 10s4.478 10 10 10h41.361c5.522 0 10-4.477 10-10s-4.478-10-10-10z"/></g></svg>