<?xml version="1.0" encoding="iso-8859-1"?>
<!-- Generator: Adobe Illustrator 19.0.0, SVG Export Plug-In . SVG Version: 6.00 Build 0)  -->
<svg version="1.1" id="Capa_1" xmlns="http://www.w3.org/2000/svg" xmlns:xlink="http://www.w3.org/1999/xlink" x="0px" y="0px"
	 viewBox="0 0 490.667 490.667" style="enable-background:new 0 0 490.667 490.667;" xml:space="preserve">
<g>
	<g>
		<path d="M437.333,32h-384C23.936,32,0,55.936,0,85.333V320c0,29.397,23.936,53.333,53.333,53.333h64
			c5.888,0,10.667-4.779,10.667-10.667c0-5.888-4.779-10.667-10.667-10.667h-64c-17.643,0-32-14.357-32-32V85.333
			c0-17.643,14.357-32,32-32h384c17.643,0,32,14.357,32,32V320c0,17.643-14.357,32-32,32h-64c-5.888,0-10.667,4.779-10.667,10.667
			c0,5.888,4.779,10.667,10.667,10.667h64c29.397,0,53.333-23.936,53.333-53.333V85.333C490.667,55.936,466.731,32,437.333,32z"/>
	</g>
</g>
<g>
	<g>
		<path d="M445.995,79.083c-3.456-4.779-10.112-5.867-14.891-2.389l-165.76,119.701c-12.139,8.768-27.861,8.768-40,0L59.584,76.693
			c-4.8-3.477-11.456-2.411-14.891,2.389c-3.456,4.779-2.389,11.456,2.389,14.891l165.76,119.701
			c9.707,7.019,21.099,10.539,32.491,10.539s22.784-3.499,32.512-10.539l165.76-119.701
			C448.363,90.539,449.451,83.861,445.995,79.083z"/>
	</g>
</g>
<g>
	<g>
		<path d="M167.531,205.803c-4.16-4.16-10.923-4.16-15.083,0L45.781,312.469c-4.16,4.16-4.16,10.923,0,15.083
			c2.091,2.069,4.821,3.115,7.552,3.115s5.461-1.045,7.531-3.115l106.667-106.667C171.691,216.725,171.691,209.963,167.531,205.803z
			"/>
	</g>
</g>
<g>
	<g>
		<path d="M444.864,312.469L338.197,205.803c-4.16-4.16-10.923-4.16-15.083,0c-4.16,4.16-4.16,10.923,0,15.083l106.667,106.667
			c2.091,2.069,4.821,3.115,7.552,3.115c2.731,0,5.461-1.045,7.531-3.115C449.024,323.392,449.024,316.629,444.864,312.469z"/>
	</g>
</g>
<g>
	<g>
		<path d="M296.875,288.704c-20.971-3.456-40.171,5.525-51.541,20.651c-11.371-15.125-30.464-24.107-51.563-20.651
			c-25.323,4.139-44.437,27.733-44.437,56.277c0,14.251,5.547,27.648,15.616,37.739l72.832,72.832
			c2.091,2.069,4.821,3.115,7.552,3.115s5.461-1.045,7.552-3.136l72.832-72.832c10.069-10.091,15.616-23.488,15.616-39.104
			C341.333,316.437,322.219,292.843,296.875,288.704z M310.635,367.616l-65.301,65.301l-65.301-65.301
			c-6.037-6.037-9.365-14.08-9.365-24c0-16.832,11.413-31.381,26.56-33.835c1.835-0.299,3.669-0.448,5.44-0.448
			c17.643,0,32,14.357,32,32c0,5.888,4.779,10.667,10.667,10.667S256,347.221,256,341.333c0-19.435,17.429-34.773,37.44-31.552
			c15.147,2.453,26.56,17.003,26.56,35.2C320,353.536,316.672,361.557,310.635,367.616z"/>
	</g>
</g>
<g>
</g>
<g>
</g>
<g>
</g>
<g>
</g>
<g>
</g>
<g>
</g>
<g>
</g>
<g>
</g>
<g>
</g>
<g>
</g>
<g>
</g>
<g>
</g>
<g>
</g>
<g>
</g>
<g>
</g>
</svg>
