<svg id="Capa_1" enable-background="new 0 0 511.913 511.913" height="512" viewBox="0 0 511.913 511.913" width="512" xmlns="http://www.w3.org/2000/svg"><g><path d="m255.956 171.748c-46.433 0-84.208 37.775-84.208 84.208s37.775 84.208 84.208 84.208 84.208-37.775 84.208-84.208-37.775-84.208-84.208-84.208zm0 148.416c-35.404 0-64.208-28.804-64.208-64.208s28.804-64.208 64.208-64.208 64.208 28.804 64.208 64.208-28.803 64.208-64.208 64.208z"/><path d="m377.74 179.19c6.013-6.012 9.324-14.006 9.324-22.509s-3.311-16.497-9.323-22.51c-12.412-12.412-32.608-12.41-45.021.002-.173.173-.344.347-.512.522-22.828-14.433-48.981-22.012-76.253-22.012s-53.425 7.579-76.253 22.012c-.169-.176-.34-.351-.513-.524-12.412-12.412-32.607-12.409-45.019 0-6.012 6.013-9.323 14.007-9.323 22.51s3.312 16.497 9.323 22.509c.173.173.349.344.525.513-14.433 22.828-22.012 48.981-22.012 76.254s7.579 53.426 22.012 76.254c-.176.169-.351.34-.524.513-6.012 6.012-9.324 14.006-9.324 22.509s3.311 16.497 9.323 22.51c12.413 12.413 32.608 12.412 45.019 0 .173-.174.344-.349.513-.524 22.829 14.433 48.982 22.012 76.253 22.012s53.425-7.579 76.253-22.012c.169.176.34.351.513.524 12.412 12.412 32.607 12.412 45.02 0 6.013-6.013 9.323-14.007 9.323-22.51s-3.312-16.497-9.323-22.509c-.174-.173-.349-.344-.525-.513 14.434-22.829 22.013-48.982 22.013-76.254s-7.579-53.425-22.013-76.254c.177-.169.352-.339.524-.513zm1.489 76.766c0 26.479-8.306 51.731-24.021 73.027-1.844 2.499-2.422 5.714-1.564 8.699s3.055 5.402 5.944 6.541c1.501.593 2.851 1.48 4.012 2.642 2.234 2.234 3.465 5.206 3.465 8.366 0 3.161-1.23 6.133-3.466 8.367-4.611 4.614-12.118 4.615-16.733.002-1.16-1.161-2.049-2.512-2.642-4.013-1.139-2.89-3.556-5.086-6.541-5.944-2.986-.857-6.199-.279-8.699 1.564-21.296 15.715-46.549 24.021-73.027 24.021s-51.73-8.306-73.027-24.021c-1.739-1.283-3.824-1.953-5.938-1.953-.923 0-1.853.128-2.76.389-2.985.857-5.402 3.053-6.542 5.942-.593 1.503-1.481 2.854-2.641 4.013-4.612 4.614-12.12 4.614-16.734 0-2.235-2.234-3.466-5.206-3.466-8.367 0-3.16 1.231-6.132 3.465-8.366 1.161-1.161 2.51-2.049 4.012-2.642 2.89-1.139 5.086-3.556 5.944-6.541.857-2.985.279-6.2-1.565-8.699-15.714-21.296-24.02-46.548-24.02-73.027s8.306-51.731 24.02-73.027c1.844-2.499 2.422-5.713 1.565-8.697-.857-2.985-3.053-5.402-5.941-6.542-1.504-.594-2.854-1.482-4.015-2.643-2.234-2.234-3.465-5.206-3.465-8.366 0-3.161 1.231-6.133 3.465-8.367 4.614-4.612 12.121-4.613 16.734 0 1.16 1.159 2.048 2.51 2.641 4.013 1.14 2.89 3.557 5.085 6.542 5.942 2.984.856 6.199.279 8.698-1.564 21.296-15.715 46.549-24.021 73.027-24.021s51.731 8.306 73.027 24.021c2.498 1.844 5.711 2.423 8.697 1.564 2.985-.856 5.402-3.052 6.542-5.941.594-1.504 1.483-2.854 2.642-4.014 4.613-4.613 12.121-4.613 16.734 0 2.235 2.234 3.466 5.206 3.466 8.367 0 3.16-1.23 6.132-3.466 8.366-1.159 1.16-2.51 2.049-4.014 2.643-2.89 1.14-5.085 3.557-5.941 6.542-.857 2.984-.279 6.198 1.564 8.697 15.716 21.296 24.022 46.549 24.022 73.027z"/><path d="m255.956 217.724c-21.082 0-38.233 17.151-38.233 38.232s17.151 38.232 38.233 38.232c21.081 0 38.232-17.151 38.232-38.232s-17.151-38.232-38.232-38.232zm0 56.465c-10.054 0-18.233-8.179-18.233-18.232s8.179-18.232 18.233-18.232 18.232 8.179 18.232 18.232-8.178 18.232-18.232 18.232z"/><path d="m407.552 57.131c-1.876-1.88-4.423-2.937-7.078-2.937h-287.133c-2.656 0-5.202 1.057-7.078 2.936l-25.586 25.637c-1.871 1.875-2.922 4.416-2.922 7.064v332.25c0 2.648 1.051 5.189 2.922 7.064l25.586 25.637c1.876 1.879 4.422 2.936 7.078 2.936h287.133c2.655 0 5.202-1.057 7.078-2.937l25.585-25.637c1.871-1.874 2.922-4.415 2.922-7.063v-332.25c0-2.648-1.051-5.189-2.922-7.063zm8.507 360.815-19.733 19.772h-278.837l-19.734-19.773v-323.977l19.733-19.773h278.837l19.733 19.772v323.979z"/><path d="m461.85 223.182c-3.901-3.908-10.233-3.916-14.143-.014-3.908 3.901-3.915 10.233-.014 14.143 10.261 10.281 10.261 27.01 0 37.291-3.901 3.909-3.895 10.241.014 14.143 1.953 1.948 4.508 2.922 7.064 2.922 2.563 0 5.125-.979 7.078-2.936 18.036-18.072 18.036-47.477.001-65.549z"/><path d="m485.368 191.643c-3.901-3.908-10.233-3.916-14.143-.014-3.909 3.901-3.915 10.233-.014 14.143 27.617 27.672 27.617 72.697 0 100.369-3.901 3.909-3.896 10.241.014 14.143 1.952 1.948 4.508 2.922 7.064 2.922 2.563 0 5.125-.979 7.078-2.936 35.394-35.463 35.394-93.164.001-128.627z"/><path d="m64.205 223.168c-3.909-3.901-10.241-3.896-14.142.015-18.035 18.071-18.035 47.476 0 65.547 1.953 1.958 4.516 2.937 7.078 2.937 2.556 0 5.112-.974 7.064-2.922 3.909-3.901 3.916-10.232.014-14.142-10.26-10.282-10.26-27.011 0-37.293 3.901-3.909 3.895-10.24-.014-14.142z"/><path d="m40.7 205.772c3.901-3.909 3.895-10.241-.014-14.143-3.91-3.902-10.241-3.895-14.142.014-35.392 35.463-35.392 93.164 0 128.627 1.953 1.957 4.516 2.936 7.078 2.936 2.556 0 5.112-.974 7.064-2.922 3.909-3.901 3.916-10.233.014-14.143-27.617-27.672-27.617-72.697 0-100.369z"/></g></svg>