<svg id="Capa_1" enable-background="new 0 0 512 512" height="512" viewBox="0 0 512 512" width="512" xmlns="http://www.w3.org/2000/svg"><g><path fill="#fff" d="m392.843 2.929c-1.875-1.875-4.418-2.929-7.071-2.929h-257.71c-2.652 0-5.196 1.054-7.071 2.929l-24.682 24.682c-1.875 1.875-2.929 4.419-2.929 7.071v442.634c0 2.652 1.054 5.196 2.929 7.071l24.683 24.683c1.875 1.875 4.419 2.929 7.071 2.929h257.709c2.652 0 5.196-1.054 7.071-2.929l24.684-24.683c1.875-1.875 2.929-4.419 2.929-7.071v-442.633c0-2.652-1.054-5.196-2.929-7.071zm7.613 470.246-18.826 18.825h-249.425l-18.825-18.825v-434.35l18.825-18.825h249.425l18.825 18.825v434.35z"/><path fill="#fff" d="m256.917 193.209c38.571 0 69.952-31.38 69.952-69.952s-31.38-69.952-69.952-69.952-69.952 31.38-69.952 69.952 31.381 69.952 69.952 69.952zm0-119.903c27.543 0 49.952 22.408 49.952 49.952s-22.408 49.952-49.952 49.952-49.952-22.408-49.952-49.952 22.409-49.952 49.952-49.952z"/><path fill="#fff" d="m256.917 293.086c-31.425 0-56.991 25.566-56.991 56.991s25.566 56.991 56.991 56.991 56.991-25.566 56.991-56.991-25.566-56.991-56.991-56.991zm0 93.982c-20.397 0-36.991-16.594-36.991-36.991s16.594-36.991 36.991-36.991 36.991 16.594 36.991 36.991-16.594 36.991-36.991 36.991z"/><path fill="#fff" d="m256.917 241.46c-59.892 0-108.617 48.726-108.617 108.617s48.726 108.617 108.617 108.617 108.617-48.726 108.617-108.617-48.725-108.617-108.617-108.617zm0 197.234c-48.864 0-88.617-39.753-88.617-88.617s39.753-88.617 88.617-88.617 88.617 39.753 88.617 88.617-39.753 88.617-88.617 88.617z"/><path fill="#fff" d="m367.568 42.546c-3.905-3.905-10.237-3.905-14.143 0-3.905 3.905-3.905 10.237 0 14.143l9.447 9.447c1.953 1.953 4.512 2.929 7.071 2.929s5.119-.976 7.071-2.929c3.905-3.905 3.905-10.237 0-14.143z"/><path fill="#fff" d="m143.891 69.064c2.559 0 5.119-.977 7.071-2.929l9.447-9.447c3.905-3.905 3.906-10.237 0-14.142-3.904-3.906-10.237-3.905-14.142 0l-9.447 9.447c-3.905 3.905-3.906 10.237 0 14.142 1.952 1.953 4.511 2.929 7.071 2.929z"/><path fill="#fff" d="m362.873 445.865-9.447 9.447c-3.905 3.905-3.905 10.237 0 14.143 1.953 1.953 4.512 2.929 7.071 2.929s5.119-.976 7.071-2.929l9.447-9.447c3.905-3.905 3.905-10.237 0-14.143s-10.237-3.906-14.142 0z"/><path fill="#fff" d="m150.961 445.865c-3.905-3.905-10.237-3.905-14.142 0s-3.905 10.237 0 14.142l9.447 9.447c1.953 1.953 4.512 2.929 7.071 2.929s5.119-.977 7.071-2.929c3.905-3.905 3.905-10.237 0-14.142z"/><path fill="#fff" d="m454.874 224.175c-3.905-3.905-10.237-3.905-14.143 0-3.905 3.905-3.905 10.237 0 14.143 9.75 9.75 9.75 25.614 0 35.364-3.905 3.905-3.905 10.237 0 14.143 1.953 1.953 4.512 2.929 7.071 2.929s5.119-.976 7.071-2.929c17.548-17.549 17.548-46.101.001-63.65z"/><path fill="#fff" d="m477.563 193.81c-3.905-3.905-10.237-3.905-14.143 0s-3.905 10.237 0 14.143c12.834 12.833 19.902 29.897 19.902 48.047s-7.068 35.214-19.902 48.047c-3.905 3.905-3.905 10.237 0 14.143 1.953 1.953 4.512 2.929 7.071 2.929s5.119-.976 7.071-2.929c34.292-34.292 34.292-90.088.001-124.38z"/><path fill="#fff" d="m71.269 224.175c-3.905-3.905-10.237-3.905-14.143 0-17.548 17.548-17.548 46.101 0 63.649 1.953 1.953 4.512 2.929 7.071 2.929s5.119-.976 7.071-2.929c3.905-3.905 3.905-10.237 0-14.143-9.75-9.75-9.75-25.614 0-35.364 3.906-3.904 3.906-10.236.001-14.142z"/><path fill="#fff" d="m28.678 256c0-18.15 7.068-35.214 19.902-48.047 3.905-3.905 3.905-10.237 0-14.143s-10.237-3.905-14.143 0c-34.292 34.292-34.292 90.088 0 124.38 1.953 1.953 4.512 2.929 7.071 2.929s5.119-.976 7.071-2.929c3.905-3.905 3.905-10.237 0-14.143-12.833-12.833-19.901-29.897-19.901-48.047z"/></g></svg>