<?xml version="1.0" encoding="iso-8859-1"?>
<!-- Generator: Adobe Illustrator 19.0.0, SVG Export Plug-In . SVG Version: 6.00 Build 0)  -->
<svg version="1.1" id="Capa_1" xmlns="http://www.w3.org/2000/svg" xmlns:xlink="http://www.w3.org/1999/xlink" x="0px" y="0px"
	 viewBox="0 0 490.667 490.667" style="enable-background:new 0 0 490.667 490.667;" xml:space="preserve">
<g>
	<g>
		<path d="M437.333,10.667h-384C23.936,10.667,0,34.603,0,64v234.667C0,328.064,23.936,352,53.333,352h64
			c5.888,0,10.667-4.779,10.667-10.667c0-5.888-4.779-10.667-10.667-10.667h-64c-17.643,0-32-14.357-32-32V64
			c0-17.643,14.357-32,32-32h384c17.643,0,32,14.357,32,32v234.667c0,17.643-14.357,32-32,32h-64
			c-5.888,0-10.667,4.779-10.667,10.667c0,5.888,4.779,10.667,10.667,10.667h64c29.397,0,53.333-23.936,53.333-53.333V64
			C490.667,34.603,466.731,10.667,437.333,10.667z"/>
	</g>
</g>
<g>
	<g>
		<path d="M445.995,57.749c-3.456-4.779-10.112-5.845-14.891-2.389l-165.76,119.701c-12.139,8.768-27.861,8.768-40,0L59.584,55.36
			c-4.8-3.456-11.456-2.389-14.891,2.389c-3.456,4.779-2.389,11.456,2.389,14.891l165.76,119.701
			c9.707,7.019,21.099,10.539,32.491,10.539s22.784-3.499,32.512-10.539L443.605,72.64
			C448.363,69.205,449.451,62.528,445.995,57.749z"/>
	</g>
</g>
<g>
	<g>
		<path d="M167.531,184.469c-4.16-4.16-10.923-4.16-15.083,0L45.781,291.136c-4.16,4.16-4.16,10.923,0,15.083
			c2.091,2.069,4.821,3.115,7.552,3.115s5.461-1.045,7.531-3.115l106.667-106.667C171.691,195.392,171.691,188.629,167.531,184.469z
			"/>
	</g>
</g>
<g>
	<g>
		<path d="M444.864,291.136L338.197,184.469c-4.16-4.16-10.923-4.16-15.083,0c-4.16,4.16-4.16,10.923,0,15.083l106.667,106.667
			c2.091,2.069,4.821,3.115,7.552,3.115c2.731,0,5.461-1.045,7.531-3.115C449.024,302.059,449.024,295.296,444.864,291.136z"/>
	</g>
</g>
<g>
	<g>
		<path d="M330.667,330.667H160c-5.888,0-10.667,4.779-10.667,10.667v128c0,5.888,4.779,10.667,10.667,10.667h170.667
			c5.888,0,10.667-4.779,10.667-10.667v-128C341.333,335.445,336.555,330.667,330.667,330.667z M320,458.667H170.667V352H320
			V458.667z"/>
	</g>
</g>
<g>
	<g>
		<path d="M245.333,384c-5.888,0-10.667,4.779-10.667,10.667v32c0,5.888,4.779,10.667,10.667,10.667S256,432.555,256,426.667v-32
			C256,388.779,251.221,384,245.333,384z"/>
	</g>
</g>
<g>
	<g>
		<circle cx="245.333" cy="394.667" r="21.333"/>
	</g>
</g>
<g>
	<g>
		<path d="M245.333,245.333c-41.173,0-74.667,33.493-74.667,74.667v21.333c0,5.888,4.779,10.667,10.667,10.667
			S192,347.221,192,341.333V320c0-29.397,23.936-53.333,53.333-53.333s53.333,23.936,53.333,53.333v21.333
			c0,5.888,4.779,10.667,10.667,10.667S320,347.221,320,341.333V320C320,278.827,286.507,245.333,245.333,245.333z"/>
	</g>
</g>
<g>
</g>
<g>
</g>
<g>
</g>
<g>
</g>
<g>
</g>
<g>
</g>
<g>
</g>
<g>
</g>
<g>
</g>
<g>
</g>
<g>
</g>
<g>
</g>
<g>
</g>
<g>
</g>
<g>
</g>
</svg>
