<?xml version="1.0" encoding="iso-8859-1"?>
<!-- Generator: Adobe Illustrator 19.0.0, SVG Export Plug-In . SVG Version: 6.00 Build 0)  -->
<svg version="1.1" id="Capa_1" xmlns="http://www.w3.org/2000/svg" xmlns:xlink="http://www.w3.org/1999/xlink" x="0px" y="0px"
	 viewBox="0 0 512 512" style="enable-background:new 0 0 512 512;" xml:space="preserve">
<g>
	<g>
		<path d="M499.435,212.629L422.528,97.259C408.64,76.437,385.429,64,360.405,64H163.307c-32.363,0-62.357,16.149-80.171,43.179
			L14.464,211.456C4.992,224.341,0,239.616,0,255.616v139.051C0,424.064,23.915,448,53.333,448h405.333
			C488.085,448,512,424.064,512,394.667V254.037C512,239.275,507.669,224.939,499.435,212.629z M490.667,394.667
			c0,17.643-14.357,32-32,32H53.333c-17.643,0-32-14.357-32-32V255.616c0-11.435,3.563-22.336,10.645-31.979l68.949-104.704
			c13.888-21.056,37.205-33.6,62.379-33.6h197.12c17.856,0,34.453,8.875,44.373,23.744l76.907,115.371
			c5.845,8.811,8.96,19.029,8.96,29.589V394.667z"/>
	</g>
</g>
<g>
	<g>
		<path d="M490.667,234.667h-53.333C407.915,234.667,384,258.603,384,288c0,17.643-14.357,32-32,32H160c-17.643,0-32-14.357-32-32
			c0-29.397-23.915-53.333-53.333-53.333H21.333c-5.888,0-10.667,4.779-10.667,10.667S15.445,256,21.333,256h53.333
			c17.643,0,32,14.357,32,32c0,29.397,23.915,53.333,53.333,53.333h192c29.419,0,53.333-23.936,53.333-53.333
			c0-17.643,14.357-32,32-32h53.333c5.888,0,10.667-4.779,10.667-10.667S496.555,234.667,490.667,234.667z"/>
	</g>
</g>
<g>
</g>
<g>
</g>
<g>
</g>
<g>
</g>
<g>
</g>
<g>
</g>
<g>
</g>
<g>
</g>
<g>
</g>
<g>
</g>
<g>
</g>
<g>
</g>
<g>
</g>
<g>
</g>
<g>
</g>
</svg>
