<svg id="Capa_1" enable-background="new 0 0 512 512" height="512" viewBox="0 0 512 512" width="512" xmlns="http://www.w3.org/2000/svg"><g><path d="m502 410.309h-92.846c37.692-42.66 58.283-96.904 58.283-154.309 0-62.377-24.313-121.02-68.458-165.126-44.142-44.104-102.833-68.394-165.26-68.394s-121.118 24.29-165.261 68.394c-44.145 44.106-68.458 102.749-68.458 165.126s24.313 121.02 68.458 165.126c44.143 44.104 102.834 68.393 165.261 68.393h268.281c5.522 0 10-4.477 10-10v-59.21c0-5.523-4.478-10-10-10zm-482-154.309c0-117.735 95.874-213.52 213.719-213.52s213.719 95.785 213.719 213.52-95.874 213.52-213.719 213.52-213.719-95.785-213.719-213.52zm472 213.52h-163.335c21.909-9.735 42.332-22.898 60.598-39.214.082.002.165.003.247.003h102.49z"/><path d="m233.72 189.195c30.629 0 55.547-24.9 55.547-55.506 0-30.605-24.918-55.505-55.547-55.505s-55.547 24.899-55.547 55.505 24.918 55.506 55.547 55.506zm0-91.011c19.601 0 35.547 15.927 35.547 35.505s-15.946 35.506-35.547 35.506-35.547-15.928-35.547-35.506 15.946-35.505 35.547-35.505z"/><path d="m310.582 304.632c-30.628 0-55.545 24.899-55.545 55.505s24.917 55.506 55.545 55.506c30.629 0 55.547-24.9 55.547-55.506s-24.918-55.505-55.547-55.505zm0 91.012c-19.6 0-35.545-15.928-35.545-35.506s15.945-35.505 35.545-35.505c19.601 0 35.547 15.928 35.547 35.505 0 19.578-15.946 35.506-35.547 35.506z"/><path d="m156.855 304.632c-30.628 0-55.546 24.899-55.546 55.505s24.918 55.506 55.546 55.506c30.629 0 55.547-24.9 55.547-55.506s-24.918-55.505-55.547-55.505zm0 91.012c-19.6 0-35.546-15.928-35.546-35.506s15.946-35.505 35.546-35.505c19.601 0 35.547 15.928 35.547 35.505 0 19.578-15.946 35.506-35.547 35.506z"/><path d="m357.902 279.64c30.628 0 55.545-24.899 55.545-55.505s-24.917-55.506-55.545-55.506c-30.629 0-55.547 24.9-55.547 55.506s24.918 55.505 55.547 55.505zm0-91.012c19.6 0 35.545 15.928 35.545 35.506s-15.945 35.505-35.545 35.505c-19.601 0-35.547-15.928-35.547-35.505s15.947-35.506 35.547-35.506z"/><path d="m165.083 223.804c0-30.606-24.918-55.505-55.546-55.505-30.629 0-55.547 24.899-55.547 55.505s24.918 55.505 55.547 55.505c30.628.001 55.546-24.899 55.546-55.505zm-91.093 0c0-19.578 15.946-35.505 35.547-35.505 19.6 0 35.546 15.928 35.546 35.505s-15.946 35.505-35.546 35.505c-19.6.001-35.547-15.927-35.547-35.505z"/><path d="m278.335 256c0-24.584-20.015-44.585-44.616-44.585s-44.616 20.001-44.616 44.585 20.015 44.585 44.616 44.585 44.616-20.001 44.616-44.585zm-44.616 24.585c-13.573 0-24.616-11.029-24.616-24.585s11.043-24.585 24.616-24.585 24.616 11.029 24.616 24.585-11.043 24.585-24.616 24.585z"/></g></svg>