<svg id="Capa_1" enable-background="new 0 0 512 512" height="512" viewBox="0 0 512 512" width="512" xmlns="http://www.w3.org/2000/svg"><g><path d="m470.162 224.51c1.985-9.7 2.989-19.621 2.989-29.604 0-80.655-65.365-146.273-145.71-146.273-27.572 0-54.417 7.77-77.633 22.47-18.518 11.725-34.118 27.425-45.709 45.892-16.891-17.516-40.588-28.426-66.786-28.426-51.176 0-92.81 41.634-92.81 92.81 0 14.134 3.176 27.54 8.851 39.542-30.463 6.622-53.354 33.882-53.354 66.408 0 37.465 30.372 67.945 67.705 67.945h114.11l-24.636 36.073c-2.092 3.062-2.316 7.03-.585 10.309s5.135 5.331 8.843 5.331h52.7v46.381c0 5.523 4.478 10 10 10h82.365c5.522 0 10-4.477 10-10v-46.381h52.699c3.708 0 7.111-2.052 8.843-5.331 1.731-3.279 1.507-7.247-.585-10.309l-24.636-36.073h87.472c37.333 0 67.705-30.48 67.705-67.945 0-27.887-16.782-52.474-41.838-62.819zm-159.66 162.476c-5.522 0-10 4.477-10 10v46.381h-62.365v-46.381c0-5.523-4.478-10-10-10h-43.761l84.943-124.376 84.942 124.376zm133.793-51.713h-101.131l-65.587-96.035c-1.863-2.729-4.954-4.36-8.258-4.36s-6.395 1.632-8.258 4.36l-65.587 96.035h-127.769c-26.305 0-47.705-21.507-47.705-47.944 0-25.517 19.937-46.44 44.976-47.866 17.025 21.16 43.127 34.725 72.337 34.725 5.522 0 10-4.477 10-10s-4.478-10-10-10c-40.147 0-72.81-32.662-72.81-72.809s32.662-72.81 72.81-72.81 72.81 32.662 72.81 72.81c0 5.523 4.478 10 10 10s10-4.477 10-10c0-17.224-4.717-33.368-12.926-47.207 22.132-40.55 63.941-65.539 110.244-65.539 69.316 0 125.71 56.646 125.71 126.273 0 11.393-1.51 22.684-4.486 33.559-.71 2.594-.345 5.365 1.013 7.688 1.357 2.322 3.594 3.999 6.202 4.653 21.268 5.329 36.12 24.459 36.12 46.523 0 26.437-21.4 47.944-47.705 47.944z"/><path d="m183.425 166.509-49.32-30.943s0 0-.001 0c-5.407-3.393-12.237-3.581-17.824-.49-5.586 3.09-9.056 8.976-9.056 15.359v61.886c0 6.384 3.471 12.27 9.057 15.36 2.647 1.464 5.572 2.192 8.495 2.192 3.244 0 6.483-.898 9.329-2.684l49.32-30.943c5.15-3.231 8.225-8.789 8.225-14.869-.001-6.079-3.075-11.637-8.225-14.868zm-56.201 41.387v-53.038l42.268 26.519z"/></g></svg>