<svg id="Capa_1" enable-background="new 0 0 512 512" height="512" viewBox="0 0 512 512" width="512" xmlns="http://www.w3.org/2000/svg"><g><path d="m470.162 224.51c1.985-9.7 2.989-19.621 2.989-29.604 0-80.655-65.365-146.273-145.71-146.273-27.572 0-54.417 7.77-77.633 22.47-18.518 11.725-34.117 27.425-45.709 45.892-16.891-17.516-40.588-28.426-66.786-28.426-51.175 0-92.809 41.634-92.809 92.81 0 14.134 3.176 27.54 8.851 39.542-30.463 6.621-53.355 33.882-53.355 66.408 0 37.465 30.373 67.945 67.705 67.945h122.512l70.845 103.733c1.863 2.729 4.954 4.36 8.258 4.36s6.395-1.632 8.258-4.36l70.844-103.733h95.873c37.333 0 67.705-30.48 67.705-67.945 0-27.887-16.782-52.474-41.838-62.819zm-200.843 211.126-84.943-124.376h43.761c5.523 0 10-4.477 10-10v-46.381h62.365v46.381c0 5.523 4.478 10 10 10h43.76zm174.976-100.363h-82.214l19.378-28.375c2.092-3.062 2.316-7.03.585-10.309s-5.135-5.331-8.843-5.331h-52.699v-46.381c0-5.523-4.478-10-10-10h-82.365c-5.523 0-10 4.477-10 10v46.381h-52.7c-3.708 0-7.112 2.052-8.843 5.331s-1.506 7.247.585 10.309l19.378 28.375h-108.852c-26.305 0-47.705-21.507-47.705-47.944 0-25.517 19.937-46.44 44.977-47.866 17.025 21.161 43.126 34.725 72.337 34.725 5.523 0 10-4.477 10-10s-4.477-10-10-10c-40.147 0-72.809-32.662-72.809-72.809s32.662-72.81 72.809-72.81 72.81 32.662 72.81 72.81c0 5.523 4.477 10 10 10s10-4.477 10-10c0-17.224-4.717-33.367-12.926-47.206 22.131-40.551 63.941-65.539 110.244-65.539 69.316 0 125.71 56.646 125.71 126.273 0 11.393-1.51 22.684-4.486 33.559-.71 2.594-.345 5.365 1.013 7.688 1.357 2.322 3.594 3.999 6.202 4.653 21.268 5.329 36.12 24.459 36.12 46.523-.001 26.436-21.401 47.943-47.706 47.943z"/><path d="m183.425 166.509-49.32-30.943c-5.407-3.393-12.238-3.58-17.824-.49s-9.057 8.976-9.057 15.359v61.886c0 6.384 3.471 12.27 9.057 15.36 2.647 1.464 5.573 2.192 8.495 2.192 3.245 0 6.484-.898 9.329-2.684l49.321-30.943c5.149-3.231 8.224-8.79 8.224-14.869-.001-6.078-3.075-11.637-8.225-14.868zm-56.201 41.387v-53.038l42.268 26.519z"/></g></svg>