<?xml version="1.0" encoding="iso-8859-1"?>
<!-- Generator: Adobe Illustrator 19.0.0, SVG Export Plug-In . SVG Version: 6.00 Build 0)  -->
<svg version="1.1" id="Capa_1" xmlns="http://www.w3.org/2000/svg" xmlns:xlink="http://www.w3.org/1999/xlink" x="0px" y="0px"
	 viewBox="0 0 512 512" style="enable-background:new 0 0 512 512;" xml:space="preserve">
<g>
	<g>
		<path d="M458.667,0H181.333c-2.837,0-5.547,1.131-7.552,3.115l-128,128c-1.984,2.005-3.115,4.715-3.115,7.552v170.667
			c0,5.888,4.779,10.667,10.667,10.667S64,315.221,64,309.333V143.083L185.749,21.333H448v288c0,5.888,4.779,10.667,10.667,10.667
			s10.667-4.779,10.667-10.667V10.667C469.333,4.779,464.555,0,458.667,0z"/>
	</g>
</g>
<g>
	<g>
		<path d="M181.333,0c-5.888,0-10.667,4.779-10.667,10.667V128H53.333c-5.888,0-10.667,4.779-10.667,10.667
			s4.779,10.667,10.667,10.667h128c5.888,0,10.667-4.779,10.667-10.667v-128C192,4.779,187.221,0,181.333,0z"/>
	</g>
</g>
<g>
	<g>
		<path d="M499.456,276.629l-31.915-47.872c-3.264-4.907-9.899-6.251-14.784-2.965c-4.907,3.264-6.229,9.877-2.965,14.784
			l31.915,47.872c5.867,8.789,8.96,19.029,8.96,29.589v140.629c0,17.643-14.357,32-32,32H53.333c-17.643,0-32-14.357-32-32V319.616
			c0-11.413,3.563-22.315,10.688-32.064l30.272-47.104c3.179-4.971,1.749-11.563-3.2-14.741c-4.971-3.2-11.563-1.749-14.741,3.2
			l-29.909,46.571C4.992,288.384,0,303.637,0,319.616v139.051C0,488.064,23.936,512,53.333,512h405.333
			C488.064,512,512,488.064,512,458.667V318.037C512,303.253,507.669,288.917,499.456,276.629z"/>
	</g>
</g>
<g>
	<g>
		<path d="M490.667,298.667h-53.333C407.936,298.667,384,322.603,384,352c0,17.643-14.357,32-32,32H160c-17.643,0-32-14.357-32-32
			c0-29.397-23.936-53.333-53.333-53.333H21.333c-5.888,0-10.667,4.779-10.667,10.667S15.445,320,21.333,320h53.333
			c17.643,0,32,14.357,32,32c0,29.397,23.936,53.333,53.333,53.333h192c29.397,0,53.333-23.936,53.333-53.333
			c0-17.643,14.357-32,32-32h53.333c5.888,0,10.667-4.779,10.667-10.667S496.555,298.667,490.667,298.667z"/>
	</g>
</g>
<g>
</g>
<g>
</g>
<g>
</g>
<g>
</g>
<g>
</g>
<g>
</g>
<g>
</g>
<g>
</g>
<g>
</g>
<g>
</g>
<g>
</g>
<g>
</g>
<g>
</g>
<g>
</g>
<g>
</g>
</svg>
