<svg id="Capa_1" enable-background="new 0 0 512 512" height="512" viewBox="0 0 512 512" width="512" xmlns="http://www.w3.org/2000/svg"><g><path d="m256 405.473c69.778 0 126.548-56.769 126.548-126.548s-56.77-126.548-126.548-126.548-126.548 56.769-126.548 126.548 56.77 126.548 126.548 126.548zm0-233.096c58.751 0 106.548 47.797 106.548 106.548s-47.797 106.548-106.548 106.548-106.548-47.797-106.548-106.548 47.797-106.548 106.548-106.548z"/><path d="m230.58 335.401c2.956 1.635 6.223 2.448 9.485 2.448 3.622 0 7.239-1.003 10.416-2.996l62.683-39.326c5.75-3.607 9.183-9.814 9.183-16.602s-3.433-12.994-9.183-16.602l-62.683-39.326c-6.038-3.788-13.663-3.999-19.901-.548-6.237 3.45-10.112 10.021-10.112 17.15v78.652c0 7.129 3.875 13.7 10.112 17.15zm9.888-95.076 61.525 38.6-61.525 38.6z"/><path d="m502 110.641h-5.952v-13.509c0-20.663-16.812-37.473-37.477-37.473h-299.251l-2.201-7.698c-4.574-15.999-19.392-27.172-36.032-27.172h-67.658c-20.665 0-37.477 16.81-37.477 37.473v48.378h-5.952c-5.522 0-10 4.477-10 10v329.095c0 20.664 16.811 37.475 37.475 37.475h437.051c20.664 0 37.475-16.811 37.475-37.475v-329.094c-.001-5.523-4.479-10-10.001-10zm-466.048-48.379c0-9.634 7.84-17.473 17.477-17.473h67.658c7.76 0 14.67 5.21 16.804 12.671l4.274 14.948c1.227 4.292 5.15 7.251 9.614 7.251h306.792c9.637 0 17.477 7.838 17.477 17.473v13.509h-440.096zm456.048 387.474c0 9.635-7.839 17.475-17.475 17.475h-437.05c-9.636 0-17.475-7.839-17.475-17.475v-319.095h472z"/><path d="m400.766 425.859h-289.532c-5.522 0-10 4.477-10 10s4.478 10 10 10h289.531c5.522 0 10-4.477 10-10s-4.477-10-9.999-10z"/></g></svg>