<svg id="Capa_1" enable-background="new 0 0 512 512" height="512" viewBox="0 0 512 512" width="512" xmlns="http://www.w3.org/2000/svg"><g><path d="m368.245 63.141h-66.28c-5.523 0-10 4.477-10 10v18.488l-176.264 66.967h-90.968c-13.638 0-24.733 11.095-24.733 24.733v145.343c0 13.638 11.095 24.733 24.733 24.733h90.968l176.264 66.967v18.488c0 5.523 4.477 10 10 10h66.28c5.523 0 10-4.477 10-10v-365.719c0-5.523-4.477-10-10-10zm-348.245 265.53v-145.342c0-2.61 2.123-4.733 4.733-4.733h82.804v20.944h-34.439c-5.523 0-10 4.477-10 10s4.477 10 10 10h34.438v26.46h-34.438c-5.523 0-10 4.477-10 10s4.477 10 10 10h34.438v26.46h-34.438c-5.523 0-10 4.477-10 10s4.477 10 10 10h34.438v20.944h-82.803c-2.61 0-4.733-2.123-4.733-4.733zm107.537 7.835v-161.012l164.428-62.47v285.952zm230.708 92.353h-46.28v-345.718h46.28z"/><path d="m481.599 256 27.472-27.472c3.905-3.905 3.905-10.237 0-14.143-3.904-3.905-10.237-3.905-14.142 0l-27.472 27.472-27.472-27.472c-3.905-3.905-10.237-3.905-14.142 0s-3.905 10.237 0 14.143l27.471 27.472-27.472 27.472c-3.905 3.905-3.905 10.237 0 14.143 1.952 1.953 4.512 2.929 7.071 2.929s5.119-.977 7.071-2.929l27.472-27.472 27.472 27.472c1.953 1.953 4.512 2.929 7.071 2.929s5.119-.977 7.071-2.929c3.905-3.905 3.906-10.237 0-14.143z"/></g></svg>