<svg id="Capa_1" enable-background="new 0 0 512 512" height="512" viewBox="0 0 512 512" width="512" xmlns="http://www.w3.org/2000/svg"><g><path d="m384.678 196.164h-6.434v-123.023c0-5.523-4.477-10-10-10h-66.28c-5.523 0-10 4.477-10 10v18.488l-176.264 66.967h-90.967c-13.638 0-24.733 11.095-24.733 24.733v145.343c0 13.638 11.095 24.733 24.733 24.733h90.968l176.264 66.967v18.488c0 5.523 4.477 10 10 10h66.28c5.523 0 10-4.477 10-10v-123.024h6.434c32.964 0 59.783-26.819 59.783-59.783v-.105c-.001-32.965-26.819-59.784-59.784-59.784zm-364.678 132.507v-145.342c0-2.61 2.123-4.733 4.733-4.733h82.804v20.944h-34.439c-5.523 0-10 4.477-10 10s4.477 10 10 10h34.438v26.46h-34.438c-5.523 0-10 4.477-10 10s4.477 10 10 10h34.438v26.46h-34.438c-5.523 0-10 4.477-10 10s4.477 10 10 10h34.438v20.944h-82.803c-2.61 0-4.733-2.123-4.733-4.733zm107.537 7.835v-161.012l164.428-62.47v285.952zm230.708 92.353h-46.28v-345.718h46.28zm66.216-172.806c0 21.937-17.847 39.783-39.783 39.783h-6.434v-79.672h6.434c21.937 0 39.783 17.847 39.783 39.783z"/><path d="m502 246h-16.91c-5.523 0-10 4.477-10 10s4.477 10 10 10h16.91c5.523 0 10-4.477 10-10s-4.477-10-10-10z"/><path d="m462.525 320.656c-3.901-3.91-10.232-3.916-14.142-.015-3.909 3.901-3.916 10.232-.015 14.142l11.957 11.982c1.953 1.958 4.516 2.937 7.079 2.937 2.556 0 5.111-.974 7.063-2.921 3.909-3.901 3.916-10.232.015-14.142z"/><path d="m455.446 194.281c2.563 0 5.125-.979 7.079-2.937l11.957-11.982c3.901-3.91 3.894-10.241-.015-14.142s-10.241-3.895-14.142.015l-11.957 11.982c-3.901 3.91-3.894 10.241.015 14.142 1.952 1.948 4.508 2.922 7.063 2.922z"/></g></svg>