<?xml version="1.0" encoding="iso-8859-1"?>
<!-- Generator: Adobe Illustrator 19.0.0, SVG Export Plug-In . SVG Version: 6.00 Build 0)  -->
<svg version="1.1" id="Capa_1" xmlns="http://www.w3.org/2000/svg" xmlns:xlink="http://www.w3.org/1999/xlink" x="0px" y="0px"
	 viewBox="0 0 490.667 490.667" style="enable-background:new 0 0 490.667 490.667;" xml:space="preserve">
<g>
	<g>
		<path d="M437.333,10.219h-384C23.936,10.219,0,34.155,0,63.552v234.667c0,29.397,23.936,53.333,53.333,53.333H96
			c5.888,0,10.667-4.779,10.667-10.667c0-5.888-4.779-10.667-10.667-10.667H53.333c-17.643,0-32-14.357-32-32V63.552
			c0-17.643,14.357-32,32-32h384c17.643,0,32,14.357,32,32v234.667c0,17.643-14.357,32-32,32h-42.667
			c-5.888,0-10.667,4.779-10.667,10.667c0,5.888,4.779,10.667,10.667,10.667h42.667c29.397,0,53.333-23.915,53.333-53.333V63.552
			C490.667,34.155,466.731,10.219,437.333,10.219z"/>
	</g>
</g>
<g>
	<g>
		<path d="M445.995,57.301c-3.435-4.779-10.112-5.867-14.891-2.389l-165.76,119.701c-12.139,8.768-27.861,8.768-40,0L59.584,54.912
			c-4.8-3.477-11.456-2.389-14.891,2.389c-3.456,4.8-2.389,11.456,2.389,14.912l165.76,119.701
			c9.707,7.019,21.099,10.539,32.491,10.539s22.784-3.52,32.512-10.56l165.76-119.701C448.363,68.757,449.429,62.08,445.995,57.301z
			"/>
	</g>
</g>
<g>
	<g>
		<path d="M167.531,184.021c-4.16-4.16-10.923-4.16-15.083,0L45.781,290.688c-4.16,4.16-4.16,10.923,0,15.083
			c2.091,2.069,4.821,3.115,7.552,3.115s5.461-1.024,7.531-3.115l106.667-106.667C171.691,194.944,171.691,188.181,167.531,184.021z
			"/>
	</g>
</g>
<g>
	<g>
		<path d="M444.864,290.688L338.197,184.021c-4.16-4.16-10.923-4.16-15.083,0c-4.16,4.16-4.16,10.923,0,15.083l106.667,106.667
			c2.091,2.069,4.821,3.115,7.552,3.115c2.731,0,5.461-1.024,7.531-3.115C449.024,301.611,449.024,294.848,444.864,290.688z"/>
	</g>
</g>
<g>
	<g>
		<path d="M379.328,320.896c-1.429-4.395-5.525-7.381-10.155-7.381h-86.848l-26.837-82.603c-2.859-8.789-17.429-8.789-20.288,0
			l-26.837,82.603h-86.848c-4.629,0-8.725,2.987-10.155,7.381c-1.429,4.395,0.149,9.216,3.883,11.925l70.251,51.051l-26.837,82.603
			c-1.429,4.395,0.149,9.216,3.883,11.925c3.755,2.731,8.789,2.731,12.544,0l70.251-51.051l70.251,51.029
			c1.877,1.365,4.075,2.048,6.272,2.048s4.395-0.661,6.293-2.027c3.755-2.709,5.312-7.531,3.883-11.925l-26.837-82.603
			l70.251-51.051C379.2,330.112,380.757,325.291,379.328,320.896z M286.357,371.179c-3.755,2.709-5.312,7.531-3.883,11.925
			l19.093,58.752l-49.963-36.309c-1.877-1.365-4.075-2.048-6.272-2.048s-4.395,0.683-6.293,2.048l-49.963,36.309l19.093-58.752
			c1.429-4.395-0.149-9.216-3.883-11.925l-49.963-36.309h61.76c4.629,0,8.725-2.987,10.155-7.381l19.093-58.731l19.072,58.731
			c1.429,4.395,5.525,7.381,10.155,7.381h61.76L286.357,371.179z"/>
	</g>
</g>
<g>
</g>
<g>
</g>
<g>
</g>
<g>
</g>
<g>
</g>
<g>
</g>
<g>
</g>
<g>
</g>
<g>
</g>
<g>
</g>
<g>
</g>
<g>
</g>
<g>
</g>
<g>
</g>
<g>
</g>
</svg>
