<svg id="Capa_1" enable-background="new 0 0 512 512" height="512" viewBox="0 0 512 512" width="512" xmlns="http://www.w3.org/2000/svg"><g><path d="m437.02 74.981c-48.353-48.353-112.64-74.981-181.02-74.981s-132.667 26.628-181.019 74.981c-48.353 48.352-74.981 112.639-74.981 181.019s26.628 132.667 74.981 181.019c48.352 48.353 112.639 74.981 181.019 74.981s132.667-26.628 181.02-74.981c48.351-48.352 74.98-112.639 74.98-181.019s-26.629-132.667-74.98-181.019zm-181.02 417.019c-130.131 0-236-105.869-236-236s105.869-236 236-236 236 105.869 236 236-105.869 236-236 236z"/><path d="m256 44c-116.897 0-212 95.103-212 212s95.103 212 212 212 212-95.103 212-212-95.103-212-212-212zm0 404c-105.869 0-192-86.131-192-192s86.131-192 192-192 192 86.131 192 192-86.131 192-192 192z"/><path d="m335.365 166.077c-8.506-4.705-18.499-4.429-26.731.737l-77.796 48.808v-18.966c0-18.689-15.205-33.894-33.894-33.894s-33.894 15.205-33.894 33.894v118.688c0 18.689 15.205 33.894 33.894 33.894s33.894-15.205 33.894-33.894v-18.966l77.796 48.808c4.327 2.715 9.142 4.08 13.97 4.08 4.357 0 8.728-1.111 12.763-3.343 8.505-4.705 13.583-13.316 13.583-23.036v-133.773c-.001-9.72-5.079-18.332-13.585-23.037zm-6.416 156.809c0 3.366-2.282 4.992-3.264 5.535-.98.543-3.569 1.613-6.423-.177l-93.11-58.417c-3.082-1.933-6.969-2.041-10.155-.28-3.184 1.761-5.16 5.112-5.16 8.75v37.045c0 7.661-6.232 13.894-13.894 13.894s-13.894-6.232-13.894-13.894v-118.686c0-7.661 6.232-13.894 13.894-13.894s13.894 6.232 13.894 13.894v37.045c0 3.638 1.976 6.99 5.16 8.75 3.184 1.761 7.073 1.654 10.155-.28l93.11-58.417c2.854-1.79 5.442-.72 6.423-.177s3.264 2.169 3.264 5.535z"/></g></svg>