<svg id="Capa_1" enable-background="new 0 0 512 512" height="512" viewBox="0 0 512 512" width="512" xmlns="http://www.w3.org/2000/svg"><g><path d="m437.02 74.981c-48.353-48.353-112.64-74.981-181.02-74.981s-132.667 26.628-181.02 74.981c-48.351 48.352-74.98 112.639-74.98 181.019s26.629 132.667 74.98 181.019c48.353 48.353 112.64 74.981 181.02 74.981s132.667-26.628 181.02-74.981c48.351-48.352 74.98-112.639 74.98-181.019s-26.629-132.667-74.98-181.019zm-181.02 417.019c-130.131 0-236-105.869-236-236s105.869-236 236-236 236 105.869 236 236-105.869 236-236 236z"/><path d="m256 44c-116.897 0-212 95.103-212 212s95.103 212 212 212 212-95.103 212-212-95.103-212-212-212zm0 404c-105.869 0-192-86.131-192-192s86.131-192 192-192 192 86.131 192 192-86.131 192-192 192z"/><path d="m315.056 162.762c-18.689 0-33.894 15.205-33.894 33.894v18.966l-77.796-48.808c-8.233-5.167-18.228-5.441-26.731-.737-8.506 4.705-13.584 13.316-13.584 23.037v133.772c0 9.72 5.078 18.332 13.583 23.036 4.035 2.232 8.404 3.343 12.763 3.343 4.828 0 9.643-1.364 13.97-4.08l77.796-48.808v18.966c0 18.689 15.204 33.894 33.894 33.894s33.894-15.205 33.894-33.894v-118.687c-.002-18.689-15.206-33.894-33.895-33.894zm13.893 152.582c0 7.661-6.232 13.894-13.894 13.894s-13.894-6.232-13.894-13.894v-37.045c0-3.638-1.976-6.99-5.16-8.75-1.509-.834-3.175-1.25-4.84-1.25-1.848 0-3.693.512-5.314 1.529l-93.11 58.417c-2.854 1.79-5.441.72-6.423.177-.981-.542-3.264-2.168-3.264-5.535v-133.773c0-3.366 2.282-4.992 3.264-5.535s3.571-1.613 6.423.177l93.11 58.417c3.084 1.935 6.973 2.04 10.154.28 3.185-1.761 5.16-5.112 5.16-8.75v-37.045c0-7.661 6.232-13.894 13.894-13.894s13.894 6.232 13.894 13.894z"/></g></svg>