<svg id="Capa_1" enable-background="new 0 0 512 512" height="512" viewBox="0 0 512 512" width="512" xmlns="http://www.w3.org/2000/svg"><g><path d="m437.019 74.981c-48.352-48.353-112.639-74.981-181.019-74.981s-132.667 26.628-181.019 74.981c-48.353 48.352-74.981 112.639-74.981 181.019s26.628 132.667 74.981 181.019c48.352 48.353 112.639 74.981 181.019 74.981s132.667-26.628 181.019-74.981c48.353-48.352 74.981-112.639 74.981-181.019s-26.628-132.667-74.981-181.019zm-181.019 417.019c-130.131 0-236-105.869-236-236s105.869-236 236-236 236 105.869 236 236-105.869 236-236 236z"/><path d="m256 44c-116.897 0-212 95.103-212 212s95.103 212 212 212 212-95.103 212-212-95.103-212-212-212zm0 404c-105.869 0-192-86.131-192-192s86.131-192 192-192 192 86.131 192 192-86.131 192-192 192z"/><path d="m343.295 233.7-106.61-66.886c-8.233-5.166-18.227-5.44-26.732-.737-8.505 4.705-13.583 13.316-13.583 23.036v133.772c0 9.72 5.078 18.332 13.583 23.036 4.035 2.232 8.404 3.343 12.762 3.343 4.828 0 9.643-1.364 13.97-4.08l106.61-66.886c7.723-4.846 12.334-13.182 12.334-22.3s-4.61-17.452-12.334-22.298zm-10.628 27.658-106.61 66.886c-2.85 1.789-5.44.72-6.423.177-.981-.542-3.264-2.168-3.264-5.535v-133.772c0-3.366 2.282-4.992 3.264-5.535.574-.318 1.699-.815 3.105-.815.997 0 2.135.25 3.318.992l106.609 66.886c2.675 1.678 2.964 4.307 2.964 5.358s-.289 3.68-2.963 5.358z"/></g></svg>