<?xml version="1.0" encoding="iso-8859-1"?>
<!-- Generator: Adobe Illustrator 19.0.0, SVG Export Plug-In . SVG Version: 6.00 Build 0)  -->
<svg version="1.1" id="Capa_1" xmlns="http://www.w3.org/2000/svg" xmlns:xlink="http://www.w3.org/1999/xlink" x="0px" y="0px"
	 viewBox="0 0 512 512" style="enable-background:new 0 0 512 512;" xml:space="preserve">
<g>
	<g>
		<path d="M360.768,367.253c-2.005-2.859-5.269-4.587-8.768-4.587h-64c-3.499,0-6.763,1.728-8.768,4.608
			c-1.984,2.859-2.453,6.528-1.216,9.813l32,85.333c1.557,4.16,5.547,6.912,9.984,6.912s8.427-2.752,9.984-6.933l32-85.333
			C363.2,373.803,362.752,370.133,360.768,367.253z M320,428.288L303.403,384h33.195L320,428.288z"/>
	</g>
</g>
<g>
	<g>
		<path d="M320,42.667c-23.531,0-42.667,19.136-42.667,42.667v288c0,5.888,4.779,10.667,10.667,10.667h64
			c5.888,0,10.667-4.779,10.667-10.667v-288C362.667,61.803,343.531,42.667,320,42.667z M341.333,362.667h-42.667V85.333
			C298.667,73.579,308.224,64,320,64s21.333,9.579,21.333,21.333V362.667z"/>
	</g>
</g>
<g>
	<g>
		<path d="M352,128h-64c-5.888,0-10.667,4.779-10.667,10.667s4.779,10.667,10.667,10.667h64c5.888,0,10.667-4.779,10.667-10.667
			S357.888,128,352,128z"/>
	</g>
</g>
<g>
	<g>
		<path d="M437.333,0c-5.888,0-10.667,4.779-10.667,10.667v480h-352c-5.888,0-10.667,4.779-10.667,10.667
			C64,507.221,68.779,512,74.667,512h362.667c5.888,0,10.667-4.779,10.667-10.667V10.667C448,4.779,443.221,0,437.333,0z"/>
	</g>
</g>
<g>
	<g>
		<path d="M437.333,0H202.667c-2.837,0-5.547,1.131-7.552,3.115l-128,128C65.131,133.12,64,135.829,64,138.667v362.667
			C64,507.221,68.779,512,74.667,512s10.667-4.779,10.667-10.667V143.083L207.083,21.333h230.251
			c5.888,0,10.667-4.779,10.667-10.667S443.221,0,437.333,0z"/>
	</g>
</g>
<g>
	<g>
		<path d="M202.667,0C196.779,0,192,4.779,192,10.667V128H74.667C68.779,128,64,132.779,64,138.667s4.779,10.667,10.667,10.667h128
			c5.888,0,10.667-4.779,10.667-10.667v-128C213.333,4.779,208.555,0,202.667,0z"/>
	</g>
</g>
<g>
</g>
<g>
</g>
<g>
</g>
<g>
</g>
<g>
</g>
<g>
</g>
<g>
</g>
<g>
</g>
<g>
</g>
<g>
</g>
<g>
</g>
<g>
</g>
<g>
</g>
<g>
</g>
<g>
</g>
</svg>
