<svg id="Capa_1" enable-background="new 0 0 512 512" height="512" viewBox="0 0 512 512" width="512" xmlns="http://www.w3.org/2000/svg"><g><path d="m437.019 74.981c-48.352-48.353-112.639-74.981-181.019-74.981s-132.667 26.628-181.019 74.981c-48.353 48.352-74.981 112.639-74.981 181.019s26.628 132.667 74.981 181.019c48.352 48.353 112.639 74.981 181.019 74.981s132.667-26.628 181.019-74.981c48.353-48.352 74.981-112.639 74.981-181.019s-26.628-132.667-74.981-181.019zm-181.019 417.019c-130.131 0-236-105.869-236-236s105.869-236 236-236 236 105.869 236 236-105.869 236-236 236z"/><path d="m256 44c-116.897 0-212 95.103-212 212s95.103 212 212 212 212-95.103 212-212-95.103-212-212-212zm0 404c-105.869 0-192-86.131-192-192s86.131-192 192-192 192 86.131 192 192-86.131 192-192 192z"/><path d="m321.446 164.229h-130.892c-14.516 0-26.325 11.81-26.325 26.325v130.892c0 14.516 11.81 26.325 26.325 26.325h130.892c14.516 0 26.325-11.81 26.325-26.325v-130.892c0-14.515-11.81-26.325-26.325-26.325zm6.325 157.217c0 3.488-2.837 6.325-6.325 6.325h-130.892c-3.488 0-6.325-2.837-6.325-6.325v-130.892c0-3.488 2.837-6.325 6.325-6.325h130.892c3.488 0 6.325 2.837 6.325 6.325z"/></g></svg>