<?xml version="1.0" encoding="iso-8859-1"?>
<!-- Generator: Adobe Illustrator 19.0.0, SVG Export Plug-In . SVG Version: 6.00 Build 0)  -->
<svg version="1.1" id="Capa_1" xmlns="http://www.w3.org/2000/svg" xmlns:xlink="http://www.w3.org/1999/xlink" x="0px" y="0px"
	 viewBox="0 0 512 512" style="enable-background:new 0 0 512 512;" xml:space="preserve">
<g>
	<g>
		<path fill="#fff" d="M353.899,149.525c-5.803-1.067-11.349,2.773-12.395,8.576L320,277.333c0,58.944,48.213,85.333,96,85.333
			c45.312,0,96-45.611,96-106.667C512,114.837,397.163,0,256,0S0,114.837,0,256s114.837,256,256,256
			c58.475,0,113.536-19.2,159.189-55.531c4.608-3.669,5.376-10.368,1.707-14.976c-3.669-4.629-10.368-5.397-14.976-1.707
			c-41.856,33.28-92.309,50.88-145.92,50.88c-129.387,0-234.667-105.28-234.667-234.667S126.613,21.333,256,21.333
			S490.667,126.613,490.667,256c0,48.064-40.128,85.333-74.667,85.333c-34.453,0-74.667-16.768-74.859-62.08l21.333-117.333
			C363.541,156.139,359.701,150.571,353.899,149.525z"/>
	</g>
</g>
<g>
	<g>
		<path fill="#fff" d="M348.8,173.717c-22.229-21.653-60.544-29.653-97.515-20.309c-43.328,10.901-76.416,43.221-90.773,88.725
			c-8.939,28.245-3.605,59.648,14.251,84.011c17.003,23.211,42.731,36.523,70.571,36.523c50.112,0,86.08-41.707,95.723-82.901
			c1.344-5.739-2.219-11.477-7.957-12.821c-5.717-1.365-11.477,2.219-12.821,7.957c-6.229,26.709-31.36,66.432-74.944,66.432
			c-20.949,0-40.427-10.133-53.333-27.797c-13.845-18.901-18.005-43.2-11.136-64.981c16.555-52.395,54.507-69.12,75.648-74.453
			c29.589-7.403,60.651-1.429,77.397,14.891c4.245,4.096,10.987,4.053,15.083-0.192C353.109,184.576,353.024,177.813,348.8,173.717z
			"/>
	</g>
</g>
<g>
</g>
<g>
</g>
<g>
</g>
<g>
</g>
<g>
</g>
<g>
</g>
<g>
</g>
<g>
</g>
<g>
</g>
<g>
</g>
<g>
</g>
<g>
</g>
<g>
</g>
<g>
</g>
<g>
</g>
</svg>
